<?xml version="1.0" encoding="utf-8"?>
<svg version="1.1" xmlns:xlink="http://www.w3.org/1999/xlink" width="12px" height="12px" viewBox="128 493.5  12 12" xmlns="http://www.w3.org/2000/svg">
  <path d="M 134 493.5  C 137.36 493.5  140 496.14  140 499.5  C 140 502.86  137.36 505.5  134 505.5  C 130.64 505.5  128 502.86  128 499.5  C 128 496.14  130.64 493.5  134 493.5  Z " fill-rule="nonzero" fill="#ffffff" stroke="none" />
  <path d="M 134 494  C 137.08 494  139.5 496.42  139.5 499.5  C 139.5 502.58  137.08 505  134 505  C 130.92 505  128.5 502.58  128.5 499.5  C 128.5 496.42  130.92 494  134 494  Z " stroke-width="1" stroke="#797979" fill="none" />
  <path d="M 134 502.5  C 132.32 502.5  131 501.18  131 499.5  C 131 497.82  132.32 496.5  134 496.5  C 135.68 496.5  137 497.82  137 499.5  C 137 501.18  135.68 502.5  134 502.5  " fill-rule="nonzero" fill="#797979" stroke="none" />
</svg>