<?xml version="1.0" encoding="utf-8"?>
<svg version="1.1" xmlns:xlink="http://www.w3.org/1999/xlink" width="12px" height="12px" viewBox="242 276.5  12 12" xmlns="http://www.w3.org/2000/svg">
  <path d="M 248 276.5  C 251.36 276.5  254 279.14  254 282.5  C 254 285.86  251.36 288.5  248 288.5  C 244.64 288.5  242 285.86  242 282.5  C 242 279.14  244.64 276.5  248 276.5  Z " fill-rule="nonzero" fill="#ffffff" stroke="none" />
  <path d="M 248 277  C 251.08 277  253.5 279.42  253.5 282.5  C 253.5 285.58  251.08 288  248 288  C 244.92 288  242.5 285.58  242.5 282.5  C 242.5 279.42  244.92 277  248 277  Z " stroke-width="1" stroke="#797979" fill="none" />
  <path d="M 248 285.5  C 246.32 285.5  245 284.18  245 282.5  C 245 280.82  246.32 279.5  248 279.5  C 249.68 279.5  251 280.82  251 282.5  C 251 284.18  249.68 285.5  248 285.5  " fill-rule="nonzero" fill="#797979" stroke="none" />
</svg>