<?xml version="1.0" encoding="utf-8"?>
<svg version="1.1" xmlns:xlink="http://www.w3.org/1999/xlink" width="12px" height="12px" viewBox="335 115.5  12 12" xmlns="http://www.w3.org/2000/svg">
  <path d="M 341 115.5  C 344.36 115.5  347 118.14  347 121.5  C 347 124.86  344.36 127.5  341 127.5  C 337.64 127.5  335 124.86  335 121.5  C 335 118.14  337.64 115.5  341 115.5  Z " fill-rule="nonzero" fill="#ffffff" stroke="none" />
  <path d="M 341 116  C 344.08 116  346.5 118.42  346.5 121.5  C 346.5 124.58  344.08 127  341 127  C 337.92 127  335.5 124.58  335.5 121.5  C 335.5 118.42  337.92 116  341 116  Z " stroke-width="1" stroke="#797979" fill="none" />
  <path d="M 341 124.5  C 339.32 124.5  338 123.18  338 121.5  C 338 119.82  339.32 118.5  341 118.5  C 342.68 118.5  344 119.82  344 121.5  C 344 123.18  342.68 124.5  341 124.5  " fill-rule="nonzero" fill="#797979" stroke="none" />
</svg>