<?xml version="1.0" encoding="utf-8"?>
<svg version="1.1" xmlns:xlink="http://www.w3.org/1999/xlink" width="12px" height="12px" viewBox="133 115.5  12 12" xmlns="http://www.w3.org/2000/svg">
  <path d="M 139 115.5  C 142.36 115.5  145 118.14  145 121.5  C 145 124.86  142.36 127.5  139 127.5  C 135.64 127.5  133 124.86  133 121.5  C 133 118.14  135.64 115.5  139 115.5  Z " fill-rule="nonzero" fill="#ffffff" stroke="none" />
  <path d="M 139 116  C 142.08 116  144.5 118.42  144.5 121.5  C 144.5 124.58  142.08 127  139 127  C 135.92 127  133.5 124.58  133.5 121.5  C 133.5 118.42  135.92 116  139 116  Z " stroke-width="1" stroke="#797979" fill="none" />
  <path d="M 139 124.5  C 137.32 124.5  136 123.18  136 121.5  C 136 119.82  137.32 118.5  139 118.5  C 140.68 118.5  142 119.82  142 121.5  C 142 123.18  140.68 124.5  139 124.5  " fill-rule="nonzero" fill="#797979" stroke="none" />
</svg>