<svg t="1606199256740" class="icon" viewBox="0 0 1024 1024" version="1.1" xmlns="http://www.w3.org/2000/svg" p-id="3399" width="200" height="200"><path d="M976.001 1023.937h-928.001c-26.498 0-48.003-21.502-48.003-48.003v-799.935c0-26.494 21.502-47.999 48.003-47.999h96v47.999c0 61.823 50.112 112.001 112.001 112.001 61.823 0 112.001-50.175 112.001-112.001v-47.999h288.001v47.999c0 61.823 50.175 112.001 112.001 112.001s112.001-50.175 112.001-112.001v-47.999h96c26.494 0 48.003 21.502 48.003 47.999v799.935c0 26.494-21.502 48.003-48.003 48.003zM928 384h-832v543.935h832v-543.935zM316.736 715.393c8.319-9.857 18.114-18.944 29.313-27.265 11.264-8.322 23.104-16.765 35.585-25.344 6.401-4.479 13.182-8.96 20.353-13.568 7.232-4.544 13.824-9.601 19.776-15.168 5.951-5.503 10.944-11.776 14.975-18.688 4.031-6.912 6.015-14.848 6.015-23.744 0-14.144-4.096-25.152-12.222-33.024-8.193-7.936-18.688-11.902-31.425-11.902-8.575 0-15.872 2.047-21.824 6.080-6.015 3.967-10.752 9.28-14.4 15.808-3.584 6.464-6.145 13.695-7.679 21.633-1.536 7.872-2.304 15.745-2.304 23.488h-56.576c-0.512-16.64 1.409-32.129 5.824-46.401 4.481-14.272 11.138-26.753 19.968-37.44 8.898-10.688 20.032-19.008 33.536-24.961 13.441-5.951 28.864-8.96 46.336-8.96 13.313 0 26.048 2.112 38.081 6.274 12.095 4.158 22.654 10.111 31.808 17.856 9.152 7.807 16.447 17.344 21.889 28.737 5.376 11.391 8.063 24.128 8.063 38.273 0 14.721-2.304 27.328-7.041 37.824-4.735 10.56-10.944 19.904-18.752 28.095-7.745 8.193-16.576 15.616-26.367 22.272-9.855 6.656-19.776 13.248-29.76 19.712-9.984 6.53-19.712 13.568-29.12 21.056-9.407 7.489-17.728 16.192-24.961 26.176h137.663v50.752h-213.824c0-16.896 2.431-31.615 7.295-44.096s11.456-23.617 19.776-33.472zM593.793 738.24c8.575 7.936 19.52 11.902 32.831 11.902 7.807 0 14.784-1.6 21.056-4.8 6.208-3.199 11.456-7.36 15.808-12.481 4.288-5.12 7.616-11.072 9.984-17.92 2.304-6.785 3.52-13.76 3.52-20.993 0-7.487-1.089-14.53-3.328-21.184-2.24-6.656-5.567-12.481-9.984-17.473-4.416-4.993-9.728-8.895-15.808-11.649-6.080-2.818-13.182-4.162-21.248-4.162-10.497 0-19.135 1.856-25.791 5.569-6.656 3.775-12.864 9.664-18.688 17.728h-53.247l28.672-161.025h162.689v48.707h-120.256l-11.647 66.112 0.832 0.832c8.065-8.002 16.64-13.76 25.791-17.217 9.152-3.52 19.582-5.249 31.232-5.249 14.4 0 27.2 2.687 38.273 7.936 11.072 5.247 20.415 12.351 28.097 21.184 7.616 8.895 13.441 19.329 17.473 31.423 3.969 12.033 6.015 24.896 6.015 38.464 0 14.975-2.945 28.927-8.769 41.793-5.824 12.927-13.632 24.064-23.488 33.536-9.855 9.409-21.248 16.706-34.304 21.824-13.056 5.12-26.88 7.551-41.599 7.295-14.144 0-27.648-1.919-40.577-5.632-12.864-3.775-24.319-9.536-34.304-17.282-9.984-7.743-17.984-17.41-23.937-28.927-5.953-11.456-9.089-24.832-9.342-40.128h59.072c1.406 13.309 6.401 23.935 14.975 31.808zM768.001 224.003c-26.494 0-47.999-21.506-47.999-48.003v-128c0-26.494 21.502-48.003 47.999-48.003s47.999 21.502 47.999 48.003v128c0 26.498-21.502 48.003-47.999 48.003zM255.999 224.003c-26.498 0-47.999-21.506-47.999-48.003v-128c0-26.494 21.502-48.003 47.999-48.003s47.999 21.502 47.999 48.003v128c0 26.498-21.502 48.003-47.999 48.003z" p-id="3400" fill="#08A2BA"></path></svg>