<svg t="1606198373036" class="icon" viewBox="0 0 1024 1024" version="1.1" xmlns="http://www.w3.org/2000/svg" p-id="1778" width="200" height="200"><path d="M512 73.142857c242.102857 0 438.857143 196.754286 438.857143 438.857143s-196.754286 438.857143-438.857143 438.857143-438.857143-196.754286-438.857143-438.857143 196.754286-438.857143 438.857143-438.857143m0-73.142857C228.937143 0 0 228.937143 0 512s228.937143 512 512 512 512-228.937143 512-512-228.937143-512-512-512z" fill="#bfbfbf" p-id="1779"></path><path d="M512 401.554286c-20.48 0-36.571429 16.091429-36.571429 36.571428v318.902857c0 20.48 16.091429 36.571429 36.571429 36.571429s36.571429-16.091429 36.571429-36.571429V438.125714c0-20.48-16.091429-36.571429-36.571429-36.571428zM512 230.4c-24.137143 0-43.885714 19.748571-43.885714 43.885714 0 24.137143 19.748571 43.885714 43.885714 43.885715 24.137143 0 43.885714-19.748571 43.885714-43.885715 0-24.137143-19.748571-43.885714-43.885714-43.885714z" fill="#bfbfbf" p-id="1780"></path></svg>