<?xml version="1.0" encoding="utf-8"?>
<svg version="1.1" xmlns:xlink="http://www.w3.org/1999/xlink" width="12px" height="12px" viewBox="140 124.5  12 12" xmlns="http://www.w3.org/2000/svg">
  <path d="M 146 124.5  C 149.36 124.5  152 127.14  152 130.5  C 152 133.86  149.36 136.5  146 136.5  C 142.64 136.5  140 133.86  140 130.5  C 140 127.14  142.64 124.5  146 124.5  Z " fill-rule="nonzero" fill="#ffffff" stroke="none" />
  <path d="M 146 125  C 149.08 125  151.5 127.42  151.5 130.5  C 151.5 133.58  149.08 136  146 136  C 142.92 136  140.5 133.58  140.5 130.5  C 140.5 127.42  142.92 125  146 125  Z " stroke-width="1" stroke="#797979" fill="none" />
  <path d="M 146 133.5  C 144.32 133.5  143 132.18  143 130.5  C 143 128.82  144.32 127.5  146 127.5  C 147.68 127.5  149 128.82  149 130.5  C 149 132.18  147.68 133.5  146 133.5  " fill-rule="nonzero" fill="#797979" stroke="none" />
</svg>