<?xml version="1.0" encoding="utf-8"?>
<svg version="1.1" xmlns:xlink="http://www.w3.org/1999/xlink" width="112px" height="28px" xmlns="http://www.w3.org/2000/svg">
  <defs>
    <mask fill="white" id="clip47">
      <path d="M 0 24  L 0 4  C 0 1.76000000000001  1.51630769230768 0  3.44615384615385 0  L 84.6222222222222 0  L 108.553846153846 0  C 110.483692307692 0  112 1.76000000000001  112 4  L 112 24  C 112 26.24  110.483692307692 28  108.553846153846 28  L 3.44615384615385 28  C 1.51630769230768 28  0 26.24  0 24  Z " fill-rule="evenodd" />
    </mask>
  </defs>
  <g transform="matrix(1 0 0 1 -1314 -41 )">
    <path d="M 0 24  L 0 4  C 0 1.76000000000001  1.51630769230768 0  3.44615384615385 0  L 84.6222222222222 0  L 108.553846153846 0  C 110.483692307692 0  112 1.76000000000001  112 4  L 112 24  C 112 26.24  110.483692307692 28  108.553846153846 28  L 3.44615384615385 28  C 1.51630769230768 28  0 26.24  0 24  Z " fill-rule="nonzero" fill="#f5f7fa" stroke="none" transform="matrix(1 0 0 1 1314 41 )" />
    <path d="M 0 24  L 0 4  C 0 1.76000000000001  1.51630769230768 0  3.44615384615385 0  L 84.6222222222222 0  L 108.553846153846 0  C 110.483692307692 0  112 1.76000000000001  112 4  L 112 24  C 112 26.24  110.483692307692 28  108.553846153846 28  L 3.44615384615385 28  C 1.51630769230768 28  0 26.24  0 24  Z " stroke-width="2" stroke="#dcdfe6" fill="none" transform="matrix(1 0 0 1 1314 41 )" mask="url(#clip47)" />
  </g>
</svg>