<?xml version="1.0" encoding="utf-8"?>
<svg version="1.1" xmlns:xlink="http://www.w3.org/1999/xlink" width="12px" height="12px" viewBox="263 508.5  12 12" xmlns="http://www.w3.org/2000/svg">
  <path d="M 269 508.5  C 272.36 508.5  275 511.14  275 514.5  C 275 517.86  272.36 520.5  269 520.5  C 265.64 520.5  263 517.86  263 514.5  C 263 511.14  265.64 508.5  269 508.5  Z " fill-rule="nonzero" fill="#ffffff" stroke="none" />
  <path d="M 269 509  C 272.08 509  274.5 511.42  274.5 514.5  C 274.5 517.58  272.08 520  269 520  C 265.92 520  263.5 517.58  263.5 514.5  C 263.5 511.42  265.92 509  269 509  Z " stroke-width="1" stroke="#797979" fill="none" />
  <path d="M 269 517.5  C 267.32 517.5  266 516.18  266 514.5  C 266 512.82  267.32 511.5  269 511.5  C 270.68 511.5  272 512.82  272 514.5  C 272 516.18  270.68 517.5  269 517.5  " fill-rule="nonzero" fill="#797979" stroke="none" />
</svg>