<?xml version="1.0" encoding="utf-8"?>
<svg version="1.1" xmlns:xlink="http://www.w3.org/1999/xlink" width="12px" height="12px" viewBox="418 508.5  12 12" xmlns="http://www.w3.org/2000/svg">
  <path d="M 424 508.5  C 427.36 508.5  430 511.14  430 514.5  C 430 517.86  427.36 520.5  424 520.5  C 420.64 520.5  418 517.86  418 514.5  C 418 511.14  420.64 508.5  424 508.5  Z " fill-rule="nonzero" fill="#ffffff" stroke="none" />
  <path d="M 424 509  C 427.08 509  429.5 511.42  429.5 514.5  C 429.5 517.58  427.08 520  424 520  C 420.92 520  418.5 517.58  418.5 514.5  C 418.5 511.42  420.92 509  424 509  Z " stroke-width="1" stroke="#797979" fill="none" />
  <path d="M 424 517.5  C 422.32 517.5  421 516.18  421 514.5  C 421 512.82  422.32 511.5  424 511.5  C 425.68 511.5  427 512.82  427 514.5  C 427 516.18  425.68 517.5  424 517.5  " fill-rule="nonzero" fill="#797979" stroke="none" />
</svg>