<?xml version="1.0" encoding="utf-8"?>
<svg version="1.1" xmlns:xlink="http://www.w3.org/1999/xlink" width="105px" height="28px" xmlns="http://www.w3.org/2000/svg">
  <defs>
    <mask fill="white" id="clip71">
      <path d="M 0 24  L 0 4  C 0 1.76  1.75999999999999 0  4 0  L 101 0  C 103.24 0  105 1.76  105 4  L 105 24  C 105 26.24  103.24 28  101 28  L 74.4117647058824 28  L 4 28  C 1.75999999999999 28  0 26.24  0 24  Z " fill-rule="evenodd" />
    </mask>
  </defs>
  <g transform="matrix(1 0 0 1 -429 -51 )">
    <path d="M 0 24  L 0 4  C 0 1.76  1.75999999999999 0  4 0  L 101 0  C 103.24 0  105 1.76  105 4  L 105 24  C 105 26.24  103.24 28  101 28  L 74.4117647058824 28  L 4 28  C 1.75999999999999 28  0 26.24  0 24  Z " fill-rule="nonzero" fill="#f5f7fa" stroke="none" transform="matrix(1 0 0 1 429 51 )" />
    <path d="M 0 24  L 0 4  C 0 1.76  1.75999999999999 0  4 0  L 101 0  C 103.24 0  105 1.76  105 4  L 105 24  C 105 26.24  103.24 28  101 28  L 74.4117647058824 28  L 4 28  C 1.75999999999999 28  0 26.24  0 24  Z " stroke-width="2" stroke="#dcdfe6" fill="none" transform="matrix(1 0 0 1 429 51 )" mask="url(#clip71)" />
  </g>
</svg>