<?xml version="1.0" encoding="utf-8"?>
<svg version="1.1" xmlns:xlink="http://www.w3.org/1999/xlink" width="12px" height="12px" viewBox="467 114.5  12 12" xmlns="http://www.w3.org/2000/svg">
  <path d="M 473 114.5  C 476.36 114.5  479 117.14  479 120.5  C 479 123.86  476.36 126.5  473 126.5  C 469.64 126.5  467 123.86  467 120.5  C 467 117.14  469.64 114.5  473 114.5  Z " fill-rule="nonzero" fill="#f0f0f0" stroke="none" />
  <path d="M 473 115  C 476.08 115  478.5 117.42  478.5 120.5  C 478.5 123.58  476.08 126  473 126  C 469.92 126  467.5 123.58  467.5 120.5  C 467.5 117.42  469.92 115  473 115  Z " stroke-width="1" stroke="#797979" fill="none" />
  <path d="M 473 123.5  C 471.32 123.5  470 122.18  470 120.5  C 470 118.82  471.32 117.5  473 117.5  C 474.68 117.5  476 118.82  476 120.5  C 476 122.18  474.68 123.5  473 123.5  " fill-rule="nonzero" fill="#797979" stroke="none" />
</svg>