<?xml version="1.0" encoding="utf-8"?>
<svg version="1.1" xmlns:xlink="http://www.w3.org/1999/xlink" width="137px" height="28px" xmlns="http://www.w3.org/2000/svg">
  <defs>
    <mask fill="white" id="clip87">
      <path d="M 0 24  L 0 4  C 0 1.76  2.29638095238096 0  5.21904761904762 0  L 90.4634920634921 0  L 131.780952380952 0  C 134.703619047619 0  137 1.76  137 4  L 137 24  C 137 26.24  134.703619047619 28  131.780952380952 28  L 5.21904761904762 28  C 2.29638095238096 28  0 26.24  0 24  Z " fill-rule="evenodd" />
    </mask>
  </defs>
  <g transform="matrix(1 0 0 1 -131 -51 )">
    <path d="M 0 24  L 0 4  C 0 1.76  2.29638095238096 0  5.21904761904762 0  L 90.4634920634921 0  L 131.780952380952 0  C 134.703619047619 0  137 1.76  137 4  L 137 24  C 137 26.24  134.703619047619 28  131.780952380952 28  L 5.21904761904762 28  C 2.29638095238096 28  0 26.24  0 24  Z " fill-rule="nonzero" fill="#ffffff" stroke="none" transform="matrix(1 0 0 1 131 51 )" />
    <path d="M 0 24  L 0 4  C 0 1.76  2.29638095238096 0  5.21904761904762 0  L 90.4634920634921 0  L 131.780952380952 0  C 134.703619047619 0  137 1.76  137 4  L 137 24  C 137 26.24  134.703619047619 28  131.780952380952 28  L 5.21904761904762 28  C 2.29638095238096 28  0 26.24  0 24  Z " stroke-width="2" stroke="#dcdfe6" fill="none" transform="matrix(1 0 0 1 131 51 )" mask="url(#clip87)" />
  </g>
</svg>