<?xml version="1.0" encoding="utf-8"?>
<svg version="1.1" xmlns:xlink="http://www.w3.org/1999/xlink" width="12px" height="12px" viewBox="115 446.5  12 12" xmlns="http://www.w3.org/2000/svg">
  <path d="M 121 446.5  C 124.36 446.5  127 449.14  127 452.5  C 127 455.86  124.36 458.5  121 458.5  C 117.64 458.5  115 455.86  115 452.5  C 115 449.14  117.64 446.5  121 446.5  Z " fill-rule="nonzero" fill="#ffffff" stroke="none" />
  <path d="M 121 447  C 124.08 447  126.5 449.42  126.5 452.5  C 126.5 455.58  124.08 458  121 458  C 117.92 458  115.5 455.58  115.5 452.5  C 115.5 449.42  117.92 447  121 447  Z " stroke-width="1" stroke="#797979" fill="none" />
  <path d="M 121 455.5  C 119.32 455.5  118 454.18  118 452.5  C 118 450.82  119.32 449.5  121 449.5  C 122.68 449.5  124 450.82  124 452.5  C 124 454.18  122.68 455.5  121 455.5  " fill-rule="nonzero" fill="#797979" stroke="none" />
</svg>