<?xml version="1.0" encoding="utf-8"?>
<svg version="1.1" xmlns:xlink="http://www.w3.org/1999/xlink" width="12px" height="12px" viewBox="332 446.5  12 12" xmlns="http://www.w3.org/2000/svg">
  <path d="M 338 446.5  C 341.36 446.5  344 449.14  344 452.5  C 344 455.86  341.36 458.5  338 458.5  C 334.64 458.5  332 455.86  332 452.5  C 332 449.14  334.64 446.5  338 446.5  Z " fill-rule="nonzero" fill="#ffffff" stroke="none" />
  <path d="M 338 447  C 341.08 447  343.5 449.42  343.5 452.5  C 343.5 455.58  341.08 458  338 458  C 334.92 458  332.5 455.58  332.5 452.5  C 332.5 449.42  334.92 447  338 447  Z " stroke-width="1" stroke="#797979" fill="none" />
  <path d="M 338 455.5  C 336.32 455.5  335 454.18  335 452.5  C 335 450.82  336.32 449.5  338 449.5  C 339.68 449.5  341 450.82  341 452.5  C 341 454.18  339.68 455.5  338 455.5  " fill-rule="nonzero" fill="#797979" stroke="none" />
</svg>