<?xml version="1.0" encoding="utf-8"?>
<svg version="1.1" xmlns:xlink="http://www.w3.org/1999/xlink" width="12px" height="12px" viewBox="223 446.5  12 12" xmlns="http://www.w3.org/2000/svg">
  <path d="M 229 446.5  C 232.36 446.5  235 449.14  235 452.5  C 235 455.86  232.36 458.5  229 458.5  C 225.64 458.5  223 455.86  223 452.5  C 223 449.14  225.64 446.5  229 446.5  Z " fill-rule="nonzero" fill="#ffffff" stroke="none" />
  <path d="M 229 447  C 232.08 447  234.5 449.42  234.5 452.5  C 234.5 455.58  232.08 458  229 458  C 225.92 458  223.5 455.58  223.5 452.5  C 223.5 449.42  225.92 447  229 447  Z " stroke-width="1" stroke="#797979" fill="none" />
  <path d="M 229 455.5  C 227.32 455.5  226 454.18  226 452.5  C 226 450.82  227.32 449.5  229 449.5  C 230.68 449.5  232 450.82  232 452.5  C 232 454.18  230.68 455.5  229 455.5  " fill-rule="nonzero" fill="#797979" stroke="none" />
</svg>