<?xml version="1.0" encoding="utf-8"?>
<svg version="1.1" xmlns:xlink="http://www.w3.org/1999/xlink" width="12px" height="12px" viewBox="508 446.5  12 12" xmlns="http://www.w3.org/2000/svg">
  <path d="M 514 446.5  C 517.36 446.5  520 449.14  520 452.5  C 520 455.86  517.36 458.5  514 458.5  C 510.64 458.5  508 455.86  508 452.5  C 508 449.14  510.64 446.5  514 446.5  Z " fill-rule="nonzero" fill="#f0f0f0" stroke="none" />
  <path d="M 514 447  C 517.08 447  519.5 449.42  519.5 452.5  C 519.5 455.58  517.08 458  514 458  C 510.92 458  508.5 455.58  508.5 452.5  C 508.5 449.42  510.92 447  514 447  Z " stroke-width="1" stroke="#797979" fill="none" />
  <path d="M 514 455.5  C 512.32 455.5  511 454.18  511 452.5  C 511 450.82  512.32 449.5  514 449.5  C 515.68 449.5  517 450.82  517 452.5  C 517 454.18  515.68 455.5  514 455.5  " fill-rule="nonzero" fill="#797979" stroke="none" />
</svg>