<?xml version="1.0" encoding="utf-8"?>
<svg version="1.1" xmlns:xlink="http://www.w3.org/1999/xlink" width="12px" height="10px" xmlns="http://www.w3.org/2000/svg">
  <g transform="matrix(1 0 0 1 -111 -774 )">
    <path d="M 117 775  C 119.8 775  122 776.76  122 779  C 122 781.24  119.8 783  117 783  C 114.2 783  112 781.24  112 779  C 112 776.76  114.2 775  117 775  Z " fill-rule="nonzero" fill="#ffffff" stroke="none" />
    <path d="M 117 775  C 119.8 775  122 776.76  122 779  C 122 781.24  119.8 783  117 783  C 114.2 783  112 781.24  112 779  C 112 776.76  114.2 775  117 775  Z " stroke-width="2" stroke="#0079fe" fill="none" />
  </g>
</svg>