<?xml version="1.0" encoding="utf-8"?>
<svg version="1.1" xmlns:xlink="http://www.w3.org/1999/xlink" width="12px" height="12px" viewBox="24 160  12 12" xmlns="http://www.w3.org/2000/svg">
  <path d="M 30 160  C 33.36 160  36 162.64  36 166  C 36 169.36  33.36 172  30 172  C 26.64 172  24 169.36  24 166  C 24 162.64  26.64 160  30 160  Z " fill-rule="nonzero" fill="#f0f0f0" stroke="none" />
  <path d="M 30 160.5  C 33.08 160.5  35.5 162.92  35.5 166  C 35.5 169.08  33.08 171.5  30 171.5  C 26.92 171.5  24.5 169.08  24.5 166  C 24.5 162.92  26.92 160.5  30 160.5  Z " stroke-width="1" stroke="#797979" fill="none" />
  <path d="M 30 169  C 28.32 169  27 167.68  27 166  C 27 164.32  28.32 163  30 163  C 31.68 163  33 164.32  33 166  C 33 167.68  31.68 169  30 169  " fill-rule="nonzero" fill="#797979" stroke="none" />
</svg>