<?xml version="1.0" encoding="utf-8"?>
<svg version="1.1" xmlns:xlink="http://www.w3.org/1999/xlink" width="12px" height="12px" viewBox="24 368  12 12" xmlns="http://www.w3.org/2000/svg">
  <path d="M 30 368  C 33.36 368  36 370.64  36 374  C 36 377.36  33.36 380  30 380  C 26.64 380  24 377.36  24 374  C 24 370.64  26.64 368  30 368  Z " fill-rule="nonzero" fill="#f0f0f0" stroke="none" />
  <path d="M 30 368.5  C 33.08 368.5  35.5 370.92  35.5 374  C 35.5 377.08  33.08 379.5  30 379.5  C 26.92 379.5  24.5 377.08  24.5 374  C 24.5 370.92  26.92 368.5  30 368.5  Z " stroke-width="1" stroke="#797979" fill="none" />
  <path d="M 30 377  C 28.32 377  27 375.68  27 374  C 27 372.32  28.32 371  30 371  C 31.68 371  33 372.32  33 374  C 33 375.68  31.68 377  30 377  " fill-rule="nonzero" fill="#797979" stroke="none" />
</svg>