<?xml version="1.0" encoding="utf-8"?>
<svg version="1.1" xmlns:xlink="http://www.w3.org/1999/xlink" width="12px" height="12px" viewBox="24 38  12 12" xmlns="http://www.w3.org/2000/svg">
  <path d="M 30 38  C 33.36 38  36 40.64  36 44  C 36 47.36  33.36 50  30 50  C 26.64 50  24 47.36  24 44  C 24 40.64  26.64 38  30 38  Z " fill-rule="nonzero" fill="#f0f0f0" stroke="none" />
  <path d="M 30 38.5  C 33.08 38.5  35.5 40.92  35.5 44  C 35.5 47.08  33.08 49.5  30 49.5  C 26.92 49.5  24.5 47.08  24.5 44  C 24.5 40.92  26.92 38.5  30 38.5  Z " stroke-width="1" stroke="#797979" fill="none" />
  <path d="M 30 47  C 28.32 47  27 45.68  27 44  C 27 42.32  28.32 41  30 41  C 31.68 41  33 42.32  33 44  C 33 45.68  31.68 47  30 47  " fill-rule="nonzero" fill="#797979" stroke="none" />
</svg>