<?xml version="1.0" encoding="utf-8"?>
<svg version="1.1" xmlns:xlink="http://www.w3.org/1999/xlink" width="12px" height="12px" viewBox="24 279  12 12" xmlns="http://www.w3.org/2000/svg">
  <path d="M 30 279  C 33.36 279  36 281.64  36 285  C 36 288.36  33.36 291  30 291  C 26.64 291  24 288.36  24 285  C 24 281.64  26.64 279  30 279  Z " fill-rule="nonzero" fill="#ffffff" stroke="none" />
  <path d="M 30 279.5  C 33.08 279.5  35.5 281.92  35.5 285  C 35.5 288.08  33.08 290.5  30 290.5  C 26.92 290.5  24.5 288.08  24.5 285  C 24.5 281.92  26.92 279.5  30 279.5  Z " stroke-width="1" stroke="#797979" fill="none" />
  <path d="M 30 288  C 28.32 288  27 286.68  27 285  C 27 283.32  28.32 282  30 282  C 31.68 282  33 283.32  33 285  C 33 286.68  31.68 288  30 288  " fill-rule="nonzero" fill="#797979" stroke="none" />
</svg>