<?xml version="1.0" encoding="utf-8"?>
<svg version="1.1" xmlns:xlink="http://www.w3.org/1999/xlink" width="12px" height="12px" viewBox="24 309  12 12" xmlns="http://www.w3.org/2000/svg">
  <path d="M 30 309  C 33.36 309  36 311.64  36 315  C 36 318.36  33.36 321  30 321  C 26.64 321  24 318.36  24 315  C 24 311.64  26.64 309  30 309  Z " fill-rule="nonzero" fill="#ffffff" stroke="none" />
  <path d="M 30 309.5  C 33.08 309.5  35.5 311.92  35.5 315  C 35.5 318.08  33.08 320.5  30 320.5  C 26.92 320.5  24.5 318.08  24.5 315  C 24.5 311.92  26.92 309.5  30 309.5  Z " stroke-width="1" stroke="#797979" fill="none" />
  <path d="M 30 318  C 28.32 318  27 316.68  27 315  C 27 313.32  28.32 312  30 312  C 31.68 312  33 313.32  33 315  C 33 316.68  31.68 318  30 318  " fill-rule="nonzero" fill="#797979" stroke="none" />
</svg>