<?xml version="1.0" encoding="utf-8"?>
<svg version="1.1" xmlns:xlink="http://www.w3.org/1999/xlink" width="12px" height="12px" viewBox="24 250  12 12" xmlns="http://www.w3.org/2000/svg">
  <path d="M 30 250  C 33.36 250  36 252.64  36 256  C 36 259.36  33.36 262  30 262  C 26.64 262  24 259.36  24 256  C 24 252.64  26.64 250  30 250  Z " fill-rule="nonzero" fill="#f0f0f0" stroke="none" />
  <path d="M 30 250.5  C 33.08 250.5  35.5 252.92  35.5 256  C 35.5 259.08  33.08 261.5  30 261.5  C 26.92 261.5  24.5 259.08  24.5 256  C 24.5 252.92  26.92 250.5  30 250.5  Z " stroke-width="1" stroke="#797979" fill="none" />
  <path d="M 30 259  C 28.32 259  27 257.68  27 256  C 27 254.32  28.32 253  30 253  C 31.68 253  33 254.32  33 256  C 33 257.68  31.68 259  30 259  " fill-rule="nonzero" fill="#797979" stroke="none" />
</svg>