<?xml version="1.0" encoding="utf-8"?>
<svg version="1.1" xmlns:xlink="http://www.w3.org/1999/xlink" width="12px" height="12px" viewBox="24 66  12 12" xmlns="http://www.w3.org/2000/svg">
  <path d="M 30 66  C 33.36 66  36 68.64  36 72  C 36 75.36  33.36 78  30 78  C 26.64 78  24 75.36  24 72  C 24 68.64  26.64 66  30 66  Z " fill-rule="nonzero" fill="#f0f0f0" stroke="none" />
  <path d="M 30 66.5  C 33.08 66.5  35.5 68.92  35.5 72  C 35.5 75.08  33.08 77.5  30 77.5  C 26.92 77.5  24.5 75.08  24.5 72  C 24.5 68.92  26.92 66.5  30 66.5  Z " stroke-width="1" stroke="#797979" fill="none" />
  <path d="M 30 75  C 28.32 75  27 73.68  27 72  C 27 70.32  28.32 69  30 69  C 31.68 69  33 70.32  33 72  C 33 73.68  31.68 75  30 75  " fill-rule="nonzero" fill="#797979" stroke="none" />
</svg>