<?xml version="1.0" encoding="utf-8"?>
<svg version="1.1" xmlns:xlink="http://www.w3.org/1999/xlink" width="12px" height="12px" viewBox="24 339  12 12" xmlns="http://www.w3.org/2000/svg">
  <path d="M 30 339  C 33.36 339  36 341.64  36 345  C 36 348.36  33.36 351  30 351  C 26.64 351  24 348.36  24 345  C 24 341.64  26.64 339  30 339  Z " fill-rule="nonzero" fill="#ffffff" stroke="none" />
  <path d="M 30 339.5  C 33.08 339.5  35.5 341.92  35.5 345  C 35.5 348.08  33.08 350.5  30 350.5  C 26.92 350.5  24.5 348.08  24.5 345  C 24.5 341.92  26.92 339.5  30 339.5  Z " stroke-width="1" stroke="#797979" fill="none" />
  <path d="M 30 348  C 28.32 348  27 346.68  27 345  C 27 343.32  28.32 342  30 342  C 31.68 342  33 343.32  33 345  C 33 346.68  31.68 348  30 348  " fill-rule="nonzero" fill="#797979" stroke="none" />
</svg>