<svg t="1604998039042" class="icon" viewBox="0 0 1024 1024" version="1.1" xmlns="http://www.w3.org/2000/svg" p-id="1761" width="200" height="200"><path d="M512 0a512 512 0 1 0 512 512A512 512 0 0 0 512 0z m219.675146 665.144959a47.073245 47.073245 0 1 1-66.373277 66.373276L512 578.373276 358.776586 731.518235a47.073245 47.073245 0 1 1-66.373276-66.373276L445.626724 512 292.40331 358.776586a47.073245 47.073245 0 0 1 66.373276-66.373276L512 445.626724l153.144959-153.223414a47.073245 47.073245 0 1 1 66.373276 66.373276L578.373276 512z m0 0" fill="#08A2BA" p-id="1762"></path></svg>