<?xml version="1.0" encoding="utf-8"?>
<svg version="1.1" xmlns:xlink="http://www.w3.org/1999/xlink" width="29px" height="29px" xmlns="http://www.w3.org/2000/svg">
  <g transform="matrix(1 0 0 1 -17 -29 )">
    <path d="M 29 14.5  C 29 6.49162264257813  22.5083773574219 0  14.5 0  C 6.49162264257812 0  0 6.49162264257812  0 14.5  C 0 22.5083773574219  6.49162264257812 29  14.5 29  C 22.5083773574219 29  29 22.5083773574219  29 14.5  Z M 27.9056603896484 14.5  C 27.9056603896484 21.9037547148438  21.9037547148438 27.9056603896484  14.5 27.9056603896484  C 7.09624528515625 27.9056603896484  1.09433961035156 21.9037547148438  1.09433961035156 14.5  C 1.09433961035156 7.09624528515625  7.09624528515625 1.09433961035156  14.5 1.09433961035156  C 21.9037547148438 1.09433961035156  27.9056603896484 7.09624528515625  27.9056603896484 14.5  Z M 17.4038302089844 20.4663396386719  L 11.577018859375 14.6400754658203  L 17.1614339638672 9.05566038964844  C 17.2681320722656 8.94896228125  17.2681320722656 8.77550945800781  17.1614339638672 8.66881132128906  L 16.7745848955078 8.28196225292969  C 16.6678867871094 8.17526414453125  16.4944339638672 8.17526414453125  16.3877358271484 8.28196225292969  L 10.1970566064453 14.4726415019531  C 10.0903584980469 14.5793396103516  10.0903584980469 14.7527924335938  10.1970566064453 14.8594905703125  L 10.5839056748047 15.2463396386719  C 10.6216603896484 15.2840943535156  10.6687169960937 15.3037924619141  10.7174151044922 15.3147358554687  L 16.6366981367187 21.2334717109375  C 16.7423019199219 21.3396226425781  16.9141132412109 21.3396226425781  17.0202641728516 21.2334717109375  L 17.4038302089844 20.8499056748047  C 17.5094339921875 20.7443018916016  17.5094339921875 20.5724905703125  17.4038302089844 20.4663396386719  Z " fill-rule="nonzero" fill="#84a8b7" stroke="none" transform="matrix(1 0 0 1 17 29 )" />
  </g>
</svg>