<?xml version="1.0" encoding="utf-8"?>
<svg version="1.1" xmlns:xlink="http://www.w3.org/1999/xlink" width="30px" height="30px" xmlns="http://www.w3.org/2000/svg">
  <g transform="matrix(1 0 0 1 -203 -28 )">
    <path d="M 30 15  C 30 6.71547169921875  23.2845283007812 0  15 0  C 6.71547169921875 0  0 6.71547169921875  0 15  C 0 23.2845283007812  6.71547169921875 30  15 30  C 23.2845283007812 30  30 23.2845283007812  30 15  Z M 28.8679245410156 15  C 28.8679245410156 22.6590566015625  22.6590566015625 28.8679245410156  15 28.8679245410156  C 7.3409433984375 28.8679245410156  1.13207545898437 22.6590566015625  1.13207545898437 15  C 1.13207545898437 7.3409433984375  7.3409433984375 1.13207545898437  15 1.13207545898437  C 22.6590566015625 1.13207545898437  28.8679245410156 7.3409433984375  28.8679245410156 15  Z M 18.0039622851563 21.1720754882812  L 11.97622640625 15.1449056542969  L 17.7532075488281 9.36792454101563  C 17.8635849023437 9.2575471875  17.8635849023437 9.07811323242188  17.7532075488281 8.96773584960937  L 17.3530188574219 8.56754715820312  C 17.2426415039062 8.4571698046875  17.0632075488281 8.4571698046875  16.9528301660156 8.56754715820312  L 10.5486792480469 14.9716981054688  C 10.4383018945313 15.0820754589844  10.4383018945313 15.2615094140625  10.5486792480469 15.371886796875  L 10.9488679394531 15.7720754882812  C 10.9879245410156 15.8111320898437  11.0366037890625 15.8315094433594  11.0869811425781 15.8428301953125  L 17.2103773828125 21.965660390625  C 17.3196226757813 22.0754716992187  17.4973585253906 22.0754716992187  17.6071698339844 21.965660390625  L 18.0039622851563 21.5688679394531  C 18.113207578125 21.4596226464844  18.113207578125 21.281886796875  18.0039622851563 21.1720754882812  Z " fill-rule="nonzero" fill="#84a8b7" stroke="none" transform="matrix(1 0 0 1 203 28 )" />
  </g>
</svg>