<?xml version="1.0" encoding="utf-8"?>
<svg version="1.1" xmlns:xlink="http://www.w3.org/1999/xlink" width="25px" height="24px" xmlns="http://www.w3.org/2000/svg">
  <g transform="matrix(1 0 0 1 -1273 -24 )">
    <path d="M 24.1785714285714 21.6643902439024  L 14.3616071428571 12.010243902439  L 24.1785714285714 2.35609756097561  C 24.6741071428571 1.86878048780488  24.6741071428571 1.06536585365854  24.1785714285714 0.578048780487805  L 24.125 0.525365853658536  C 23.6294642857143 0.0380487804878046  22.8125 0.0380487804878046  22.3169642857143 0.525365853658536  L 12.5 10.1926829268293  L 2.68303571428571 0.525365853658537  C 2.1875 0.0380487804878046  1.37053571428571 0.0380487804878046  0.875 0.525365853658537  L 0.821428571428571 0.578048780487805  C 0.3125 1.06536585365854  0.3125 1.86878048780488  0.821428571428571 2.35609756097561  L 10.6383928571429 12.010243902439  L 0.821428571428571 21.6643902439024  C 0.325892857142857 22.1517073170732  0.325892857142857 22.9551219512195  0.821428571428571 23.4424390243902  L 0.875 23.4951219512195  C 1.37053571428571 23.9824390243902  2.1875 23.9824390243902  2.68303571428571 23.4951219512195  L 12.5 13.8409756097561  L 22.3169642857143 23.4951219512195  C 22.8125 23.9824390243902  23.6294642857143 23.9824390243902  24.125 23.4951219512195  L 24.1785714285714 23.4424390243902  C 24.6741071428571 22.9551219512195  24.6741071428571 22.1517073170732  24.1785714285714 21.6643902439024  Z " fill-rule="nonzero" fill="#7f7f7f" stroke="none" transform="matrix(1 0 0 1 1273 24 )" />
  </g>
</svg>