<?xml version="1.0" encoding="utf-8"?>
<svg version="1.1" xmlns:xlink="http://www.w3.org/1999/xlink" width="51px" height="21px" xmlns="http://www.w3.org/2000/svg">
  <g transform="matrix(1 0 0 1 -1151 -249 )">
    <path d="M 1152 253  A 3 3 0 0 1 1155 250 L 1198 250  A 3 3 0 0 1 1201 253 L 1201 266  A 3 3 0 0 1 1198 269 L 1155 269  A 3 3 0 0 1 1152 266 L 1152 253  Z " fill-rule="nonzero" fill="#ffffff" stroke="none" />
    <path d="M 1151.5 253  A 3.5 3.5 0 0 1 1155 249.5 L 1198 249.5  A 3.5 3.5 0 0 1 1201.5 253 L 1201.5 266  A 3.5 3.5 0 0 1 1198 269.5 L 1155 269.5  A 3.5 3.5 0 0 1 1151.5 266 L 1151.5 253  Z " stroke-width="1" stroke="#d7d7d7" fill="none" stroke-opacity="0.815686274509804" />
  </g>
</svg>