<?xml version="1.0" encoding="utf-8"?>
<svg version="1.1" xmlns:xlink="http://www.w3.org/1999/xlink" width="51px" height="21px" xmlns="http://www.w3.org/2000/svg">
  <g transform="matrix(1 0 0 1 -1151 -135 )">
    <path d="M 1152 139  A 3 3 0 0 1 1155 136 L 1198 136  A 3 3 0 0 1 1201 139 L 1201 152  A 3 3 0 0 1 1198 155 L 1155 155  A 3 3 0 0 1 1152 152 L 1152 139  Z " fill-rule="nonzero" fill="#ffffff" stroke="none" />
    <path d="M 1151.5 139  A 3.5 3.5 0 0 1 1155 135.5 L 1198 135.5  A 3.5 3.5 0 0 1 1201.5 139 L 1201.5 152  A 3.5 3.5 0 0 1 1198 155.5 L 1155 155.5  A 3.5 3.5 0 0 1 1151.5 152 L 1151.5 139  Z " stroke-width="1" stroke="#02a7f0" fill="none" stroke-opacity="0.815686274509804" />
  </g>
</svg>