<?xml version="1.0" encoding="utf-8"?>
<svg version="1.1" xmlns:xlink="http://www.w3.org/1999/xlink" width="28px" height="28px" xmlns="http://www.w3.org/2000/svg">
  <g transform="matrix(1 0 0 1 -965 -11 )">
    <path d="M 16.7695438596491 7.10433138401559  C 17.0570214424951 6.82692397660819  17.515037037037 6.83268226120858  17.7928810916179 7.11961403508772  C 18.0707524366472 7.40471734892787  18.0650487329435 7.86191423001949  17.7775984405458 8.13934892787524  L 11.7392592592593 14.0068226120858  L 17.7775438596491 19.874350877193  C 18.0649941520468 20.1537231968811  18.0706978557505 20.6109746588694  17.7928538011696 20.8960233918129  C 17.5149824561404 21.181044834308  17.0569941520468 21.1887134502924  16.7695165692008 20.9113606237817  L 10.198604288499 14.5253684210526  L 10.1832943469786 14.5119961013645  C 9.90536842105263 14.225037037037  9.91112670565302 13.7677855750487  10.1985769980507 13.4904054580897  L 16.7695711500975 7.10433138401559  Z M 10.5588927875244 27.5479883040936  C 9.4405667962987 27.2665470629237  8.36165548731952 26.8468909919649  7.34707992202729 26.2987134502924  C 6.99454191033138 26.1112553606238  6.86229239766082 25.6712514619883  7.05198830409357 25.3211150097466  C 7.24176608187135 24.9690682261209  7.68054191033138 24.8371189083821  8.03127875243665 25.0265419103314  C 8.93189083820663 25.5124483430799  9.89576218323587 25.8912397660819  10.9095477582846 26.1456140350877  C 11.8925497076023 26.3924834307992  12.9235555555556 26.5244600389864  13.9870916179337 26.5244600389864  C 17.4499220272904 26.5244600389864  20.5848849902534 25.1241325536062  22.8538674463938 22.8589707602339  C 25.1227953216374 20.5938635477583  26.5254970760234 17.4638947368421  26.5254970760234 14.0088421052632  C 26.5254970760234 10.5518245614035  25.1227680311891 7.42191033138401  22.8538401559454 5.15677582846004  C 20.5849122807018 2.89164132553606  17.4499220272904 1.49123196881092  13.9871189083821 1.49123196881092  C 10.5262807017544 1.49123196881092  7.39120857699805 2.89164132553606  5.12228070175439 5.15677582846004  C 2.85335282651072 7.42188304093567  1.45062378167641 10.5517972709552  1.45062378167641 14.0088421052632  C 1.45062378167641 15.527828460039  1.7207992202729 16.9837192982456  2.21715789473684 18.3267368421053  C 2.73261988304094 19.7290838206628  3.48957504873294 21.0089239766082  4.43431578947368 22.1185808966862  C 4.69302923976608 22.4208226120858  4.65662378167641 22.8761637426901  4.35192592592592 23.134440545809  C 4.04911111111111 23.3908070175439  3.5930604288499 23.3544288499025  3.33625730994152 23.0522144249513  C 2.27465886939571 21.8067056530214  1.42952826510721 20.3795516569201  0.856565302144249 18.8241871345029  C 0.302760233918129 17.3223391812866  0 15.6980662768031  0 14.0088421052632  C 0 10.1519376218324  1.56565302144249 6.66047953216374  4.09703313840156 4.13324756335283  C 6.62849512670565 1.60604288499025  10.1257660818713 0.0429551656920086  13.9870916179337 0.0429551656920086  C 17.8503274853801 0.0429551656920086  21.3475984405458 1.60601559454191  23.8790604288499 4.13324756335283  C 26.410522417154 6.66047953216374  27.9761208576998 10.1519376218324  27.9761208576998 14.0088421052632  C 27.9761208576998 17.8637816764133  26.410522417154 21.3552124756335  23.8790877192982 23.8825263157895  C 21.3476257309942 26.4097037037037  17.8503274853801 27.9727095516569  13.9871189083821 27.9727095516569  C 12.8085808966862 27.9727095516569  11.6588343079922 27.8254230019493  10.5588927875244 27.5479883040936  Z " fill-rule="nonzero" fill="#d9d9d9" stroke="none" transform="matrix(1 0 0 1 965 11 )" />
  </g>
</svg>