<?xml version="1.0" encoding="utf-8"?>
<svg version="1.1" xmlns:xlink="http://www.w3.org/1999/xlink" width="12px" height="12px" xmlns="http://www.w3.org/2000/svg">
  <g transform="matrix(1 0 0 1 -1353 -25 )">
    <path d="M 11.2358639101562 11.8121249873047  C 11.4259212949219 11.6178802949219  11.4259212949219 11.3015447949219  11.2358652050781 11.1073131025391  L 8.4788395 8.29075779492188  C 8.43329010253906 8.244223  8.38094689746094 8.20895269238281  8.325095 8.18472329492187  C 8.917401 7.3899735  9.26911210253906 6.39783689746094  9.26911210253906 5.32159419238281  C 9.26911210253906 2.70904008984375  7.19676260253906 0.591722294921874  4.6402775 0.591722294921874  C 2.08380670507813 0.591722294921875  0.011535205078125 2.70905310253906  0.011535205078125 5.3215955  C 0.011535205078125 7.93420160253906  2.08380670507813 10.0514803974609  4.64029180761719 10.0514803974609  C 5.81361330761719 10.0514803974609  6.88492380761719 9.60544129492187  7.70073880761719 8.87025619238281  C 7.72331851269531 8.91542598730469  7.75299101269531 8.95781639746094  7.78995260253906 8.99558269238281  L 10.5463023076172 11.8121249873047  C 10.7363584101562 12.0063696923828  11.0451331025391 12.0063696923828  11.2358639101562 11.8121249873047  Z M 8.53853679492187 5.3215955  C 8.53853679492187 7.52143210253906  6.79303329492187 9.30503210253906  4.64029179492188 9.30503210253906  C 2.48761529492187 9.30503210253906  0.742046794921875 7.52143210253906  0.742046794921875 5.3215955  C 0.742046794921875 3.12108289746094  2.48760229492188 1.33823560253906  4.64029179492188 1.33823560253906  C 6.79304629492188 1.33823560253906  8.53853679492187 3.12108160253906  8.53853679492187 5.3215955  Z " fill-rule="nonzero" fill="#d7d7d7" stroke="none" transform="matrix(1 0 0 1 1353 25 )" />
  </g>
</svg>