<?xml version="1.0" encoding="utf-8"?>
<svg version="1.1" xmlns:xlink="http://www.w3.org/1999/xlink" width="7px" height="8px" xmlns="http://www.w3.org/2000/svg">
  <g transform="matrix(1 0 0 1 -632 -847 )">
    <path d="M 6.25 7.3  C 6.25 7.25  6.15 7.15  6.05 7.15  L 0.2 7.15  C 0.0999999999999999 7.15  0 7.25  0 7.35  C 0 7.4  0 7.45  0.05 7.5  C 0.1 7.55  0.15 7.5  0.2 7.5  L 6.05 7.5  C 6.15 7.5  6.25 7.4  6.25 7.3  Z M 0.1 6.15  C 0.05 6.35  0.15 6.5  0.35 6.45  L 1.6 6.1  C 1.7 6.05  1.85 6  1.9 5.9  L 5.85 1.95  C 6 1.8  6 1.6  5.85 1.45  L 5.05 0.65  C 4.9 0.5  4.65 0.5  4.55 0.65  L 0.6 4.55  C 0.55 4.65  0.45 4.8  0.45 4.85  L 0.1 6.15  Z M 4.3 1.4  L 4.55 1.15  L 5.35 1.95  L 5.1 2.2  L 4.3 1.4  Z M 1.05 4.65  L 1.35 4.4  L 2.15 5.2  L 1.9 5.45  L 1.05 4.65  Z " fill-rule="nonzero" fill="#cdcdcd" stroke="none" transform="matrix(1 0 0 1 632 847 )" />
  </g>
</svg>