<?xml version="1.0" encoding="utf-8"?>
<svg version="1.1" xmlns:xlink="http://www.w3.org/1999/xlink" width="30px" height="30px" xmlns="http://www.w3.org/2000/svg">
  <g transform="matrix(1 0 0 1 -656 -836 )">
    <path d="M 15.0000002171312 29.5714285761719  C 23.0475780029996 29.5714285761719  29.5714287933031 23.0475777858684  29.5714287933031 15  C 29.5714287933031 6.95242221413164  23.0475780029996 0.428571423828125  15.0000002171312 0.428571423828125  C 6.95242221413164 0.428571423828128  0.428571423828125 6.95242221413164  0.428571423828125 15  C 0.428571423828125 23.0475777858684  6.95242221413164 29.5714285761719  15 29.5714285761719  Z M 14.9999997441084 27.1428571523437  C 8.29368491949519 27.1428571523437  2.85714259176467 21.7063148246132  2.85714259176467 15  C 2.85714259176467 8.29368517538677  8.29368491949519 2.85714284765625  14.9999997441084 2.85714284765625  C 21.7063148246132 2.85714284765625  27.1428571523438 8.29368517538677  27.1428571523438 15  C 27.1428571523438 21.7063148246132  21.7063148246132 27.1428571523438  15 27.1428571523438  Z " fill-rule="nonzero" fill="#dcdfe6" stroke="none" transform="matrix(1 0 0 1 656 836 )" />
  </g>
</svg>