<?xml version="1.0" encoding="utf-8"?>
<svg version="1.1" xmlns:xlink="http://www.w3.org/1999/xlink" width="16px" height="4px" xmlns="http://www.w3.org/2000/svg">
  <g transform="matrix(1 0 0 1 -663 -849 )">
    <path d="M 1.92857142382812 0.785714271484375  L 14.0714285761719 0.785714271484375  C 14.7420600147899 0.785714271484375  15.2857142535092 1.32936851020365  15.2857142535092 2  C 15.2857142535092 2.67063148979635  14.7420600147899 3.21428572851562  14.0714285249936 3.21428572851562  L 1.92857142382812 3.21428572851562  C 1.25793998521008 3.21428572851562  0.714285746490813 2.67063148979635  0.714285746490813 2  C 0.714285746490813 1.32936851020365  1.25793998521008 0.785714271484375  1.92857147500644 0.785714271484375  Z M 14.0714285761719 3.21428572851562  L 1.92857142382812 3.21428572851562  C 2.59920286244616 3.21428572851562  3.14285710116543 2.67063148979635  3.14285710116543 2  C 3.14285710116543 1.32936851020365  2.59920286244616 0.785714271484375  1.92857137264981 0.785714271484375  L 14.0714285761719 0.785714271484375  C 13.4007971375538 0.785714271484375  12.8571428988346 1.32936851020365  12.8571428988346 2  C 12.8571428988346 2.67063148979635  13.4007971375538 3.21428572851562  14.0714286273502 3.21428572851562  Z " fill-rule="nonzero" fill="#dcdfe6" stroke="none" transform="matrix(1 0 0 1 663 849 )" />
  </g>
</svg>