<?xml version="1.0" encoding="utf-8"?>
<svg version="1.1" xmlns:xlink="http://www.w3.org/1999/xlink" width="4px" height="16px" xmlns="http://www.w3.org/2000/svg">
  <g transform="matrix(1 0 0 1 -669 -843 )">
    <path d="M 3.21428572851562 1.92857142382812  L 3.21428572851562 14.0714285761719  C 3.21428572851562 14.7420600147899  2.67063148979635 15.2857142535092  2 15.2857142535092  C 1.32936853019002 15.2857142535092  0.785714299749378 14.7420600459819  0.785714271484375 14.0714285761719  L 0.785714271484375 1.92857142382812  C 0.785714299749378 1.25793995401814  1.32936853019002 0.714285746490813  2 0.714285746490813  C 2.67063148979635 0.714285746490813  3.21428572851562 1.25793998521008  3.21428572851562 1.92857147500644  Z M 0.785714271484375 14.0714285761719  L 0.785714271484375 1.92857142382812  C 0.785714299749378 2.5992028936381  1.32936853019002 3.14285710116543  2 3.14285710116543  C 2.67063148979635 3.14285710116543  3.21428572851562 2.59920286244616  3.21428572851562 1.92857137264981  L 3.21428572851562 14.0714285761719  C 3.21428572851562 13.4007971375538  2.67063148979635 12.8571428988346  2 12.8571428988346  C 1.32936853019002 12.8571428988346  0.785714299749378 13.4007971063619  0.785714271484375 14.0714285761719  Z " fill-rule="nonzero" fill="#dcdfe6" stroke="none" transform="matrix(1 0 0 1 669 843 )" />
  </g>
</svg>