<?xml version="1.0" encoding="utf-8"?>
<svg version="1.1" xmlns:xlink="http://www.w3.org/1999/xlink" width="177px" height="124px" xmlns="http://www.w3.org/2000/svg">
  <g transform="matrix(1 0 0 1 -164 -272 )">
    <path d="M 164.5 277  A 4.5 4.5 0 0 1 169 272.5 L 336 272.5  A 4.5 4.5 0 0 1 340.5 277 L 340.5 391  A 4.5 4.5 0 0 1 336 395.5 L 169 395.5  A 4.5 4.5 0 0 1 164.5 391 L 164.5 277  Z " fill-rule="nonzero" fill="#ffffff" stroke="none" />
    <path d="M 164.5 277  A 4.5 4.5 0 0 1 169 272.5 L 336 272.5  A 4.5 4.5 0 0 1 340.5 277 L 340.5 391  A 4.5 4.5 0 0 1 336 395.5 L 169 395.5  A 4.5 4.5 0 0 1 164.5 391 L 164.5 277  Z " stroke-width="1" stroke="#d7d7d7" fill="none" />
  </g>
</svg>