<?xml version="1.0" encoding="utf-8"?>
<svg version="1.1" xmlns:xlink="http://www.w3.org/1999/xlink" width="14px" height="17px" xmlns="http://www.w3.org/2000/svg">
  <g transform="matrix(1 0 0 1 -459 -13 )">
    <path d="M 8.08676894921875 8.49271448733845  L 8.08676894921875 8.49392874221564  L 13.78660609375 1.57391221081272  C 14.0708646890925 1.21901054641741  14.0708646890925 0.653850304945491  13.78660609375 0.298948640550181  L 13.7536070410156 0.25887836241559  C 13.4613350807472 -0.0862927874718633  12.9959089973778 -0.0862927874718633  12.7036370371094 0.25887836241559  L 7.00379989257812 7.19225166426442  L 1.30396274804687 0.25887836241559  C 1.01169078777844 -0.0862927874718619  0.546264704409063 -0.086292787471862  0.253992744140624 0.25887836241559  L 0.22199365234375 0.29894864055018  C 0.0803936673645585 0.466480257894276  0.000531016415511813 0.69636547116705  0.000531016415511813 0.936430425681448  C 0.000531016415511813 1.17649538019585  0.0803936673645583 1.40638059346862  0.22199365234375 1.57391221081272  L 5.92183081054688 8.49392874221564  L 0.22199365234375 15.4260877891873  C -0.0622649429987239 15.7809894535826  -0.0622649429987239 16.3461496950545  0.22199365234375 16.7010513594498  L 0.253992744140625 16.7411216375844  C 0.546264704409064 17.0862927874719  1.01169078777844 17.0862927874719  1.30396274804687 16.7411216375844  L 7.00379989257813 9.82110510618148  L 12.7036370371094 16.7411216375844  C 12.9959089973778 17.0862927874719  13.4613350807472 17.0862927874719  13.7536070410156 16.7411216375844  L 13.78660609375 16.7010513594498  C 14.0708646890925 16.3461496950545  14.0708646890925 15.7809894535826  13.78660609375 15.4260877891873  L 8.08676894921875 8.49271448733845  Z " fill-rule="nonzero" fill="#ffffff" stroke="none" transform="matrix(1 0 0 1 459 13 )" />
  </g>
</svg>