<?xml version="1.0" encoding="utf-8"?>
<svg version="1.1" xmlns:xlink="http://www.w3.org/1999/xlink" width="139px" height="31px" xmlns="http://www.w3.org/2000/svg">
  <defs>
    <mask fill="white" id="clip78">
      <path d="M 0 26  L 0 5  C 0 2.2  2.33435114503816 0  5.30534351145038 0  L 62.4661413444964 0  L 133.69465648855 0  C 136.665648854962 0  139 2.2  139 5  L 139 26  C 139 28.8  136.665648854962 31  133.69465648855 31  L 5.30534351145038 31  C 2.33435114503816 31  0 28.8  0 26  Z " fill-rule="evenodd" />
    </mask>
  </defs>
  <g transform="matrix(1 0 0 1 -225 -86 )">
    <path d="M 0 26  L 0 5  C 0 2.2  2.33435114503816 0  5.30534351145038 0  L 62.4661413444964 0  L 133.69465648855 0  C 136.665648854962 0  139 2.2  139 5  L 139 26  C 139 28.8  136.665648854962 31  133.69465648855 31  L 5.30534351145038 31  C 2.33435114503816 31  0 28.8  0 26  Z " fill-rule="nonzero" fill="#ffffff" stroke="none" fill-opacity="0" transform="matrix(1 0 0 1 225 86 )" />
    <path d="M 0 26  L 0 5  C 0 2.2  2.33435114503816 0  5.30534351145038 0  L 62.4661413444964 0  L 133.69465648855 0  C 136.665648854962 0  139 2.2  139 5  L 139 26  C 139 28.8  136.665648854962 31  133.69465648855 31  L 5.30534351145038 31  C 2.33435114503816 31  0 28.8  0 26  Z " stroke-width="2" stroke="#409eff" fill="none" transform="matrix(1 0 0 1 225 86 )" mask="url(#clip78)" />
  </g>
</svg>