<svg t="1605944256657" class="icon" viewBox="0 0 1024 1024" version="1.1" xmlns="http://www.w3.org/2000/svg" p-id="3477" width="200" height="200"><path d="M512.021946 1024a511.960506 511.960506 0 1 1 255.980253-68.602708A512.91129 512.91129 0 0 1 512.021946 1024zM417.528664 710.021935a125.28405 125.28405 0 0 0 90.543872 57.924675 110.729744 110.729744 0 0 0 86.960149-57.924675z m25.305476-417.759772a91.12897 91.12897 0 0 0-90.543872 86.960148v123.163071a72.47898 72.47898 0 0 1-10.897445 39.859782l-39.859782 47.027229a67.066826 67.066826 0 0 0-7.313722 68.82212 64.507024 64.507024 0 0 0 57.924675 36.568607h326.118842a62.166633 62.166633 0 0 0 57.924674-39.859782 66.993689 66.993689 0 0 0-7.313721-68.822119l-43.443506-43.443506a73.79545 73.79545 0 0 1-18.138029-43.516643V379.222311a85.277993 85.277993 0 0 0-83.157014-86.960148h-7.313721l-3.656861-3.656861a21.136655 21.136655 0 0 1-3.364312-4.753919 43.07782 43.07782 0 0 0-7.313722-9.654113 57.924674 57.924674 0 0 0-39.932919-18.138029 46.880955 46.880955 0 0 0-39.859782 18.138029 50.391541 50.391541 0 0 0-5.412154 7.313722 49.221346 49.221346 0 0 1-5.485291 7.313722 3.583724 3.583724 0 0 0-3.656861 3.65686z" fill="#409EFF" p-id="3478"></path></svg>