<svg t="1606806684504" class="icon" viewBox="0 0 1024 1024" version="1.1" xmlns="http://www.w3.org/2000/svg" p-id="1767" width="200" height="200"><path d="M511.514632 0.968923C229.009587 0.968923 0.000092 229.97941701 0.000092 512.48446201c0 282.505044 229.01049399 511.51553802 511.51454 511.51553799 282.505044 0 511.51553802-229.01049399 511.51553801-511.51553799C1023.03016999 229.97941701 794.018677 0.968923 511.514632 0.968923z m0 953.279594c-243.949892 0-441.762057-197.791189-441.76205801-441.76405499C69.751575 268.510597 267.563741 70.721405 511.514632 70.721405c243.99484201 0 441.763056 197.789191 441.763056 441.76305698 0 243.97286601-197.768215 441.764055-441.763056 441.76405502z" p-id="1768" fill="#bfbfbf"></path><path d="M637.259887 281.089617c-29.268473-26.281792-68.45892-39.42818201-117.57034-39.428182-54.562363 0-97.954141 15.621639-130.195311 46.875905-32.242168 30.75582-48.363253 73.907864-48.363252 129.45713099h84.827728c0-31.742723 6.199111-56.048711 18.59633401-72.91896299 13.87358201-20.332404 37.191668-30.505099 69.93428-30.505099 25.793335 0 45.638281 6.95926601 59.53383799 20.83184899 13.87358201 14.88346 20.820861 34.22895999 20.820861 58.03550402 0 18.857044-6.697557 36.454487-20.094668 52.82529299l-8.922085 10.422418c-48.61397399 43.152044-77.63172601 74.656033-87.055253 94.48998999-9.921973 19.345501-14.872472 43.652488-14.872471 72.90897401v10.421419h85.55492v-10.421419c0-17.359708 3.72486-33.480792 11.171585-48.36425099 6.926303-14.373027 16.848276-26.781237 29.745942-37.19066901 34.71741801-30.256375 56.06069801-49.851599 63.983893-58.786669 18.346611-24.295 27.541392-54.800099 27.541393-91.51529601 0-45.628292-14.869475-81.343601-44.637394-107.13793499zM506.31540999 670.959344c-15.894336 0-29.518196 5.211209-40.93950299 15.621639-10.898888 10.422417-16.370807 23.806543-16.370807 40.178349 0 16.370807 5.471919 29.766919 16.370807 40.17734999 11.921751 10.92186201 25.543613 16.370807 40.93950299 16.370806 16.369808 0 29.993667-5.21020999 40.91453001-15.62063999 11.399332-10.422417 17.121972-24.057264 17.121972-40.927516 0-15.86037399-5.473917-29.25648599-16.372804-40.178349-10.920863-10.410431-24.81542201-15.621639-41.66369801-15.621639z" p-id="1769" fill="#bfbfbf"></path></svg>