<?xml version="1.0" encoding="utf-8"?>
<svg version="1.1" xmlns:xlink="http://www.w3.org/1999/xlink" width="138px" height="28px" xmlns="http://www.w3.org/2000/svg">
  <defs>
    <mask fill="white" id="clip49">
      <path d="M 0 24  L 0 4  C 0 1.76  1.86830769230768 0  4.24615384615385 0  L 133.753846153846 0  C 136.131692307692 0  138 1.76  138 4  L 138 24  C 138 26.24  136.131692307692 28  133.753846153846 28  L 93.8282051282052 28  L 4.24615384615385 28  C 1.86830769230768 28  0 26.24  0 24  Z " fill-rule="evenodd" />
    </mask>
  </defs>
  <g transform="matrix(1 0 0 1 -1452 -30 )">
    <path d="M 0 24  L 0 4  C 0 1.76  1.86830769230768 0  4.24615384615385 0  L 133.753846153846 0  C 136.131692307692 0  138 1.76  138 4  L 138 24  C 138 26.24  136.131692307692 28  133.753846153846 28  L 93.8282051282052 28  L 4.24615384615385 28  C 1.86830769230768 28  0 26.24  0 24  Z " fill-rule="nonzero" fill="#ffffff" stroke="none" transform="matrix(1 0 0 1 1452 30 )" />
    <path d="M 0 24  L 0 4  C 0 1.76  1.86830769230768 0  4.24615384615385 0  L 133.753846153846 0  C 136.131692307692 0  138 1.76  138 4  L 138 24  C 138 26.24  136.131692307692 28  133.753846153846 28  L 93.8282051282052 28  L 4.24615384615385 28  C 1.86830769230768 28  0 26.24  0 24  Z " stroke-width="2" stroke="#c0c4cc" fill="none" transform="matrix(1 0 0 1 1452 30 )" mask="url(#clip49)" />
  </g>
</svg>