<?xml version="1.0" encoding="utf-8"?>
<svg version="1.1" xmlns:xlink="http://www.w3.org/1999/xlink" width="132px" height="28px" xmlns="http://www.w3.org/2000/svg">
  <defs>
    <mask fill="white" id="clip53">
      <path d="M 0 24  L 0 4  C 0 1.76  2.21257142857143 0  5.02857142857143 0  L 87.1619047619048 0  L 126.971428571429 0  C 129.787428571429 0  132 1.76  132 4  L 132 24  C 132 26.24  129.787428571429 28  126.971428571429 28  L 5.02857142857143 28  C 2.21257142857143 28  0 26.24  0 24  Z " fill-rule="evenodd" />
    </mask>
  </defs>
  <g transform="matrix(1 0 0 1 -758 -30 )">
    <path d="M 0 24  L 0 4  C 0 1.76  2.21257142857143 0  5.02857142857143 0  L 87.1619047619048 0  L 126.971428571429 0  C 129.787428571429 0  132 1.76  132 4  L 132 24  C 132 26.24  129.787428571429 28  126.971428571429 28  L 5.02857142857143 28  C 2.21257142857143 28  0 26.24  0 24  Z " fill-rule="nonzero" fill="#ffffff" stroke="none" transform="matrix(1 0 0 1 758 30 )" />
    <path d="M 0 24  L 0 4  C 0 1.76  2.21257142857143 0  5.02857142857143 0  L 87.1619047619048 0  L 126.971428571429 0  C 129.787428571429 0  132 1.76  132 4  L 132 24  C 132 26.24  129.787428571429 28  126.971428571429 28  L 5.02857142857143 28  C 2.21257142857143 28  0 26.24  0 24  Z " stroke-width="2" stroke="#c0c4cc" fill="none" transform="matrix(1 0 0 1 758 30 )" mask="url(#clip53)" />
  </g>
</svg>