<?xml version="1.0" encoding="utf-8"?>
<svg version="1.1" xmlns:xlink="http://www.w3.org/1999/xlink" width="27px" height="28px" xmlns="http://www.w3.org/2000/svg">
  <g transform="matrix(1 0 0 1 -1131 -787 )">
    <path d="M 16.1706315789474 7.10433138401559  C 16.4478421052632 6.82692397660819  16.8895 6.83268226120858  17.1574210526316 7.11961403508772  C 17.4253684210526 7.40471734892787  17.4198684210526 7.86191423001949  17.1426842105263 8.13934892787524  L 11.32 14.0068226120858  L 17.1426315789474 19.874350877193  C 17.4198157894737 20.1537231968811  17.4253157894737 20.6109746588694  17.1573947368421 20.8960233918129  C 16.8894473684211 21.181044834308  16.4478157894737 21.1887134502924  16.1706052631579 20.9113606237817  L 9.83436842105263 14.5253684210526  L 9.8196052631579 14.5119961013645  C 9.55160526315789 14.225037037037  9.55715789473684 13.7677855750487  9.83434210526316 13.4904054580897  L 16.1706578947368 7.10433138401559  Z M 10.1817894736842 27.5479883040936  C 9.10340369643089 27.2665470629237  8.06302493420096 26.8468909919649  7.08468421052632 26.2987134502924  C 6.74473684210526 26.1112553606238  6.61721052631579 25.6712514619883  6.80013157894737 25.3211150097466  C 6.98313157894737 24.9690682261209  7.40623684210526 24.8371189083821  7.74444736842105 25.0265419103314  C 8.6128947368421 25.5124483430799  9.54234210526316 25.8912397660819  10.5199210526316 26.1456140350877  C 11.4678157894737 26.3924834307992  12.462 26.5244600389864  13.4875526315789 26.5244600389864  C 16.8267105263158 26.5244600389864  19.8497105263158 25.1241325536062  22.0376578947368 22.8589707602339  C 24.2255526315789 20.5938635477583  25.5781578947368 17.4638947368421  25.5781578947368 14.0088421052632  C 25.5781578947368 10.5518245614035  24.2255263157895 7.42191033138401  22.0376315789474 5.15677582846004  C 19.8497368421053 2.89164132553606  16.8267105263158 1.49123196881092  13.4875789473684 1.49123196881092  C 10.1503421052632 1.49123196881092  7.12723684210526 2.89164132553606  4.93934210526316 5.15677582846004  C 2.75144736842105 7.42188304093567  1.39881578947368 10.5517972709552  1.39881578947368 14.0088421052632  C 1.39881578947368 15.527828460039  1.65934210526316 16.9837192982456  2.13797368421053 18.3267368421053  C 2.63502631578947 19.7290838206628  3.36494736842105 21.0089239766082  4.27594736842105 22.1185808966862  C 4.52542105263158 22.4208226120858  4.49031578947368 22.8761637426901  4.1965 23.134440545809  C 3.9045 23.3908070175439  3.46473684210526 23.3544288499025  3.21710526315789 23.0522144249513  C 2.19342105263158 21.8067056530214  1.37847368421053 20.3795516569201  0.825973684210526 18.8241871345029  C 0.291947368421053 17.3223391812866  0 15.6980662768031  0 14.0088421052632  C 0 10.1519376218324  1.50973684210526 6.66047953216374  3.95071052631579 4.13324756335283  C 6.39176315789474 1.60604288499025  9.76413157894737 0.0429551656920086  13.4875526315789 0.0429551656920086  C 17.2128157894737 0.0429551656920086  20.5851842105263 1.60601559454191  23.0262368421053 4.13324756335283  C 25.4672894736842 6.66047953216374  26.9769736842105 10.1519376218324  26.9769736842105 14.0088421052632  C 26.9769736842105 17.8637816764133  25.4672894736842 21.3552124756335  23.0262631578947 23.8825263157895  C 20.5852105263158 26.4097037037037  17.2128157894737 27.9727095516569  13.4875789473684 27.9727095516569  C 12.3511315789474 27.9727095516569  11.2424473684211 27.8254230019493  10.1817894736842 27.5479883040936  Z " fill-rule="nonzero" fill="#d9d9d9" stroke="none" transform="matrix(1 0 0 1 1131 787 )" />
  </g>
</svg>