<?xml version="1.0" encoding="utf-8"?>
<svg version="1.1" xmlns:xlink="http://www.w3.org/1999/xlink" width="9px" height="9px" xmlns="http://www.w3.org/2000/svg">
  <g transform="matrix(1 0 0 1 -540 -117 )">
    <path d="M 8.74751420454546 2.01069779829545  C 8.70316938920454 2.04066051136364  8.60249467329546 2.05024857954545  8.60369318181818 2.02268288352273  L 8.41432883522727 1.99631569602273  C 8.38316761363636 2.28515625  8.26811079545455 2.55601917613636  8.07515092329546 2.75017755681818  L 6.28577769886364 0.960804332386364  C 6.51349431818182 0.734286221590909  6.82630504261364 0.594060724431818  7.17147549715909 0.594060724431818  C 7.58975497159091 0.594060724431818  7.96728515625 0.819380326704546  8.19620028409091 1.13458806818182  L 8.40234375 1.07346413352273  C 8.38077059659091 1.03750887784091  8.49582741477273 0.988370028409091  8.47305575284091 0.954811789772727  C 8.18661221590909 0.544921875  7.70960582386364 0.263272372159091  7.17267400568182 0.263272372159091  C 6.73521839488636 0.263272372159091  6.33971058238636 0.440651633522727  6.05206853693182 0.727095170454546  L 1.12260298295455 5.65536221590909  L 0.685147372159091 6.09161931818182  C 0.609641335227272 6.16712535511363  0.559303977272727 6.26780007102273  0.544921875 6.37446732954545  L 0.289639559659091 8.19500177556818  C 0.26806640625 8.35080788352273  0.319602272727273 8.50421697443182  0.431063565340909 8.61687677556818  C 0.525745738636364 8.71155894886364  0.650390625 8.76189630681818  0.781028053977273 8.76189630681818  C 0.804998224431818 8.76189630681818  0.830166903409091 8.76069779829546  0.854137073863636 8.75710227272727  L 2.66508345170455 8.49223188920455  C 2.77055220170455 8.47665127840909  2.87002840909091 8.42631392045455  2.9443359375 8.35200639204546  L 3.62628728693182 7.67005504261364  L 7.37881747159091 3.91752485795455  L 8.31125710227273 2.98508522727273  L 8.31005859375 2.98388671875  C 8.55934836647727 2.73219992897727  8.71275745738636 2.38583096590909  8.74751420454546 2.01069779829545  Z M 3.14688387784091 7.68204012784091  L 2.70942826704545 8.11829723011364  C 2.68425958806818 8.14346590909091  2.65189985795455 8.16024502840909  2.61594460227273 8.1650390625  L 0.804998224431819 8.42990944602273  C 0.752263849431818 8.43949751420454  0.701926491477273 8.42032137784091  0.66357421875 8.38316761363636  C 0.626420454545454 8.34601384943182  0.608442826704546 8.29447798295455  0.616832386363636 8.24294211647727  L 0.872114701704546 6.42120916193182  C 0.876908735795455 6.38645241477273  0.893687855113637 6.35289417613636  0.91885653409091 6.32772549715909  L 1.35631214488636 5.89146839488636  L 3.14688387784091 7.68204012784091  Z M 7.84144176136364 2.98628373579546  L 7.50226384943182 3.32426313920455  C 7.50226384943182 3.32546164772727  7.50226384943182 3.32546164772727  7.50226384943182 3.32426313920455  L 3.39137961647727 7.43634588068182  L 1.60080788352273 5.64577414772727  L 6.05087002840909 1.19571200284091  L 7.84144176136364 2.98628373579546  Z " fill-rule="nonzero" fill="#aaaaaa" stroke="none" transform="matrix(1 0 0 1 540 117 )" />
  </g>
</svg>