<?xml version="1.0" encoding="utf-8"?>
<svg version="1.1" xmlns:xlink="http://www.w3.org/1999/xlink" width="287px" height="155px" xmlns="http://www.w3.org/2000/svg">
  <g transform="matrix(1 0 0 1 -554 -57 )">
    <path d="M 554 57  L 841 57  L 841 212  L 554 212  L 554 57  " fill-rule="nonzero" fill="#cccccc" stroke="none" />
    <path d="M 565 68  L 830 68  L 830 201  L 565 201  L 565 68  " fill-rule="nonzero" fill="#ffffff" stroke="none" />
    <path d="M 714.865 103.5  C 708.355 103.5  703.24 98.385  703.24 91.875  C 703.24 85.365  708.355 80.25  714.865 80.25  C 721.375 80.25  726.49 85.365  726.49 91.875  C 726.49 98.385  721.375 103.5  714.865 103.5  " fill-rule="nonzero" fill="#cccccc" stroke="none" />
    <path d="M 569 197  L 569 128.25  L 633.25 97  L 723.2 156.494773519164  L 774.6 115.75  L 826 156.494773519164  L 826 197  L 569 197  " fill-rule="nonzero" fill="#169bd5" stroke="none" />
  </g>
</svg>