<?xml version="1.0" encoding="utf-8"?>
<svg version="1.1" xmlns:xlink="http://www.w3.org/1999/xlink" width="22px" height="39px" xmlns="http://www.w3.org/2000/svg">
  <g transform="matrix(1 0 0 1 -258 -76 )">
    <path d="M 4.4236328125 4  L 17.68515625 4  L 19.4828125 1.79765625  L 17.68515625 0  L 4.4236328125 0  L 2.618359375 1.79765625  L 4.4236328125 4  Z M 19.4828125 19.484765625  L 17.68515625 18  L 4.4236328125 18  L 2.618359375 19.484765625  L 4.4236328125 21  L 17.68515625 21  L 19.4828125 19.484765625  Z M 19.894140625 2.208984375  L 18 4.0142578125  L 18 17.27578125  L 19.894140625 19.0734375  L 21.691796875 17.27578125  L 21.691796875 4.0142578125  L 19.894140625 2.208984375  Z M 19.4828125 37.1642578125  L 17.68515625 35  L 4.4236328125 35  L 2.618359375 37.1642578125  L 4.4236328125 39  L 17.68515625 39  L 19.4828125 37.1642578125  Z M 2.2146484375 36.7529296875  L 4 34.9552734375  L 4 21.69375  L 2.2146484375 19.8884765625  L 0.409374999999999 21.69375  L 0.409374999999999 34.9552734375  L 2.2146484375 36.7529296875  Z " fill-rule="nonzero" fill="#ffffff" stroke="none" transform="matrix(1 0 0 1 258 76 )" />
  </g>
</svg>