<?xml version="1.0" encoding="utf-8"?>
<svg version="1.1" xmlns:xlink="http://www.w3.org/1999/xlink" width="17px" height="17px" xmlns="http://www.w3.org/2000/svg">
  <g transform="matrix(1 0 0 1 -327 -331 )">
    <path d="M 335.5 331  C 340.26 331  344 334.74  344 339.5  C 344 344.26  340.26 348  335.5 348  C 330.74 348  327 344.26  327 339.5  C 327 334.74  330.74 331  335.5 331  Z " fill-rule="nonzero" fill="#ffffff" stroke="none" />
    <path d="M 335.5 331.5  C 339.98 331.5  343.5 335.02  343.5 339.5  C 343.5 343.98  339.98 347.5  335.5 347.5  C 331.02 347.5  327.5 343.98  327.5 339.5  C 327.5 335.02  331.02 331.5  335.5 331.5  Z " stroke-width="1" stroke="#797979" fill="none" />
  </g>
</svg>