<?xml version="1.0" encoding="utf-8"?>
<svg version="1.1" xmlns:xlink="http://www.w3.org/1999/xlink" width="19px" height="19px" xmlns="http://www.w3.org/2000/svg">
  <g transform="matrix(1 0 0 1 -396 -22 )">
    <path d="M 16.03125 1.484375  L 2.96875 1.484375  C 2.150265625 1.484375  1.484375 2.150265625  1.484375 2.96875  L 1.484375 16.03125  C 1.484375 16.849734375  2.150265625 17.515625  2.96875 17.515625  L 16.03125 17.515625  C 16.849734375 17.515625  17.515625 16.849734375  17.515625 16.03125  L 17.515625 2.96875  C 17.515625 2.150265625  16.849734375 1.484375  16.03125 1.484375  Z M 0 2.96875  C 0 1.329146484375  1.329146484375 0  2.96875 0  L 16.03125 0  C 17.670853515625 0  19 1.329146484375  19 2.96875  L 19 16.03125  C 19 17.670853515625  17.670853515625 19  16.03125 19  L 2.96875 19  C 1.329146484375 19  0 17.670853515625  0 16.03125  L 0 2.96875  Z " fill-rule="nonzero" fill="#707070" stroke="none" transform="matrix(1 0 0 1 396 22 )" />
  </g>
</svg>