<?xml version="1.0" encoding="utf-8"?>
<svg version="1.1" xmlns:xlink="http://www.w3.org/1999/xlink" width="11px" height="9px" xmlns="http://www.w3.org/2000/svg">
  <g transform="matrix(1 0 0 1 -400 -29 )">
    <path d="M 0.98638671875 1.651234375  C 1.41418359375 1.184546875  1.98133854166667 0.951203124999998  2.6878515625 0.951203125  C 3.329546875 0.951203125000001  3.85781119791667 1.13593359375  4.27264453125 1.50539453125  C 4.68747786458333 1.88143619791667  4.89489453125 2.37080989583333  4.89489453125 2.973515625  C 4.89489453125 3.56973958333334  4.66803255208333 4.11420833333334  4.21430859375 4.606921875  C 3.94855598958333 4.88563802083334  3.46890494791667 5.25833984375  2.77535546875 5.72502734375  C 1.89383463541667 6.31486848958333  1.38825651041667 6.84637369791667  1.25862109375 7.31954296875  L 4.9046171875 7.31954296875  L 4.9046171875 8.029296875  L 0.2766328125 8.029296875  C 0.2766328125 7.3876015625  0.5067109375 6.81396484375  0.9668671875 6.30838671875  C 1.26512760416667 5.97128515625  1.76748958333333 5.55969270833333  2.473953125 5.073609375  C 3.02490364583333 4.67822135416667  3.3878828125 4.38978255208333  3.562890625 4.20829296875  C 3.91938802083333 3.81938671875  4.09763671875 3.40455338541667  4.09763671875 2.96379296875  C 4.09763671875 2.54247786458333  3.9712421875 2.2151484375  3.718453125 1.9818046875  C 3.4656640625 1.7484609375  3.11240755208333 1.63173958333334  2.65868359375 1.631640625  C 2.17255078125 1.631640625  1.80633072916667 1.79368489583333  1.5600234375 2.1177734375  C 1.28130729166667 2.43547916666667  1.13870833333333 2.89897526041667  1.1322265625 3.50826171875  L 0.33496875 3.50826171875  C 0.33496875 2.73693098958333  0.552108072916667 2.117921875  0.98638671875 1.651234375  Z M 6.8880390625 1.51519140625  C 7.28990885416667 1.13919921875  7.82465494791667 0.951203125  8.49227734375 0.951203125  C 9.16638151041667 0.951203125000001  9.70436848958333 1.11972916666667  10.10623828125 1.45678125  C 10.5081080729167 1.80031510416667  10.70904296875 2.26047135416667  10.70904296875 2.83725  C 10.70904296875 3.62149479166667  10.329859375 4.14003645833333  9.5714921875 4.392875  C 9.98632552083333 4.52251041666667  10.2974505208333 4.72020442708333  10.5048671875 4.98595703125  C 10.7382109375 5.25833984375  10.8548828125 5.5986328125  10.8548828125 6.0068359375  C 10.8548828125 6.63556770833334  10.6345026041667 7.15086848958333  10.1937421875 7.55273828125  C 9.7465 7.96118880208334  9.163140625 8.1654140625  8.4436640625 8.1654140625  C 7.79548697916667 8.1654140625  7.2575 7.99688802083334  6.829703125 7.6598359375  C 6.33708854166667 7.251484375  6.06161328125 6.65842708333333  6.00327734375 5.8806640625  L 6.8102578125 5.8806640625  C 6.829703125 6.4251328125  7.01119270833334 6.83996614583333  7.3547265625 7.1251640625  C 7.65288802083334 7.36498958333333  8.0158671875 7.48490234375  8.4436640625 7.48490234375  C 8.93627864583334 7.48490234375  9.33490755208333 7.34230338541667  9.63955078125001 7.05710546875  C 9.91387564443325 6.78912625853848  10.0651869602578 6.41964513850167  10.057625 6.0362265625  C 10.057625 5.62139322916667  9.92155729166667 5.2973046875  9.649421875 5.0639609375  C 9.38366927083334 4.83709895833333  9.0077265625 4.72366796875  8.52159375 4.72366796875  L 7.95753125 4.72366796875  L 7.95753125 4.10141796875  L 8.49227734375 4.10141796875  C 8.95243359375001 4.10141796875  9.30569010416667 3.99770963541667  9.552046875 3.79029296875  C 9.79835416666667 3.57639453125  9.92150781250001 3.2749921875  9.92150781250001 2.8860859375  C 9.92150781250001 2.50366145833333  9.80159505208334 2.20225911458333  9.56176953125 1.98187890625  C 9.31546223958334 1.75501692708334  8.96220572916667 1.6415859375  8.502 1.6415859375  C 8.02883072916667 1.6415859375  7.66585156250001 1.76473958333334  7.41306250000001 2.011046875  C 7.14730989583334 2.25735416666667  6.98850651041667 2.61709244791667  6.93665234375 3.09026171875  L 6.14911718750001 3.09026171875  C 6.20745312500001 2.42263932291667  6.45376041666667 1.89761588541667  6.8880390625 1.51519140625  Z " fill-rule="nonzero" fill="#707070" stroke="none" transform="matrix(1 0 0 1 400 29 )" />
  </g>
</svg>