<?xml version="1.0" encoding="utf-8"?>
<svg version="1.1" xmlns:xlink="http://www.w3.org/1999/xlink" width="17px" height="17px" xmlns="http://www.w3.org/2000/svg">
  <g transform="matrix(1 0 0 1 -1494 -23 )">
    <path d="M 16.2916666611328 8.5  C 16.2916666611328 4.17916667773438  12.8208333388672 0.708333338867187  8.5 0.708333338867187  C 4.21458333886719 0.708333338867187  0.708333338867187 4.17916666113281  0.708333338867187 8.5  C 0.708333338867187 12.8208333388672  4.21458333886719 16.2916666611328  8.5 16.2916666611328  C 12.8208333388672 16.2916666611328  16.2916666611328 12.8208333222656  16.2916666611328 8.5  Z M 3.96666667773437 3.11666667773438  C 4.63958333886719 2.47916666113281  5.48958333886719 2.01875  6.41041666113281 1.73541666113281  C 6.26875 1.9125  6.12708332226562 2.08958332226563  5.98541666113281 2.26666666113281  C 5.98541666113281 2.30208332226563  5.95 2.30208332226563  5.95 2.3375  C 5.66666666113281 2.72708333886719  5.41875 3.1875  5.20625 3.68333333886719  C 5.20625 3.71875  5.17083333886719 3.75416667773438  5.17083333886719 3.75416667773438  C 5.17083333886719 3.78958333886719  5.13541667773437 3.82500001660156  5.13541667773437 3.86041667773438  C 4.71041667773437 3.64791667773438  4.32083333886719 3.40000001660156  3.96666667773437 3.11666667773438  Z M 1.41666666113281 8.14583333886719  C 1.52291666113281 6.375  2.26666666113281 4.78125  3.4 3.57708333886719  C 3.825 3.93125  4.28541666113281 4.25  4.85208333886719 4.49791667773438  C 4.85208333886719 4.53333333886719  4.81666667773438 4.56875001660156  4.81666667773438 4.56875001660156  C 4.63958333886719 5.10000001660156  4.49791667773438 5.70208335546875  4.42708333886719 6.30416667773438  C 4.42708333886719 6.37500001660156  4.39166667773437 6.44583333886719  4.39166667773437 6.55208333886719  C 4.35625001660156 6.8  4.32083333886719 7.0125  4.32083333886719 7.26041667773438  C 4.32083333886719 7.36666667773438  4.32083333886719 7.43750001660156  4.28541667773438 7.54375001660156  C 4.28541667773438 7.75625001660156  4.28541667773438 7.93333335546875  4.25000001660156 8.14583335546875  L 1.41666666113281 8.14583333886719  Z M 3.39999998339844 13.4229166777344  C 2.26666666113281 12.21875  1.52291666113281 10.625  1.41666666113281 8.85416666113281  L 4.25 8.85416666113281  C 4.25 9.06666666113281  4.25 9.27916666113281  4.28541666113281 9.45625  C 4.28541666113281 9.5625  4.28541666113281 9.63333333886719  4.32083332226562 9.73958333886719  C 4.35624998339844 9.9875  4.35624998339844 10.2  4.39166666113281 10.4479166777344  C 4.39166666113281 10.5187500166016  4.42708332226562 10.5895833388672  4.42708332226562 10.6958333388672  C 4.53333332226562 11.2979166777344  4.67499998339844 11.9  4.81666666113281 12.43125  C 4.81666666113281 12.4666666611328  4.85208332226562 12.5020833388672  4.85208332226562 12.5020833388672  C 4.32083332226562 12.75  3.82499998339844 13.06875  3.39999998339844 13.4229166777344  Z M 6.37499998339844 15.2645833554687  C 5.48958333886719 14.98125  4.63958333886719 14.5208333388672  3.93125 13.8833333388672  C 4.28541666113281 13.6  4.675 13.3520833388672  5.1 13.1395833388672  C 5.1 13.175  5.13541666113281 13.2104166777344  5.13541666113281 13.2458333388672  C 5.13541666113281 13.28125  5.17083332226563 13.3166666777344  5.17083332226563 13.3166666777344  C 5.38333332226563 13.8125000166016  5.63124998339844 14.2729166777344  5.91458332226563 14.6625000166016  C 5.91458332226563 14.6979166777344  5.94999998339844 14.6979166777344  5.94999998339844 14.7333333554687  C 6.09166664453125 14.9104166943359  6.23333332226563 15.0875000166016  6.37499998339844 15.2645833554687  Z M 8.14583333886719 12.43125  L 8.14583333886719 15.5479166611328  C 7.15416667773438 15.3354166611328  6.30416667773438 14.34375  5.7375 12.8916666611328  C 6.48125 12.6083333222656  7.29583333886719 12.4666666611328  8.14583333886719 12.43125  Z M 8.14583333886719 8.81875  L 8.14583333886719 11.6875  C 7.18958333886719 11.7229166611328  6.30416667773438 11.9  5.48958333886719 12.1833333388672  C 5.17083333886719 11.1916666777344  4.99375 10.0583333388672  4.95833333886719 8.81875  L 8.14583333886719 8.81875  Z M 8.14583333886719 5.27708333886719  L 8.14583333886719 8.14583333886719  L 4.95833333886719 8.14583333886719  C 4.99375 6.90625  5.17083333886719 5.77291667773438  5.48958333886719 4.78125  C 6.30416667773438 5.06458333886719  7.18958333886719 5.24166666113281  8.14583333886719 5.27708333886719  Z M 8.14583333886719 1.4875  L 8.14583333886719 4.60416666113281  C 7.26041667773438 4.56875  6.44583333886719 4.39166666113281  5.7375 4.14375  C 6.30416666113281 2.65625  7.18958333886719 1.66458333886719  8.14583333886719 1.4875  Z M 13.6000000166016 3.57708332226563  C 14.7333333388672 4.78125  15.4770833388672 6.375  15.5833333388672 8.14583333886719  L 12.75 8.14583333886719  C 12.75 7.93333333886719  12.75 7.72083333886719  12.7145833388672 7.54375  C 12.7145833388672 7.4375  12.7145833388672 7.36666666113281  12.6791666777344 7.26041666113281  C 12.6437500166016 7.0125  12.6437500166016 6.8  12.6083333388672 6.55208332226563  C 12.6083333388672 6.48124998339844  12.5729166777344 6.41041666113281  12.5729166777344 6.30416666113281  C 12.4666666777344 5.70208332226563  12.3250000166016 5.1  12.1833333388672 4.56875  C 12.1833333388672 4.53333333886719  12.1479166777344 4.49791666113281  12.1479166777344 4.49791666113281  C 12.6791666777344 4.25  13.1750000166016 3.93125  13.6000000166016 3.57708332226563  Z M 10.6250000166016 1.73541664453125  C 11.5104166611328 2.01875  12.3604166611328 2.47916666113281  13.06875 3.11666666113281  C 12.7145833388672 3.4  12.325 3.64791666113281  11.9 3.86041666113281  C 11.9 3.825  11.8645833388672 3.78958332226562  11.8645833388672 3.75416666113281  C 11.8645833388672 3.71875  11.8291666777344 3.68333332226562  11.8291666777344 3.68333332226562  C 11.6166666777344 3.18749998339844  11.3687500166016 2.72708332226562  11.0854166777344 2.33749998339844  C 11.0854166777344 2.30208332226562  11.0500000166016 2.30208332226562  11.0500000166016 2.26666664453125  C 10.9083333554688 2.08958330566406  10.7666666777344 1.91249998339844  10.6250000166016 1.73541664453125  Z M 8.85416666113281 4.56875  L 8.85416666113281 1.45208333886719  C 9.84583332226563 1.66458333886719  10.6958333222656 2.65625  11.2625 4.10833333886719  C 10.51875 4.39166667773438  9.70416666113281 4.53333333886719  8.85416666113281 4.56875  Z M 8.85416666113281 8.18125  L 8.85416666113281 5.3125  C 9.81041666113281 5.27708333886719  10.6958333222656 5.1  11.5104166611328 4.81666666113281  C 11.8291666611328 5.80833332226563  12.00625 6.94166666113281  12.0416666611328 8.18125  L 8.85416666113281 8.18125  Z M 8.85416666113281 11.7229166611328  L 8.85416666113281 8.85416666113281  L 12.0416666611328 8.85416666113281  C 12.00625 10.09375  11.8291666611328 11.2270833222656  11.5104166611328 12.21875  C 10.6958333222656 11.9354166611328  9.81041666113281 11.7583333388672  8.85416666113281 11.7229166611328  Z M 11.2625 12.85625  C 10.6958333388672 14.34375  9.84583333886719 15.3354166611328  8.85416666113281 15.5479166611328  L 8.85416666113281 12.3958333388672  C 9.73958332226563 12.43125  10.5541666611328 12.6083333388672  11.2625 12.85625  Z M 13.0333333222656 13.8833333222656  C 12.3604166611328 14.5208333388672  11.5104166611328 14.98125  10.5895833388672 15.2645833388672  C 10.73125 15.0875  10.8729166777344 14.9104166777344  11.0145833388672 14.7333333388672  C 11.0145833388672 14.6979166777344  11.05 14.6979166777344  11.05 14.6625  C 11.3333333388672 14.2729166611328  11.58125 13.8125  11.79375 13.3166666611328  C 11.79375 13.28125  11.8291666611328 13.2458333222656  11.8291666611328 13.2458333222656  C 11.8291666611328 13.2104166611328  11.8645833222656 13.1749999833984  11.8645833222656 13.1395833222656  C 12.2895833222656 13.3520833222656  12.6791666611328 13.5999999833984  13.0333333222656 13.8833333222656  Z M 15.5833333222656 8.85416664453125  C 15.4770833388672 10.625  14.7333333388672 12.21875  13.6 13.4229166611328  C 13.175 13.06875  12.7145833388672 12.75  12.1479166611328 12.5020833222656  C 12.1479166611328 12.4666666611328  12.1833333222656 12.4312499833984  12.1833333222656 12.4312499833984  C 12.3604166611328 11.8999999833984  12.5020833222656 11.2979166445312  12.5729166611328 10.6958333222656  C 12.5729166611328 10.6249999833984  12.6083333222656 10.5541666611328  12.6083333222656 10.4479166611328  C 12.6437499833984 10.2  12.6791666611328 9.9875  12.6791666611328 9.73958332226563  C 12.6791666611328 9.63333332226563  12.6791666611328 9.56249998339844  12.7145833222656 9.45624998339844  C 12.7145833222656 9.24374998339844  12.7145833222656 9.06666664453125  12.7499999833984 8.85416664453125  L 15.5833333222656 8.85416664453125  Z " fill-rule="nonzero" fill="#ffffff" stroke="none" transform="matrix(1 0 0 1 1494 23 )" />
  </g>
</svg>