<?xml version="1.0" encoding="utf-8"?>
<svg version="1.1" xmlns:xlink="http://www.w3.org/1999/xlink" width="14px" height="9px" xmlns="http://www.w3.org/2000/svg">
  <g transform="matrix(1 0 0 1 -29 -18 )">
    <path d="M 13.8664628159467 4.71753357968088  L 7.15746858991268 8.94478579652741  C 7.06348435761453 9.00362179547969  6.94031551389283 9.00362179547969  6.84633128159467 8.94478579652741  L 0.137382308501842 4.71751961400953  C 0.0617754346844919 4.66955323094151  0.016576533551202 4.5901377370971  0.016576533551202 4.5052611290373  C 0.016576533551202 4.42038452104137  0.0617754346168908 4.34096902724819  0.137382308340989 4.29300264416711  L 6.84634636086857 0.0631947651780997  C 6.94033059316672 0.00435876622582043  7.06349943688842 0.00435876622582043  7.15748366918658 0.0631947651780997  L 13.8664477366728 4.29300264416711  C 13.9420673731329 4.34096724061985  13.9872755271603 4.42038974436213  13.9872755271603 4.50527509475967  C 13.9872755271603 4.5901604451572  13.9420673731329 4.66958294889949  13.8664477366728 4.71754754535223  Z " fill-rule="nonzero" fill="#ffffff" stroke="none" transform="matrix(1 0 0 1 29 18 )" />
  </g>
</svg>