<?xml version="1.0" encoding="utf-8"?>
<svg version="1.1" xmlns:xlink="http://www.w3.org/1999/xlink" width="12px" height="13px" xmlns="http://www.w3.org/2000/svg">
  <g transform="matrix(1 0 0 1 -38 -152 )">
    <path d="M 11.9943335500781 11.2937357115625  C 11.9943335500781 12.238495625918  11.2350442931445 12.9986852157422  10.2980873650586 12.9986852157422  L 1.71031583525391 12.9986852157422  C 0.773358895273438 12.9986852157422  0.00686690207031315 12.2384956138867  0.00686690207031315 11.2937357115625  L 0.00686690207031315 2.70476371744141  C 0.00686690207031315 1.76690644429688  0.766156159003907 0.999814213261719  1.71016577576172 0.999814213261719  L 10.2910346763867 0.999814213261719  C 11.227841556875 0.999814213261719  11.9943335500781 1.759853755625  11.9943335500781 2.70476371744141  L 11.9943335500781 11.2937357115625  Z M 1.71031583525391 1.80246998339844  C 1.21347656263672 1.80246998339844  0.801719697832031 2.20747426634766  0.801719697695312 2.71181640625  L 0.801719697695312 11.3007884002344  C 0.801719697695312 11.7980778394336  1.2062738140625 12.2101348232227  1.710165775625 12.2101348111914  L 10.2910346763867 12.2101348111914  C 10.7877238895117 12.2101348111914  11.1994807543164 11.8051305282422  11.1994807541797 11.3007884002344  L 11.1994807541797 2.70476371744141  C 11.1994807541797 2.20747427824219  10.7949266378125 1.79541729445313  10.2910346763867 1.79541730648438  L 1.710165775625 1.80246998339844  Z " fill-rule="nonzero" fill="#999999" stroke="none" transform="matrix(1 0 0 1 38 152 )" />
  </g>
</svg>