<?xml version="1.0" encoding="utf-8"?>
<svg version="1.1" xmlns:xlink="http://www.w3.org/1999/xlink" width="42px" height="20px" xmlns="http://www.w3.org/2000/svg">
  <g transform="matrix(1 0 0 1 -1490 -124 )">
    <path d="M 1491 127  A 2 2 0 0 1 1493 125 L 1529 125  A 2 2 0 0 1 1531 127 L 1531 141  A 2 2 0 0 1 1529 143 L 1493 143  A 2 2 0 0 1 1491 141 L 1491 127  Z " fill-rule="nonzero" fill="#ffffff" stroke="none" fill-opacity="0" />
    <path d="M 1490.5 127  A 2.5 2.5 0 0 1 1493 124.5 L 1529 124.5  A 2.5 2.5 0 0 1 1531.5 127 L 1531.5 141  A 2.5 2.5 0 0 1 1529 143.5 L 1493 143.5  A 2.5 2.5 0 0 1 1490.5 141 L 1490.5 127  Z " stroke-width="1" stroke="#f59a23" fill="none" stroke-opacity="0.996078431372549" />
  </g>
</svg>