<svg t="1604050139885" class="icon" viewBox="0 0 1171 1024" version="1.1" xmlns="http://www.w3.org/2000/svg" p-id="1525" width="200" height="200"><path d="M871.822222 226.038519c-76.420741-76.420741-177.967407-118.423704-285.961481-118.423704s-209.540741 42.097778-285.961482 118.423704S181.475556 404.005926 181.475556 512c0 107.994074 42.097778 209.540741 118.423703 285.961481S477.866667 916.385185 585.860741 916.385185s209.540741-42.097778 285.961481-118.423704 118.423704-177.967407 118.423704-285.961481c0-107.994074-42.097778-209.540741-118.423704-285.961481zM585.860741 742.020741c-22.471111 0-40.675556-18.204444-40.675556-40.675556s18.204444-40.675556 40.675556-40.675555 40.675556 18.204444 40.675555 40.675555-18.204444 40.675556-40.675555 40.675556z m42.002963-189.060741c0 23.134815-18.773333 41.908148-41.908148 41.908148-23.134815 0-41.908148-18.773333-41.908149-41.908148V332.136296c0-23.134815 18.773333-41.908148 41.908149-41.908148 23.134815 0 41.908148 18.773333 41.908148 41.908148v220.823704z" fill="#d81e06" p-id="1526"></path></svg>