<svg t="1604052562335" class="icon" viewBox="0 0 1024 1024" version="1.1" xmlns="http://www.w3.org/2000/svg" p-id="2039" width="200" height="200"><path d="M512 1024C229.241263 1024 0 794.758737 0 512S229.241263 0 512 0s512 229.241263 512 512-229.241263 512-512 512z m29.399579-642.775579l-30.639158-22.581895a45.056 45.056 0 0 0-26.435368-8.326737h-136.326737c-13.177263 0-24.629895 10.698105-24.629895 23.713685v362.90021c0 24.387368 20.399158 44.544 45.621895 44.544h312.966737c25.222737 0 45.621895-20.156632 45.621894-44.544v-184.643368c0-17.246316-9.000421-37.456842-21.611789-46.349474l-126.140632-94.989474-38.426947-29.722947zM366.214737 323.368421h103.154526c10.913684 0 17.461895-12.126316 15.252211-26.677895l-10.886737-41.256421A16.114526 16.114526 0 0 0 458.482526 242.526316h-81.381052a16.087579 16.087579 0 0 0-15.252211 12.907789l-10.886737 41.229474c-2.883368 13.770105 4.338526 26.704842 15.252211 26.704842z m274.917052 232.04379a24.522105 24.522105 0 0 1-20.048842 10.482526 26.462316 26.462316 0 0 1-15.925894-5.524211l-136.919579-108.975158a26.677895 26.677895 0 0 1-4.742737-36.917894 25.384421 25.384421 0 0 1 35.947789-4.931369l137.512421 108.921263c11.237053 9.242947 13.015579 25.869474 4.176842 36.917895v0.026948zM458.078316 727.578947C427.897263 727.578947 404.210526 704.269474 404.210526 676.136421c0-15.952842 8.299789-36.756211 17.300211-47.777684l34.007579-60.038737c1.320421-1.239579 1.940211-2.425263 3.233684-2.425263s2.533053 1.266526 3.233684 2.425263l33.306948 60.038737c5.793684 11.587368 16.707368 31.824842 16.707368 47.777684-0.080842 28.213895-24.468211 51.442526-53.921684 51.442526z" fill="#e16531" p-id="2040"></path></svg>