<?xml version="1.0" encoding="utf-8"?>
<svg version="1.1" xmlns:xlink="http://www.w3.org/1999/xlink" width="12px" height="12px" viewBox="79 85.5  12 12" xmlns="http://www.w3.org/2000/svg">
  <path d="M 85 85.5  C 88.36 85.5  91 88.14  91 91.5  C 91 94.86  88.36 97.5  85 97.5  C 81.64 97.5  79 94.86  79 91.5  C 79 88.14  81.64 85.5  85 85.5  Z " fill-rule="nonzero" fill="#f0f0f0" stroke="none" />
  <path d="M 85 86  C 88.08 86  90.5 88.42  90.5 91.5  C 90.5 94.58  88.08 97  85 97  C 81.92 97  79.5 94.58  79.5 91.5  C 79.5 88.42  81.92 86  85 86  Z " stroke-width="1" stroke="#797979" fill="none" />
  <path d="M 85 94.5  C 83.32 94.5  82 93.18  82 91.5  C 82 89.82  83.32 88.5  85 88.5  C 86.68 88.5  88 89.82  88 91.5  C 88 93.18  86.68 94.5  85 94.5  " fill-rule="nonzero" fill="#797979" stroke="none" />
</svg>