<?xml version="1.0" encoding="utf-8"?>
<svg version="1.1" xmlns:xlink="http://www.w3.org/1999/xlink" width="12px" height="12px" viewBox="79 48.5  12 12" xmlns="http://www.w3.org/2000/svg">
  <path d="M 85 48.5  C 88.36 48.5  91 51.14  91 54.5  C 91 57.86  88.36 60.5  85 60.5  C 81.64 60.5  79 57.86  79 54.5  C 79 51.14  81.64 48.5  85 48.5  Z " fill-rule="nonzero" fill="#f0f0f0" stroke="none" />
  <path d="M 85 49  C 88.08 49  90.5 51.42  90.5 54.5  C 90.5 57.58  88.08 60  85 60  C 81.92 60  79.5 57.58  79.5 54.5  C 79.5 51.42  81.92 49  85 49  Z " stroke-width="1" stroke="#797979" fill="none" />
  <path d="M 85 57.5  C 83.32 57.5  82 56.18  82 54.5  C 82 52.82  83.32 51.5  85 51.5  C 86.68 51.5  88 52.82  88 54.5  C 88 56.18  86.68 57.5  85 57.5  " fill-rule="nonzero" fill="#797979" stroke="none" />
</svg>