<?xml version="1.0" encoding="utf-8"?>
<svg version="1.1" xmlns:xlink="http://www.w3.org/1999/xlink" width="80px" height="80px" xmlns="http://www.w3.org/2000/svg">
  <g transform="matrix(1 0 0 1 -146 -139 )">
    <path d="M 146 139  L 226 139  L 226 219  L 146 219  L 146 139  " fill-rule="nonzero" fill="#cccccc" stroke="none" />
    <path d="M 152 145  L 220 145  L 220 213  L 152 213  L 152 145  " fill-rule="nonzero" fill="#ffffff" stroke="none" />
    <path d="M 193.6 163  C 190.24 163  187.6 160.36  187.6 157  C 187.6 153.64  190.24 151  193.6 151  C 196.96 151  199.6 153.64  199.6 157  C 199.6 160.36  196.96 163  193.6 163  " fill-rule="nonzero" fill="#cccccc" stroke="none" />
    <path d="M 154 211  L 154 175.8  L 170 159.8  L 192.4 172.6  L 205.2 169.4  L 218 172.6  L 218 211  L 154 211  " fill-rule="nonzero" fill="#169bd5" stroke="none" />
  </g>
</svg>