<?xml version="1.0" encoding="utf-8"?>
<svg version="1.1" xmlns:xlink="http://www.w3.org/1999/xlink" width="118px" height="28px" xmlns="http://www.w3.org/2000/svg">
  <defs>
    <mask fill="white" id="clip32">
      <path d="M 0 24  L 0 4  C 0 1.76  1.97790476190477 0  4.4952380952381 0  L 77.9174603174603 0  L 113.504761904762 0  C 116.022095238095 0  118 1.76  118 4  L 118 24  C 118 26.24  116.022095238095 28  113.504761904762 28  L 4.4952380952381 28  C 1.97790476190477 28  0 26.24  0 24  Z " fill-rule="evenodd" />
    </mask>
  </defs>
  <g transform="matrix(1 0 0 1 -890 -27 )">
    <path d="M 0 24  L 0 4  C 0 1.76  1.97790476190477 0  4.4952380952381 0  L 77.9174603174603 0  L 113.504761904762 0  C 116.022095238095 0  118 1.76  118 4  L 118 24  C 118 26.24  116.022095238095 28  113.504761904762 28  L 4.4952380952381 28  C 1.97790476190477 28  0 26.24  0 24  Z " fill-rule="nonzero" fill="#ffffff" stroke="none" transform="matrix(1 0 0 1 890 27 )" />
    <path d="M 0 24  L 0 4  C 0 1.76  1.97790476190477 0  4.4952380952381 0  L 77.9174603174603 0  L 113.504761904762 0  C 116.022095238095 0  118 1.76  118 4  L 118 24  C 118 26.24  116.022095238095 28  113.504761904762 28  L 4.4952380952381 28  C 1.97790476190477 28  0 26.24  0 24  Z " stroke-width="2" stroke="#dcdfe6" fill="none" transform="matrix(1 0 0 1 890 27 )" mask="url(#clip32)" />
  </g>
</svg>