<?xml version="1.0" encoding="utf-8"?>
<svg version="1.1" xmlns:xlink="http://www.w3.org/1999/xlink" width="107px" height="28px" xmlns="http://www.w3.org/2000/svg">
  <defs>
    <mask fill="white" id="clip39">
      <path d="M 0 24  L 0 4  C 0 1.76  1.79352380952381 0  4.07619047619048 0  L 70.6539682539683 0  L 102.92380952381 0  C 105.206476190476 0  107 1.76  107 4  L 107 24  C 107 26.24  105.206476190476 28  102.92380952381 28  L 4.07619047619048 28  C 1.79352380952381 28  0 26.24  0 24  Z " fill-rule="evenodd" />
    </mask>
  </defs>
  <g transform="matrix(1 0 0 1 -687 -27 )">
    <path d="M 0 24  L 0 4  C 0 1.76  1.79352380952381 0  4.07619047619048 0  L 70.6539682539683 0  L 102.92380952381 0  C 105.206476190476 0  107 1.76  107 4  L 107 24  C 107 26.24  105.206476190476 28  102.92380952381 28  L 4.07619047619048 28  C 1.79352380952381 28  0 26.24  0 24  Z " fill-rule="nonzero" fill="#f5f7fa" stroke="none" transform="matrix(1 0 0 1 687 27 )" />
    <path d="M 0 24  L 0 4  C 0 1.76  1.79352380952381 0  4.07619047619048 0  L 70.6539682539683 0  L 102.92380952381 0  C 105.206476190476 0  107 1.76  107 4  L 107 24  C 107 26.24  105.206476190476 28  102.92380952381 28  L 4.07619047619048 28  C 1.79352380952381 28  0 26.24  0 24  Z " stroke-width="2" stroke="#dcdfe6" fill="none" transform="matrix(1 0 0 1 687 27 )" mask="url(#clip39)" />
  </g>
</svg>