<?xml version="1.0" encoding="utf-8"?>
<svg version="1.1" xmlns:xlink="http://www.w3.org/1999/xlink" width="17px" height="17px" xmlns="http://www.w3.org/2000/svg">
  <g transform="matrix(1 0 0 1 -534 -431 )">
    <path d="M 15.8382945963542 8.55355387369791  C 15.8382945963542 4.52589583333333  12.5732127278646 1.26081396484375  8.54553531901042 1.26081396484375  C 4.51785791015625 1.26081396484375  1.25277604166667 4.52589583333334  1.25277604166667 8.55355387369792  C 1.25277604166667 12.5812119140625  4.51787727864583 15.8463131510417  8.54553531901042 15.8463131510417  C 12.5732127278646 15.8463131510417  15.8382945963542 12.5812119140625  15.8382945963542 8.55355387369791  Z M 14.6645060221354 8.5535732421875  C 14.6645060221354 11.9329873046875  11.9249493815104 14.6725439453125  8.54551595052083 14.6725439453125  C 5.16610188802083 14.6725439453125  2.42656461588542 11.9329873046875  2.42656461588542 8.5535732421875  C 2.42656461588542 5.17413981119792  5.16612125651042 2.43458317057292  8.54551595052083 2.43458317057292  C 11.92496875 2.43458317057292  14.6645060221354 5.17413981119792  14.6645060221354 8.5535732421875  Z M 7.93873990885417 9.7898251953125  C 7.55849772135417 9.7898251953125  7.24914420572917 9.48051041666667  7.24914420572917 9.10032633463542  L 7.24914420572917 4.24999169921875  C 7.24914420572917 3.86974951171875  7.55849772135417 3.56039599609375  7.93873990885417 3.56039599609375  C 8.31890462239583 3.56039599609375  8.62820003255208 3.86974951171875  8.62820003255208 4.24999169921875  L 8.62820003255208 8.41076936848958  L 11.5764134114583 8.41076936848958  C 11.9566555989583 8.41076936848958  12.2659897460937 8.720103515625  12.2659897460937 9.100345703125  C 12.2659897460937 9.48052978515625  11.9566555989583 9.78984456380208  11.5764134114583 9.78984456380208  L 7.93873990885417 9.78984456380208  Z " fill-rule="nonzero" fill="#cccccc" stroke="none" transform="matrix(1 0 0 1 534 431 )" />
  </g>
</svg>