<?xml version="1.0" encoding="utf-8"?>
<svg version="1.1" xmlns:xlink="http://www.w3.org/1999/xlink" width="12px" height="12px" viewBox="141 1117.5  12 12" xmlns="http://www.w3.org/2000/svg">
  <path d="M 147 1117.5  C 150.36 1117.5  153 1120.14  153 1123.5  C 153 1126.86  150.36 1129.5  147 1129.5  C 143.64 1129.5  141 1126.86  141 1123.5  C 141 1120.14  143.64 1117.5  147 1117.5  Z " fill-rule="nonzero" fill="#f0f0f0" stroke="none" />
  <path d="M 147 1118  C 150.08 1118  152.5 1120.42  152.5 1123.5  C 152.5 1126.58  150.08 1129  147 1129  C 143.92 1129  141.5 1126.58  141.5 1123.5  C 141.5 1120.42  143.92 1118  147 1118  Z " stroke-width="1" stroke="#797979" fill="none" />
  <path d="M 147 1126.5  C 145.32 1126.5  144 1125.18  144 1123.5  C 144 1121.82  145.32 1120.5  147 1120.5  C 148.68 1120.5  150 1121.82  150 1123.5  C 150 1125.18  148.68 1126.5  147 1126.5  " fill-rule="nonzero" fill="#797979" stroke="none" />
</svg>