<?xml version="1.0" encoding="utf-8"?>
<svg version="1.1" xmlns:xlink="http://www.w3.org/1999/xlink" width="12px" height="12px" viewBox="145 119.5  12 12" xmlns="http://www.w3.org/2000/svg">
  <path d="M 151 119.5  C 154.36 119.5  157 122.14  157 125.5  C 157 128.86  154.36 131.5  151 131.5  C 147.64 131.5  145 128.86  145 125.5  C 145 122.14  147.64 119.5  151 119.5  Z " fill-rule="nonzero" fill="#f0f0f0" stroke="none" />
  <path d="M 151 120  C 154.08 120  156.5 122.42  156.5 125.5  C 156.5 128.58  154.08 131  151 131  C 147.92 131  145.5 128.58  145.5 125.5  C 145.5 122.42  147.92 120  151 120  Z " stroke-width="1" stroke="#797979" fill="none" />
  <path d="M 151 128.5  C 149.32 128.5  148 127.18  148 125.5  C 148 123.82  149.32 122.5  151 122.5  C 152.68 122.5  154 123.82  154 125.5  C 154 127.18  152.68 128.5  151 128.5  " fill-rule="nonzero" fill="#797979" stroke="none" />
</svg>