<?xml version="1.0" encoding="utf-8"?>
<svg version="1.1" xmlns:xlink="http://www.w3.org/1999/xlink" width="12px" height="12px" viewBox="456 119.5  12 12" xmlns="http://www.w3.org/2000/svg">
  <path d="M 462 119.5  C 465.36 119.5  468 122.14  468 125.5  C 468 128.86  465.36 131.5  462 131.5  C 458.64 131.5  456 128.86  456 125.5  C 456 122.14  458.64 119.5  462 119.5  Z " fill-rule="nonzero" fill="#ffffff" stroke="none" />
  <path d="M 462 120  C 465.08 120  467.5 122.42  467.5 125.5  C 467.5 128.58  465.08 131  462 131  C 458.92 131  456.5 128.58  456.5 125.5  C 456.5 122.42  458.92 120  462 120  Z " stroke-width="1" stroke="#797979" fill="none" />
  <path d="M 462 128.5  C 460.32 128.5  459 127.18  459 125.5  C 459 123.82  460.32 122.5  462 122.5  C 463.68 122.5  465 123.82  465 125.5  C 465 127.18  463.68 128.5  462 128.5  " fill-rule="nonzero" fill="#797979" stroke="none" />
</svg>