<?xml version="1.0" encoding="utf-8"?>
<svg version="1.1" xmlns:xlink="http://www.w3.org/1999/xlink" width="12px" height="12px" viewBox="247 1117.5  12 12" xmlns="http://www.w3.org/2000/svg">
  <path d="M 253 1117.5  C 256.36 1117.5  259 1120.14  259 1123.5  C 259 1126.86  256.36 1129.5  253 1129.5  C 249.64 1129.5  247 1126.86  247 1123.5  C 247 1120.14  249.64 1117.5  253 1117.5  Z " fill-rule="nonzero" fill="#ffffff" stroke="none" />
  <path d="M 253 1118  C 256.08 1118  258.5 1120.42  258.5 1123.5  C 258.5 1126.58  256.08 1129  253 1129  C 249.92 1129  247.5 1126.58  247.5 1123.5  C 247.5 1120.42  249.92 1118  253 1118  Z " stroke-width="1" stroke="#797979" fill="none" />
  <path d="M 253 1126.5  C 251.32 1126.5  250 1125.18  250 1123.5  C 250 1121.82  251.32 1120.5  253 1120.5  C 254.68 1120.5  256 1121.82  256 1123.5  C 256 1125.18  254.68 1126.5  253 1126.5  " fill-rule="nonzero" fill="#797979" stroke="none" />
</svg>