<?xml version="1.0" encoding="utf-8"?>
<svg version="1.1" xmlns:xlink="http://www.w3.org/1999/xlink" width="12px" height="12px" viewBox="528 1117.5  12 12" xmlns="http://www.w3.org/2000/svg">
  <path d="M 534 1117.5  C 537.36 1117.5  540 1120.14  540 1123.5  C 540 1126.86  537.36 1129.5  534 1129.5  C 530.64 1129.5  528 1126.86  528 1123.5  C 528 1120.14  530.64 1117.5  534 1117.5  Z " fill-rule="nonzero" fill="#f0f0f0" stroke="none" />
  <path d="M 534 1118  C 537.08 1118  539.5 1120.42  539.5 1123.5  C 539.5 1126.58  537.08 1129  534 1129  C 530.92 1129  528.5 1126.58  528.5 1123.5  C 528.5 1120.42  530.92 1118  534 1118  Z " stroke-width="1" stroke="#797979" fill="none" />
  <path d="M 534 1126.5  C 532.32 1126.5  531 1125.18  531 1123.5  C 531 1121.82  532.32 1120.5  534 1120.5  C 535.68 1120.5  537 1121.82  537 1123.5  C 537 1125.18  535.68 1126.5  534 1126.5  " fill-rule="nonzero" fill="#797979" stroke="none" />
</svg>