<?xml version="1.0" encoding="utf-8"?>
<svg version="1.1" xmlns:xlink="http://www.w3.org/1999/xlink" width="12px" height="12px" viewBox="142 2087.5  12 12" xmlns="http://www.w3.org/2000/svg">
  <path d="M 148 2087.5  C 151.36 2087.5  154 2090.14  154 2093.5  C 154 2096.86  151.36 2099.5  148 2099.5  C 144.64 2099.5  142 2096.86  142 2093.5  C 142 2090.14  144.64 2087.5  148 2087.5  Z " fill-rule="nonzero" fill="#ffffff" stroke="none" />
  <path d="M 148 2088  C 151.08 2088  153.5 2090.42  153.5 2093.5  C 153.5 2096.58  151.08 2099  148 2099  C 144.92 2099  142.5 2096.58  142.5 2093.5  C 142.5 2090.42  144.92 2088  148 2088  Z " stroke-width="1" stroke="#797979" fill="none" />
  <path d="M 148 2096.5  C 146.32 2096.5  145 2095.18  145 2093.5  C 145 2091.82  146.32 2090.5  148 2090.5  C 149.68 2090.5  151 2091.82  151 2093.5  C 151 2095.18  149.68 2096.5  148 2096.5  " fill-rule="nonzero" fill="#797979" stroke="none" />
</svg>