<?xml version="1.0" encoding="utf-8"?>
<svg version="1.1" xmlns:xlink="http://www.w3.org/1999/xlink" width="12px" height="12px" viewBox="353 1117.5  12 12" xmlns="http://www.w3.org/2000/svg">
  <path d="M 359 1117.5  C 362.36 1117.5  365 1120.14  365 1123.5  C 365 1126.86  362.36 1129.5  359 1129.5  C 355.64 1129.5  353 1126.86  353 1123.5  C 353 1120.14  355.64 1117.5  359 1117.5  Z " fill-rule="nonzero" fill="#ffffff" stroke="none" />
  <path d="M 359 1118  C 362.08 1118  364.5 1120.42  364.5 1123.5  C 364.5 1126.58  362.08 1129  359 1129  C 355.92 1129  353.5 1126.58  353.5 1123.5  C 353.5 1120.42  355.92 1118  359 1118  Z " stroke-width="1" stroke="#797979" fill="none" />
  <path d="M 359 1126.5  C 357.32 1126.5  356 1125.18  356 1123.5  C 356 1121.82  357.32 1120.5  359 1120.5  C 360.68 1120.5  362 1121.82  362 1123.5  C 362 1125.18  360.68 1126.5  359 1126.5  " fill-rule="nonzero" fill="#797979" stroke="none" />
</svg>