<?xml version="1.0" encoding="utf-8"?>
<svg version="1.1" xmlns:xlink="http://www.w3.org/1999/xlink" width="12px" height="12px" viewBox="141 1336.5  12 12" xmlns="http://www.w3.org/2000/svg">
  <path d="M 147 1336.5  C 150.36 1336.5  153 1339.14  153 1342.5  C 153 1345.86  150.36 1348.5  147 1348.5  C 143.64 1348.5  141 1345.86  141 1342.5  C 141 1339.14  143.64 1336.5  147 1336.5  Z " fill-rule="nonzero" fill="#f0f0f0" stroke="none" />
  <path d="M 147 1337  C 150.08 1337  152.5 1339.42  152.5 1342.5  C 152.5 1345.58  150.08 1348  147 1348  C 143.92 1348  141.5 1345.58  141.5 1342.5  C 141.5 1339.42  143.92 1337  147 1337  Z " stroke-width="1" stroke="#797979" fill="none" />
  <path d="M 147 1345.5  C 145.32 1345.5  144 1344.18  144 1342.5  C 144 1340.82  145.32 1339.5  147 1339.5  C 148.68 1339.5  150 1340.82  150 1342.5  C 150 1344.18  148.68 1345.5  147 1345.5  " fill-rule="nonzero" fill="#797979" stroke="none" />
</svg>