<?xml version="1.0" encoding="utf-8"?>
<svg version="1.1" xmlns:xlink="http://www.w3.org/1999/xlink" width="12px" height="12px" viewBox="247 1336.5  12 12" xmlns="http://www.w3.org/2000/svg">
  <path d="M 253 1336.5  C 256.36 1336.5  259 1339.14  259 1342.5  C 259 1345.86  256.36 1348.5  253 1348.5  C 249.64 1348.5  247 1345.86  247 1342.5  C 247 1339.14  249.64 1336.5  253 1336.5  Z " fill-rule="nonzero" fill="#ffffff" stroke="none" />
  <path d="M 253 1337  C 256.08 1337  258.5 1339.42  258.5 1342.5  C 258.5 1345.58  256.08 1348  253 1348  C 249.92 1348  247.5 1345.58  247.5 1342.5  C 247.5 1339.42  249.92 1337  253 1337  Z " stroke-width="1" stroke="#797979" fill="none" />
  <path d="M 253 1345.5  C 251.32 1345.5  250 1344.18  250 1342.5  C 250 1340.82  251.32 1339.5  253 1339.5  C 254.68 1339.5  256 1340.82  256 1342.5  C 256 1344.18  254.68 1345.5  253 1345.5  " fill-rule="nonzero" fill="#797979" stroke="none" />
</svg>