<?xml version="1.0" encoding="utf-8"?>
<svg version="1.1" xmlns:xlink="http://www.w3.org/1999/xlink" width="12px" height="12px" viewBox="353 1336.5  12 12" xmlns="http://www.w3.org/2000/svg">
  <path d="M 359 1336.5  C 362.36 1336.5  365 1339.14  365 1342.5  C 365 1345.86  362.36 1348.5  359 1348.5  C 355.64 1348.5  353 1345.86  353 1342.5  C 353 1339.14  355.64 1336.5  359 1336.5  Z " fill-rule="nonzero" fill="#ffffff" stroke="none" />
  <path d="M 359 1337  C 362.08 1337  364.5 1339.42  364.5 1342.5  C 364.5 1345.58  362.08 1348  359 1348  C 355.92 1348  353.5 1345.58  353.5 1342.5  C 353.5 1339.42  355.92 1337  359 1337  Z " stroke-width="1" stroke="#797979" fill="none" />
  <path d="M 359 1345.5  C 357.32 1345.5  356 1344.18  356 1342.5  C 356 1340.82  357.32 1339.5  359 1339.5  C 360.68 1339.5  362 1340.82  362 1342.5  C 362 1344.18  360.68 1345.5  359 1345.5  " fill-rule="nonzero" fill="#797979" stroke="none" />
</svg>