<?xml version="1.0" encoding="utf-8"?>
<svg version="1.1" xmlns:xlink="http://www.w3.org/1999/xlink" width="12px" height="12px" viewBox="31 279  12 12" xmlns="http://www.w3.org/2000/svg">
  <path d="M 37 279  C 40.36 279  43 281.64  43 285  C 43 288.36  40.36 291  37 291  C 33.64 291  31 288.36  31 285  C 31 281.64  33.64 279  37 279  Z " fill-rule="nonzero" fill="#ffffff" stroke="none" />
  <path d="M 37 279.5  C 40.08 279.5  42.5 281.92  42.5 285  C 42.5 288.08  40.08 290.5  37 290.5  C 33.92 290.5  31.5 288.08  31.5 285  C 31.5 281.92  33.92 279.5  37 279.5  Z " stroke-width="1" stroke="#797979" fill="none" />
  <path d="M 37 288  C 35.32 288  34 286.68  34 285  C 34 283.32  35.32 282  37 282  C 38.68 282  40 283.32  40 285  C 40 286.68  38.68 288  37 288  " fill-rule="nonzero" fill="#797979" stroke="none" />
</svg>