<?xml version="1.0" encoding="utf-8"?>
<svg version="1.1" xmlns:xlink="http://www.w3.org/1999/xlink" width="12px" height="12px" viewBox="31 309  12 12" xmlns="http://www.w3.org/2000/svg">
  <path d="M 37 309  C 40.36 309  43 311.64  43 315  C 43 318.36  40.36 321  37 321  C 33.64 321  31 318.36  31 315  C 31 311.64  33.64 309  37 309  Z " fill-rule="nonzero" fill="#ffffff" stroke="none" />
  <path d="M 37 309.5  C 40.08 309.5  42.5 311.92  42.5 315  C 42.5 318.08  40.08 320.5  37 320.5  C 33.92 320.5  31.5 318.08  31.5 315  C 31.5 311.92  33.92 309.5  37 309.5  Z " stroke-width="1" stroke="#797979" fill="none" />
  <path d="M 37 318  C 35.32 318  34 316.68  34 315  C 34 313.32  35.32 312  37 312  C 38.68 312  40 313.32  40 315  C 40 316.68  38.68 318  37 318  " fill-rule="nonzero" fill="#797979" stroke="none" />
</svg>