<?xml version="1.0" encoding="utf-8"?>
<svg version="1.1" xmlns:xlink="http://www.w3.org/1999/xlink" width="12px" height="12px" viewBox="31 160  12 12" xmlns="http://www.w3.org/2000/svg">
  <path d="M 37 160  C 40.36 160  43 162.64  43 166  C 43 169.36  40.36 172  37 172  C 33.64 172  31 169.36  31 166  C 31 162.64  33.64 160  37 160  Z " fill-rule="nonzero" fill="#f0f0f0" stroke="none" />
  <path d="M 37 160.5  C 40.08 160.5  42.5 162.92  42.5 166  C 42.5 169.08  40.08 171.5  37 171.5  C 33.92 171.5  31.5 169.08  31.5 166  C 31.5 162.92  33.92 160.5  37 160.5  Z " stroke-width="1" stroke="#797979" fill="none" />
  <path d="M 37 169  C 35.32 169  34 167.68  34 166  C 34 164.32  35.32 163  37 163  C 38.68 163  40 164.32  40 166  C 40 167.68  38.68 169  37 169  " fill-rule="nonzero" fill="#797979" stroke="none" />
</svg>