<?xml version="1.0" encoding="utf-8"?>
<svg version="1.1" xmlns:xlink="http://www.w3.org/1999/xlink" width="12px" height="12px" viewBox="31 339  12 12" xmlns="http://www.w3.org/2000/svg">
  <path d="M 37 339  C 40.36 339  43 341.64  43 345  C 43 348.36  40.36 351  37 351  C 33.64 351  31 348.36  31 345  C 31 341.64  33.64 339  37 339  Z " fill-rule="nonzero" fill="#f0f0f0" stroke="none" />
  <path d="M 37 339.5  C 40.08 339.5  42.5 341.92  42.5 345  C 42.5 348.08  40.08 350.5  37 350.5  C 33.92 350.5  31.5 348.08  31.5 345  C 31.5 341.92  33.92 339.5  37 339.5  Z " stroke-width="1" stroke="#797979" fill="none" />
  <path d="M 37 348  C 35.32 348  34 346.68  34 345  C 34 343.32  35.32 342  37 342  C 38.68 342  40 343.32  40 345  C 40 346.68  38.68 348  37 348  " fill-rule="nonzero" fill="#797979" stroke="none" />
</svg>