<?xml version="1.0" encoding="utf-8"?>
<svg version="1.1" xmlns:xlink="http://www.w3.org/1999/xlink" width="12px" height="12px" viewBox="31 222  12 12" xmlns="http://www.w3.org/2000/svg">
  <path d="M 37 222  C 40.36 222  43 224.64  43 228  C 43 231.36  40.36 234  37 234  C 33.64 234  31 231.36  31 228  C 31 224.64  33.64 222  37 222  Z " fill-rule="nonzero" fill="#f0f0f0" stroke="none" />
  <path d="M 37 222.5  C 40.08 222.5  42.5 224.92  42.5 228  C 42.5 231.08  40.08 233.5  37 233.5  C 33.92 233.5  31.5 231.08  31.5 228  C 31.5 224.92  33.92 222.5  37 222.5  Z " stroke-width="1" stroke="#797979" fill="none" />
  <path d="M 37 231  C 35.32 231  34 229.68  34 228  C 34 226.32  35.32 225  37 225  C 38.68 225  40 226.32  40 228  C 40 229.68  38.68 231  37 231  " fill-rule="nonzero" fill="#797979" stroke="none" />
</svg>