<?xml version="1.0" encoding="utf-8"?>
<svg version="1.1" xmlns:xlink="http://www.w3.org/1999/xlink" width="12px" height="12px" viewBox="31 132  12 12" xmlns="http://www.w3.org/2000/svg">
  <path d="M 37 132  C 40.36 132  43 134.64  43 138  C 43 141.36  40.36 144  37 144  C 33.64 144  31 141.36  31 138  C 31 134.64  33.64 132  37 132  Z " fill-rule="nonzero" fill="#ffffff" stroke="none" />
  <path d="M 37 132.5  C 40.08 132.5  42.5 134.92  42.5 138  C 42.5 141.08  40.08 143.5  37 143.5  C 33.92 143.5  31.5 141.08  31.5 138  C 31.5 134.92  33.92 132.5  37 132.5  Z " stroke-width="1" stroke="#797979" fill="none" />
  <path d="M 37 141  C 35.32 141  34 139.68  34 138  C 34 136.32  35.32 135  37 135  C 38.68 135  40 136.32  40 138  C 40 139.68  38.68 141  37 141  " fill-rule="nonzero" fill="#797979" stroke="none" />
</svg>