<?xml version="1.0" encoding="utf-8"?>
<svg version="1.1" xmlns:xlink="http://www.w3.org/1999/xlink" width="12px" height="12px" xmlns="http://www.w3.org/2000/svg">
  <g transform="matrix(1 0 0 1 -121 -373 )">
    <path d="M 127 373  C 130.36 373  133 375.64  133 379  C 133 382.36  130.36 385  127 385  C 123.64 385  121 382.36  121 379  C 121 375.64  123.64 373  127 373  Z " fill-rule="nonzero" fill="#ffffff" stroke="none" />
    <path d="M 127 373.5  C 130.08 373.5  132.5 375.92  132.5 379  C 132.5 382.08  130.08 384.5  127 384.5  C 123.92 384.5  121.5 382.08  121.5 379  C 121.5 375.92  123.92 373.5  127 373.5  Z " stroke-width="1" stroke="#dcdfe6" fill="none" />
  </g>
</svg>