<?xml version="1.0" encoding="utf-8"?>
<svg version="1.1" xmlns:xlink="http://www.w3.org/1999/xlink" width="12px" height="12px" xmlns="http://www.w3.org/2000/svg">
  <g transform="matrix(1 0 0 1 -209 -373 )">
    <path d="M 215 373  C 218.36 373  221 375.64  221 379  C 221 382.36  218.36 385  215 385  C 211.64 385  209 382.36  209 379  C 209 375.64  211.64 373  215 373  Z " fill-rule="nonzero" fill="#ffffff" stroke="none" />
    <path d="M 215 373.5  C 218.08 373.5  220.5 375.92  220.5 379  C 220.5 382.08  218.08 384.5  215 384.5  C 211.92 384.5  209.5 382.08  209.5 379  C 209.5 375.92  211.92 373.5  215 373.5  Z " stroke-width="1" stroke="#409eff" fill="none" />
  </g>
</svg>