<?xml version="1.0" encoding="utf-8"?>
<svg version="1.1" xmlns:xlink="http://www.w3.org/1999/xlink" width="12px" height="12px" xmlns="http://www.w3.org/2000/svg">
  <g transform="matrix(1 0 0 1 -209 -373 )">
    <path d="M 215 375  C 217.24 375  219 376.76  219 379  C 219 381.24  217.24 383  215 383  C 212.76 383  211 381.24  211 379  C 211 376.76  212.76 375  215 375  Z " fill-rule="nonzero" fill="#ffffff" stroke="none" />
    <path d="M 215 374.5  C 217.52 374.5  219.5 376.48  219.5 379  C 219.5 381.52  217.52 383.5  215 383.5  C 212.48 383.5  210.5 381.52  210.5 379  C 210.5 376.48  212.48 374.5  215 374.5  Z " stroke-width="3" stroke="#409eff" fill="none" />
  </g>
</svg>