<svg t="1604227844090" class="icon" viewBox="0 0 1024 1024" version="1.1" xmlns="http://www.w3.org/2000/svg" p-id="3039" width="200" height="200"><path d="M591.489386 511.634296l416.902374-416.829233a55.074998 55.074998 0 0 0 0-76.797806l-2.413645-2.413645a55.074998 55.074998 0 0 0-76.797806 0l-416.902374 417.633782-416.902374-417.633782a55.074998 55.074998 0 0 0-76.797806 0L16.23725 18.007257a53.612183 53.612183 0 0 0 0 76.797806l416.902375 416.829233-416.902375 417.560641a55.074998 55.074998 0 0 0 0 76.797806l2.340505 2.413645a55.074998 55.074998 0 0 0 76.797806 0l416.902374-416.829233 416.902374 416.829233a55.074998 55.074998 0 0 0 76.797806 0l2.413645-2.413645a55.074998 55.074998 0 0 0 0-76.797806l-416.902374-417.633782z" p-id="3040" fill="#8a8a8a"></path></svg>