<?xml version="1.0" encoding="utf-8"?>
<svg version="1.1" xmlns:xlink="http://www.w3.org/1999/xlink" width="13px" height="12px" xmlns="http://www.w3.org/2000/svg">
  <g transform="matrix(1 0 0 1 -666 -90 )">
    <path d="M 10.2735763900638 4.71547497048625  C 10.2735763900638 5.77245444182962  9.91446419304417 6.79807333118808  9.25511437081652 7.6241867704707  L 12.0182841491739 10.3873565488281  L 11.2860441672046 11.1202873351873  L 8.52287437798271 8.35711755670509  C 7.696205278041 9.01818790458844  6.66921489621919 9.37832397283015  5.61072738771988 9.37832397283015  C 3.03550699296162 9.37832397283015  0.947878385375985 7.29069536524451  0.947878385375985 4.71547497048625  C 0.947878385375985 2.14025457572798  3.03550699296162 0.0526259681423455  5.61072738771988 0.0526259681423455  C 8.18594778247815 0.0526259681423455  10.2735763900638 2.14025457572798  10.2735763900638 4.71547497048625  Z M 5.60980264112392 8.34261090853026  C 7.61275183874059 8.34261090853026  9.23646297934678 6.71889976792407  9.23646297934678 4.7159505703074  C 9.23646297934678 2.71300137269072  7.61275183874059 1.08929023208453  5.60980264112392 1.08929023208453  C 3.60685344350725 1.08929023208453  1.98314230290106 2.71300137269072  1.98314230290106 4.7159505703074  C 1.98314230290106 6.71889976792407  3.60685344350725 8.34261090853026  5.60980264112392 8.34261090853026  Z " fill-rule="nonzero" fill="#d7d7d7" stroke="none" transform="matrix(1 0 0 1 666 90 )" />
  </g>
</svg>