<?xml version="1.0" encoding="utf-8"?>
<svg version="1.1" xmlns:xlink="http://www.w3.org/1999/xlink" width="10px" height="10px" xmlns="http://www.w3.org/2000/svg">
  <g transform="matrix(1 0 0 1 -1060 -161 )">
    <path d="M 0.03125 4.04166666308594  C 0.03125 1.82677082617187  1.82677083691406 0.03125  4.04166666308594 0.03125  C 6.2565625 0.03125  8.05208332617187 1.82677083691406  8.05208333691406 4.04166666308594  C 8.05208333691406 4.98377082617188  7.727125 5.85025  7.1833125 6.53477083691406  L 8.94904166308594 8.30095833691406  C 9.03157303362664 8.38640955689716  9.07770089091877 8.50056798279367  9.07770089091877 8.6193675540047  C 9.07770089091877 8.8724980663214  8.8724980663214 9.07770089091877  8.6193675540047 9.07770089091877  C 8.50056798279366 9.07770089091877  8.38640955689716 9.03157303362664  8.30095833691406 8.94904166308594  L 6.53477083691406 7.1833125  C 5.82626440294797 7.74717740087583  4.94716262461644 8.05351758341262  4.04166666308594 8.05208333691406  C 1.82677082617187 8.05208333691406  0.03125 6.2565625  0.03125 4.04166666308594  Z M 7.36458333691406 4.04166666308594  C 7.36458333691406 2.20649998925781  5.87683333691406 0.71875  4.04166666308594 0.71875  C 2.2065 0.71875  0.71875 2.2065  0.71875 4.04166666308594  C 0.71875 5.87683332617187  2.2065 7.36458333691406  4.04166666308594 7.36458333691406  C 5.87683332617187 7.36458333691406  7.36458333691406 5.87683333691406  7.36458333691406 4.04166666308594  Z " fill-rule="nonzero" fill="#999999" stroke="none" transform="matrix(1 0 0 1 1060 161 )" />
  </g>
</svg>