<?xml version="1.0" encoding="utf-8"?>
<svg version="1.1" xmlns:xlink="http://www.w3.org/1999/xlink" width="22px" height="22px" xmlns="http://www.w3.org/2000/svg">
  <g transform="matrix(1 0 0 1 -1125 -259 )">
    <path d="M 5.60385946688106 21.4443469764871  C 5.19381450378502 21.4443469764871  4.78674712188039 21.2797187100707  4.46051738638604 21.0342774051583  C 3.8888217377465 20.5434194035661  3.56256739433796 19.7263070579283  3.64340504074825 18.9900077514238  L 4.54133042488214 14.1681713265558  L 1.10825277718885 10.8997219452788  C 0.536606345014815 10.3280755131048  0.455768698285963 9.42714793986531  0.536606345014815 8.77463925272967  C 0.782023042013064 7.87671386891434  1.43450712059738 7.30206524731614  2.17080642742053 7.22125220913861  L 6.91182981379243 6.32330221740909  L 9.03691250666015 1.74690709713497  C 9.52779511680361 1.01063239854459  10.1802791950694 0.603540408725761  10.9973915403886 0.603540408407199  C 11.8145038853893 0.603540408407199  12.4699901537163 1.013609979736  12.8770329273882 1.74690709713497  L 15.0021156199374 6.32332682500472  L 19.7431636142235 7.14043917064252  C 20.4794383128138 7.30506743705887  21.1319469996309 7.8767138692329  21.3773883048619 8.61301317605604  C 21.6228050018602 9.34931248287918  21.4581767351253 10.0856117893838  20.9673187335331 10.7380958682866  L 17.4534772634907 14.1681713265558  L 18.2705896088099 18.9900077514238  C 18.3514026469875 19.8071200964244  18.1059613423936 20.5434194035661  17.4534772641278 21.0342774048397  C 17.0434323010318 21.2797187100707  16.7171779573047 21.4443469761685  16.2263199550754 21.4443469764871  C 15.8162503837466 21.4443469764871  15.4092076100748 21.2797187100707  15.3283699636645 21.1989056715746  L 10.9974161479842 18.9091947126091  L 6.58262249678812 21.1150904436544  C 6.25636815337958 21.3605317488854  5.93013841788524 21.4443469768056  5.60388407511382 21.4443469764871  Z M 10.9973915403886 1.82772013563106  C 10.6711371969801 1.82772013563106  10.4256958917491 1.99234840204742  10.2610922332469 2.31857813754176  L 7.80975519760776 7.3858804752364  L 2.41624773265154 8.44840951755388  C 1.92536512250808 8.52922255573141  1.84455208401199 8.85845448064992  1.76373904551589 9.1008935961382  C 1.76373904551589 9.34633490136921  1.76373904551589 9.83716829472858  2.0091803507469 10.0826342081923  L 5.9301138102896 13.8419169825101  L 4.86756016005792 19.1546360178401  C 4.78674712188039 19.4808903612487  4.94837319823545 19.807120096743  5.19381450346646 20.0525614013369  C 5.43923120046471 20.2171896677532  5.76548554387325 20.2171896677532  6.01092684878569 20.0525614013369  L 10.913600920064 17.5174337456917  L 15.8162257755139 20.0525614013369  C 15.8970388136914 20.1333744395144  16.0616670807449 20.1333744395144  16.2262953468427 20.1333744401515  C 16.3909236129405 20.1333744407887  16.552525082337 20.1333744401515  16.7171533487534 19.9687461727795  C 16.9625946539844 19.8041179063632  17.0434076921619 19.3970751323727  17.0434076921619 19.0708207899199  L 16.0616424721936 13.5934980967248  L 19.9855781217975 9.75340228327384  C 20.1502063882139 9.50796097804284  20.2309948187958 9.1817066346343  20.1502063878953 8.77166167121969  C 20.069368741485 8.44540732781115  19.7401368165665 8.19996602258015  19.4976977013968 8.11915298472118  L 14.104190236122 7.14046377887527  L 11.6528778083971 2.07316144054351  C 11.5690625804768 1.99237301028017  11.3236212752458 1.82774474354526  10.9973915397515 1.82774474386382  Z " fill-rule="nonzero" fill="#aaaaaa" stroke="none" transform="matrix(1 0 0 1 1125 259 )" />
  </g>
</svg>