<?xml version="1.0" encoding="utf-8"?>
<svg version="1.1" xmlns:xlink="http://www.w3.org/1999/xlink" width="13px" height="12px" xmlns="http://www.w3.org/2000/svg">
  <g transform="matrix(1 0 0 1 -28 -267 )">
    <path d="M 12.0224609375 10.4658203125  C 12.021895850837 10.9671727950761  11.6156102950761 11.373458350837  11.1142578125 11.3740234375  L 1.8857421875 11.3740234375  C 1.38438970492394 11.373458350837  0.97810414916301 10.9671727950761  0.9775390625 10.4658203125  L 0.9775390625 1.2373046875  C 0.97810414916301 0.735952204923939  1.38438970492394 0.32966664916301  1.8857421875 0.3291015625  L 11.1142578125 0.3291015625  C 11.6156102950761 0.32966664916301  12.021895850837 0.735952204923939  12.0224609375 1.2373046875  L 12.0224609375 10.4658203125  Z M 11.1142578125 0.6806640625  L 1.8857421875 0.6806640625  C 1.57831805917622 0.6806640625  1.3291015625 0.929880559176219  1.3291015625 1.2373046875  L 1.3291015625 10.4658203125  C 1.3291015625 10.7732444408238  1.57831805917622 11.0224609375  1.8857421875 11.0224609375  L 11.1142578125 11.0224609375  C 11.4216819408238 11.0224609375  11.6708984375 10.7732444408238  11.6708984375 10.4658203125  L 11.6708984375 1.2373046875  C 11.6708984375 0.929880559176219  11.4216819408238 0.6806640625  11.1142578125 0.6806640625  Z " fill-rule="nonzero" fill="#000000" stroke="none" transform="matrix(1 0 0 1 28 267 )" />
  </g>
</svg>