<?xml version="1.0" encoding="utf-8"?>
<svg version="1.1" xmlns:xlink="http://www.w3.org/1999/xlink" width="101px" height="28px" xmlns="http://www.w3.org/2000/svg">
  <defs>
    <mask fill="white" id="clip82">
      <path d="M 0 24  L 0 4  C 0 1.76000000000001  1.39968503937007 0  3.18110236220472 0  L 97.8188976377953 0  C 99.6003149606299 0  101 1.76000000000001  101 4  L 101 24  C 101 26.24  99.6003149606299 28  97.8188976377953 28  L 61.6338582677165 28  L 3.18110236220472 28  C 1.39968503937007 28  0 26.24  0 24  Z " fill-rule="evenodd" />
    </mask>
  </defs>
  <g transform="matrix(1 0 0 1 -439 -109 )">
    <path d="M 0 24  L 0 4  C 0 1.76000000000001  1.39968503937007 0  3.18110236220472 0  L 97.8188976377953 0  C 99.6003149606299 0  101 1.76000000000001  101 4  L 101 24  C 101 26.24  99.6003149606299 28  97.8188976377953 28  L 61.6338582677165 28  L 3.18110236220472 28  C 1.39968503937007 28  0 26.24  0 24  Z " fill-rule="nonzero" fill="#f5f7fa" stroke="none" transform="matrix(1 0 0 1 439 109 )" />
    <path d="M 0 24  L 0 4  C 0 1.76000000000001  1.39968503937007 0  3.18110236220472 0  L 97.8188976377953 0  C 99.6003149606299 0  101 1.76000000000001  101 4  L 101 24  C 101 26.24  99.6003149606299 28  97.8188976377953 28  L 61.6338582677165 28  L 3.18110236220472 28  C 1.39968503937007 28  0 26.24  0 24  Z " stroke-width="2" stroke="#dcdfe6" fill="none" transform="matrix(1 0 0 1 439 109 )" mask="url(#clip82)" />
  </g>
</svg>