<?xml version="1.0" encoding="utf-8"?>
<svg version="1.1" xmlns:xlink="http://www.w3.org/1999/xlink" width="109px" height="28px" xmlns="http://www.w3.org/2000/svg">
  <defs>
    <mask fill="white" id="clip75">
      <path d="M 0 24  L 0 4  C 0 1.76  1.82704761904762 0  4.15238095238095 0  L 71.9746031746032 0  L 104.847619047619 0  C 107.172952380952 0  109 1.76  109 4  L 109 24  C 109 26.24  107.172952380952 28  104.847619047619 28  L 4.15238095238095 28  C 1.82704761904762 28  0 26.24  0 24  Z " fill-rule="evenodd" />
    </mask>
  </defs>
  <g transform="matrix(1 0 0 1 -684 -36 )">
    <path d="M 0 24  L 0 4  C 0 1.76  1.82704761904762 0  4.15238095238095 0  L 71.9746031746032 0  L 104.847619047619 0  C 107.172952380952 0  109 1.76  109 4  L 109 24  C 109 26.24  107.172952380952 28  104.847619047619 28  L 4.15238095238095 28  C 1.82704761904762 28  0 26.24  0 24  Z " fill-rule="nonzero" fill="#f5f7fa" stroke="none" transform="matrix(1 0 0 1 684 36 )" />
    <path d="M 0 24  L 0 4  C 0 1.76  1.82704761904762 0  4.15238095238095 0  L 71.9746031746032 0  L 104.847619047619 0  C 107.172952380952 0  109 1.76  109 4  L 109 24  C 109 26.24  107.172952380952 28  104.847619047619 28  L 4.15238095238095 28  C 1.82704761904762 28  0 26.24  0 24  Z " stroke-width="2" stroke="#dcdfe6" fill="none" transform="matrix(1 0 0 1 684 36 )" mask="url(#clip75)" />
  </g>
</svg>