<?xml version="1.0" encoding="utf-8"?>
<svg version="1.1" xmlns:xlink="http://www.w3.org/1999/xlink" width="32px" height="30px" xmlns="http://www.w3.org/2000/svg">
  <g transform="matrix(1 0 0 1 -1079 -27 )">
    <path d="M 32 1.82945737827035  C 32 0.937984523982558  31.111111125 0.0465116383539247  30.22222221875 0.0465116383539244  L 26.66666665625 0.0465116383539244  L 26.66666665625 1.4728682240189  C 26.66666665625 3.43410854106105  25.06666665625 5.03875970385174  23.111111125 5.03875970385174  C 21.15555559375 5.03875970385174  19.5555555625 3.43410854106105  19.5555555625 1.4728682240189  L 19.5555555625 0.0465116383539244  L 12.4444444375 0.0465116383539244  L 12.4444444375 1.4728682240189  C 12.4444444375 3.43410854106105  10.8444444375 5.03875970385174  8.888888875 5.03875970385174  C 6.9333333125 5.03875970385174  5.3333333125 3.43410854106105  5.33333334375 1.4728682240189  L 5.33333334375 0.0465116383539244  L 1.77777778125 0.0465116383539244  C 0.88888890625 0.0465116383539244  0 0.759689946856831  0 1.82945737827035  L 0 28.2170542600836  C 0 29.1085271143714  0.888888875 30  1.77777778125 30  L 30.22222221875 30  C 31.11111109375 30  32 29.1085271457122  32 28.2170542600836  L 32 1.82945737827035  Z M 30 7  L 30 28  L 2 28  L 2 7  L 30 7  Z " fill-rule="nonzero" fill="#cccccc" stroke="none" transform="matrix(1 0 0 1 1079 27 )" />
  </g>
</svg>