<?xml version="1.0" encoding="utf-8"?>
<svg version="1.1" xmlns:xlink="http://www.w3.org/1999/xlink" width="22px" height="27px" xmlns="http://www.w3.org/2000/svg">
  <g transform="matrix(1 0 0 1 -1084 -25 )">
    <path d="M 2.21527779150391 3.5384615453726  C 2.21527779150391 4.59999999654447  2.91805558300781 5.30769231805889  3.79652779150391 5.30769231805889  L 3.97222220849609 5.30769231805889  C 5.02638886486816 5.30769231805889  5.72916665637207 4.59999999654447  5.72916665637207 3.7153846257512  L 5.72916665637207 1.59230769230769  C 5.72916665637207 0.707692321514423  5.02638886486816 0  4.14791665637207 0  L 3.79652779150391 0  C 2.91805558300781 0  2.21527779150391 0.707692321514423  2.21527779150391 1.59230769230769  L 2.21527779150391 3.5384615453726  Z M 16.2708333436279 3.5384615453726  C 16.2708333436279 4.59999999654447  16.9736111351318 5.30769231805889  17.8520833436279 5.30769231805889  L 18.0277777915039 5.30769231805889  C 19.081944447876 5.30769231805889  19.7847222393799 4.59999999654447  19.7847222084961 3.7153846257512  L 19.7847222084961 1.59230769230769  C 19.7847222084961 0.707692321514423  19.0819444169922 0  18.2034722084961 0  L 18.0277777915039 0  C 16.9736111351318 0  16.2708333436279 0.707692321514423  16.2708333436279 1.59230769230769  L 16.2708333436279 3.5384615453726  Z M 0.458333343627929 15.9230769230769  L 0.458333343627929 12.3846153777043  L 3.97222220849609 12.3846153777043  L 3.97222220849609 15.9230769230769  L 0.458333343627929 15.9230769230769  Z M 9.24305555212402 15.9230769230769  L 9.24305555212402 12.3846153777043  L 12.756944447876 12.3846153777043  L 12.756944447876 15.9230769230769  L 9.24305555212402 15.9230769230769  Z M 18.0277777915039 15.9230769230769  L 18.0277777915039 12.3846153777043  L 21.5416666563721 12.3846153777043  L 21.5416666563721 15.9230769230769  L 18.0277777915039 15.9230769230769  Z M 0.458333343627929 21.2307692411358  L 0.458333343627929 17.6923076957632  L 3.97222220849609 17.6923076957632  L 3.97222220849609 21.2307692411358  L 0.458333343627929 21.2307692411358  Z M 9.24305555212402 21.2307692411358  L 9.24305555212402 17.6923076957632  L 12.756944447876 17.6923076957632  L 12.756944447876 21.2307692411358  L 9.24305555212402 21.2307692411358  Z M 18.0277777915039 21.2307692411358  L 18.0277777915039 17.6923076957632  L 21.5416666563721 17.6923076957632  L 21.5416666563721 21.2307692411358  L 18.0277777915039 21.2307692411358  Z M 0.458333343627929 26.538461528095  L 0.458333343627929 23.0000000138221  L 3.97222220849609 23.0000000138221  L 3.97222220849609 26.538461528095  L 0.458333343627929 26.538461528095  Z M 9.24305555212402 26.538461528095  L 9.24305555212402 23.0000000138221  L 12.756944447876 23.0000000138221  L 12.756944447876 26.538461528095  L 9.24305555212402 26.538461528095  Z M 18.0277777915039 26.538461528095  L 18.0277777915039 23.0000000138221  L 21.5416666563721 23.0000000138221  L 21.5416666563721 26.538461528095  L 18.0277777915039 26.538461528095  Z " fill-rule="nonzero" fill="#cccccc" stroke="none" transform="matrix(1 0 0 1 1084 25 )" />
  </g>
</svg>