<?xml version="1.0" encoding="utf-8"?>
<svg version="1.1" xmlns:xlink="http://www.w3.org/1999/xlink" width="10px" height="10px" xmlns="http://www.w3.org/2000/svg">
  <g transform="matrix(1 0 0 1 -939 -132 )">
    <path d="M 9.66666666992187 0.833333330078125  C 9.66666666992187 0.55  9.5 0.333333330078125  9.25 0.333333330078125  L 0.85 0.333333330078125  C 0.583333330078125 0.333333330078125  0.333333330078125 0.566666669921875  0.333333330078125 0.833333330078125  L 0.333333330078125 9.1  C 0.333333330078125 9.36666666992187  0.583333330078125 9.66666666992188  0.85 9.66666666992188  L 9.25 9.66666666992188  C 9.5 9.66666666992188  9.66666666992187 9.41666666992188  9.66666666992187 9.1  L 9.66666666992187 0.833333330078125  Z M 9.06666666992187 9.05  C 9.05 9.05  0.966666669921874 9.05  0.966666669921875 9.03333333007813  L 0.95 0.983333330078125  L 9.08333333007812 0.966666669921875  L 9.08333333007812 1.26666666992187  C 9.05 1.28333333984375  9.01666666015625 1.3  9 1.33333333007812  L 4.55 5.7  L 2.4 3.58333333007812  C 2.28333333007813 3.46666666015625  2.08333333007812 3.46666666015625  1.96666666992187 3.58333333007812  C 1.85 3.7  1.85 3.9  1.96666666992187 4.01666666992188  L 4.33333333007813 6.33333333007812  L 4.35 6.35  C 4.36666666992187 6.35  4.36666666992187 6.36666666992188  4.38333333007813 6.36666666992188  L 4.4 6.38333333007813  C 4.41666666992187 6.38333333007813  4.41666666992187 6.4  4.43333333007813 6.4  C 4.44999999023438 6.4  4.45 6.4  4.46666666992188 6.41666666992188  L 4.65 6.41666666992188  C 4.66666666992188 6.41666666992188  4.66666666992188 6.41666666992188  4.68333333007813 6.4  C 4.68333333007813 6.4  4.7 6.4  4.7 6.38333333007813  C 4.71666666992188 6.38333333007813  4.71666666992188 6.36666666015625  4.73333333007813 6.36666666992188  C 4.74999999023438 6.3666666796875  4.75 6.35  4.75 6.35  L 4.76666666992188 6.33333333007812  L 9.08333333007812 2.08333333007812  L 9.06666666992187 9.05  Z " fill-rule="nonzero" fill="#1296db" stroke="none" transform="matrix(1 0 0 1 939 132 )" />
  </g>
</svg>