<?xml version="1.0" encoding="utf-8"?>
<svg version="1.1" xmlns:xlink="http://www.w3.org/1999/xlink" width="11px" height="11px" xmlns="http://www.w3.org/2000/svg">
  <g transform="matrix(1 0 0 1 -588 -181 )">
    <path d="M 9.635419921875 0.1780625  L 1.285861328125 0.1780625  C 0.6271826171875 0.1780625  0.0930703125 0.7115732421875  0.0930703125 1.370853515625  L 0.0930703125 9.720390625  C 0.0930703125 10.3785107421875  0.6271826171875 10.9131923828125  1.285861328125 10.9131923828125  L 9.635419921875 10.9131923828125  C 10.29406640625 10.9131923828125  10.828189453125 10.3785107421875  10.828189453125 9.7203798828125  L 10.828189453125 1.3708642578125  C 10.8282001953125 0.711583984375  10.2940771484375 0.1780732421875  9.6354306640625 0.1780732421875  Z M 9.4222412109375 2.7290419921875  C 9.6797099609375 2.987681640625  9.6797099609375 3.403490234375  9.4222412109375 3.66089453125  L 4.7692626953125 8.313271484375  C 4.6437939453125 8.439341796875  4.48048046875 8.5037841796875  4.3162861328125 8.50691015625  C 4.1544013671875 8.52014453125  3.98797265625 8.465015625  3.8641904296875 8.3412333984375  L 1.4349736328125 5.9125751953125  C 1.211890625 5.6889228515625  1.211890625 5.326599609375  1.4349736328125 5.102947265625  C 1.6586259765625 4.8793056640625  2.0214326171875 4.8793056640625  2.2450849609375 5.102947265625  L 4.181955078125 7.040279296875  L 8.491505859375 2.7290419921875  C 8.7489423828125 2.4727978515625  9.165341796875 2.4727978515625  9.4222412109375 2.7290419921875  Z " fill-rule="nonzero" fill="#dbdbdb" stroke="none" transform="matrix(1 0 0 1 588 181 )" />
  </g>
</svg>