<?xml version="1.0" encoding="utf-8"?>
<svg version="1.1" xmlns:xlink="http://www.w3.org/1999/xlink" width="13px" height="13px" xmlns="http://www.w3.org/2000/svg">
  <g transform="matrix(1 0 0 1 -165 -131 )">
    <path d="M 10.1399063063063 2.89416696306306  L 10.1399063063063 10.8443891891892  C 10.1399063063063 11.2581405405405  9.78511952342342 11.5939387387387  9.34838198198198 11.5939387387387  L 3.64381020630631 11.5939387387387  C 3.20707266486487 11.5939387387387  2.85228588198198 11.2581405405405  2.85228588198198 10.8443891891892  L 2.85228588198198 2.89416696306306  L 10.1399063063063 2.89416696306306  Z M 4.43533453063063 1.54997477477477  C 4.43533453063063 1.46402642252252  4.50629189189189 1.39706666666667  4.59823664054054 1.39706666666667  L 8.40394954954955 1.39706666666667  C 8.4958942981982 1.39706666666667  8.56685164774775 1.46402642252252  8.56685164774775 1.54997477477477  L 8.56685164774775 2.0027027027027  L 4.43533453063063 2.0027027027027  L 4.43533453063063 1.55097417027027  Z M 12.9921921882883 2.44343783783784  C 12.9921921882883 2.19358799189189  12.7793201162162 2.00170330720721  12.5154786747748 2.00170330720721  L 9.51028468468469 2.00170330720721  L 9.51028468468469 1.54997477477477  C 9.51028468468469 0.974320720720721  9.01458258648649 0.503603603603604  8.40494894504504 0.503603603603604  L 4.59823664054054 0.503603603603604  C 3.98860301081081 0.503603603603604  3.49190150540541 0.973321325225225  3.49190150540541 1.54997477477477  L 3.49190150540541 2.0027027027027  L 0.476713513513513 2.0027027027027  C 0.220947697119053 1.99542056097749  0.00761655417635037 2.19667635620645  0 2.45243243243243  C 0 2.70228227837838  0.212872072072072 2.90416096486486  0.476713513513513 2.90416096486486  L 1.89885885495495 2.90416096486486  L 1.89885885495495 10.8443891891892  C 1.89885885495495 11.7568408369369  2.67938979369369 12.4963963963964  3.64381020630631 12.4963963963964  L 9.34838198198198 12.4963963963964  C 10.3128024063063 12.4963963963964  11.0943327288288 11.7568408369369  11.0943327288288 10.8443891891892  L 11.0943327288288 2.89416696306306  L 12.5154786747748 2.89416696306306  C 12.5198672422918 2.89429164239153  12.5242573591506 2.89435399148577  12.5286476973821 2.89435399148577  C 12.7797667306613 2.89435399148577  12.9852578030605 2.69446111001912  12.9921921882883 2.44343783783784  Z M 6.4960961 10.2397525486486  C 6.50048466751709 10.2398772279771  6.50487478437578 10.2399395770714  6.50926512260728 10.2399395770714  C 6.7603841558865 10.2399395770714  6.96587522828569 10.0400466956047  6.97280961351351 9.78902342342342  L 6.97280961351351 4.98790871261261  C 6.96640615078939 4.73648319196794  6.76074566292599 4.53599390417156  6.50923861179957 4.53599390417156  C 6.50485711450721 4.53599390417156  6.50047583725291 4.53605600241062  6.4960961 4.53618018018018  C 6.49171636274708 4.53605600241062  6.4873350854928 4.53599390417156  6.48295358820042 4.53599390417156  C 6.23144653707401 4.53599390417156  6.02578604921061 4.73648319196794  6.01938258648649 4.98790871261261  L 6.01938258648649 9.78802402792793  C 6.01938258648649 10.0378738738739  6.23225465855856 10.2387531531532  6.4960961 10.2387531531532  Z M 4.27343182792793 10.2397525486486  C 4.27782039544502 10.2398772279771  4.28221051230371 10.2399395770714  4.28660085053521 10.2399395770714  C 4.53771988381442 10.2399395770714  4.74321095621362 10.0400466956047  4.75014534144144 9.78902342342342  L 4.75014534144144 4.98790871261261  C 4.74374187871732 4.73648319196794  4.53808139085392 4.53599390417156  4.2865743397275 4.53599390417156  C 4.28219284243514 4.53599390417156  4.27781156518084 4.53605600241062  4.27343182792793 4.53618018018018  C 4.26871947841734 4.5360364104425  4.26400521039854 4.53596451303441  4.25929066825243 4.53596451303441  C 4.0077721952355 4.53596451303441  3.80210673094768 4.73647136827758  3.79571891891892 4.98790871261261  L 3.79571891891892 9.78802402792793  C 3.80571290900901 10.0378738738739  4.01958438828829 10.2387531531532  4.27343182792793 10.2387531531532  Z M 8.71876036036036 10.2397525486486  C 8.72348151747415 10.239896856722  8.72820460388279 10.239969023392  8.73292796596008 10.239969023392  C 8.98405843821938 10.239969023392  9.1895545150602 10.0400585702375  9.19647326936937 9.78902342342342  L 9.19647326936937 4.98790871261261  C 9.1900854573406 4.73647136827758  8.98441999305279 4.53596451303441  8.73290152003585 4.53596451303441  C 8.72818697788978 4.53596451303441  8.72347270987091 4.5360364104425  8.71876036036036 4.53618018018018  C 8.71438062310743 4.53605600241062  8.70999934585316 4.53599390417156  8.70561784856078 4.53599390417156  C 8.45411079743437 4.53599390417156  8.24845030957097 4.73648319196794  8.24204684684684 4.98790871261261  L 8.24204684684684 9.78802402792793  C 8.24204684684684 10.0378738738739  8.45491891891892 10.2387531531532  8.71876036036036 10.2387531531532  Z " fill-rule="nonzero" fill="#ff1010" stroke="none" transform="matrix(1 0 0 1 165 131 )" />
  </g>
</svg>