<?xml version="1.0" encoding="utf-8"?>
<svg version="1.1" xmlns:xlink="http://www.w3.org/1999/xlink" width="13px" height="13px" xmlns="http://www.w3.org/2000/svg">
  <g transform="matrix(1 0 0 1 -780 -283 )">
    <path d="M 11.23154296875 12.57724609375  L 1.73291015625 12.59375  C 0.98896484375 12.59375  0.40625 12.03134765625  0.40625 11.31279296875  L 0.40625 1.68720703125  C 0.40625 0.96865234375  0.98896484375 0.40625  1.73291015625 0.40625  L 11.26708984375 0.40625  C 12.01103515625 0.40625  12.59375 0.96865234375  12.59375 1.68720703125  L 12.59375 11.3140625  C 12.59375 11.664453125  12.446484375 11.9869140625  12.1798828125 12.2255859375  C 11.9259765625 12.45283203125  11.58828125 12.57724609375  11.23154296875 12.57724609375  Z M 11.268359375 0.94072265625  L 1.73291015625 0.94072265625  C 1.28857421875 0.94072265625  0.94072265625 1.26826171875  0.94072265625 1.68720703125  L 0.94072265625 11.3140625  C 0.94072265625 11.73935546875  1.28095703125 12.060546875  1.73291015625 12.060546875  L 11.23154296875 12.0427734375  C 11.69619140625 12.0427734375  12.060546875 11.7228515625  12.060546875 11.3140625  L 12.060546875 1.68720703125  C 12.060546875 1.2619140625  11.7203125 0.94072265625  11.268359375 0.94072265625  Z " fill-rule="nonzero" fill="#7f7f7f" stroke="none" transform="matrix(1 0 0 1 780 283 )" />
  </g>
</svg>