<?xml version="1.0" encoding="utf-8"?>
<svg version="1.1" xmlns:xlink="http://www.w3.org/1999/xlink" width="10px" height="9px" xmlns="http://www.w3.org/2000/svg">
  <g transform="matrix(1 0 0 1 -1082 -219 )">
    <path d="M 8.57000670479911 4.59957113519304  C 9.52580486381632 5.6077667865123  9.52580486381632 7.23749332924648  8.57000670479911 8.24568898056573  C 7.61012254087198 9.2505765361362  6.05686166671731 9.2505765361362  5.09697750279018 8.24568898056573  L 4.52537143136161 7.64494015775253  C 4.43438777699916 7.54613181278634  4.38352798518021 7.41406946342369  4.38352798518021 7.27662998434295  C 4.38352798518021 6.98398867645734  4.60946386473137 6.74675602353693  4.88816989645254 6.74675602353693  C 5.01906464980497 6.74675602353693  5.14483832679054 6.80015880030775  5.23894152064732 6.89569162908942  L 5.81054759207589 7.49644045190263  C 6.08184934477457 7.78130726748998  6.44981348563259 7.94134377807855  6.83349210379464 7.94134377807855  C 7.63246146567427 7.94134377807855  8.28015410582242 7.26126656500101  8.28015410582242 6.42234880790382  C 8.28015410582242 6.01948629383016  8.12773836821206 5.63312397949236  7.85643661551339 5.34825716390501  L 7.28429482979911 4.74807084104294  C 7.19331117543665 4.64926249607675  7.14245138361771 4.5172001467141  7.14245138361771 4.37976066763335  C 7.14245138361771 4.08711935974775  7.36838726316886 3.84988670682734  7.64709329489003 3.84988670682734  C 7.77798804824246 3.84988670682734  7.90376172522804 3.90328948359815  7.99786491908482 3.99882231237984  L 8.57000670479911 4.59957113519304  Z M 8.19072170200893 1.90013893219155  L 2.52608946707589 7.84743976223178  C 2.4310088581164 7.95069733353231  2.30007996106252 8.00900341929693  2.16329112199529 8.00900341929693  C 1.88458509027412 8.00900341929693  1.65864921072297 7.77177076637651  1.65864921072297 7.47912945849091  C 1.65864921072297 7.33550119210477  1.71417881937368 7.19802586401514  1.81251936941964 7.09819123356868  L 7.47715160435268 1.15089039473939  C 7.57223220502602 1.04763290555863  7.70316104822447 0.989326872476831  7.83994982530567 0.989326872476831  C 8.11865585702683 0.989326872476831  8.34459173657799 1.22655952539724  8.34459173657799 1.51920083328285  C 8.34459173657799 1.66282903674118  8.28906217643816 1.80030431015714  8.19072170200893 1.90013893219155  Z M 5.10933668252439 2.24584321646834  C 4.98117865515052 2.24584321646834  4.85782135943619 2.19464483376556  4.76429955078125 2.10263852788175  L 4.19215776506696 1.5018897138576  C 3.92216107628396 1.22624704411646  3.56042700065961 1.07203613352602  3.18384592163306 1.07203613352602  C 2.38500697773935 1.07203613352602  1.73742006225806 1.752002335713  1.73742006225806 2.59078315393687  C 1.73742006225806 2.98619325041484  1.88428760731845 3.36601399493409  2.14680445591518 3.64951049311503  L 2.71841052734375 4.2496968159771  C 2.81675107998229 4.34953144671197  2.87228069029625 4.48700677667614  2.87228069029625 4.63063504521981  C 2.87228069029625 4.92327635310541  2.64634481074509 5.16050900602582  2.36763877902392 5.16050900602582  C 2.23084994201147 5.16050900602582  2.09992104674285 5.10220292200759  2.00484043805804 4.99894535342927  L 1.43323436662946 4.39875903056719  C 0.972164531674346 3.91558097396675  0.713062385707561 3.25968331621231  0.713062385707561 2.57569765180269  C 0.713062385707561 1.15318751367752  1.81132182676153 1.52007464296129E-05  3.16609350456917 1.52007464296129E-05  C 3.16722270694725 1.52007464296129E-05  3.16835190918976 1.6019439342019E-05  3.16948111049107 1.76568245820018E-05  C 3.82055051555443 -0.00251958225150899  4.44553932412702 0.268482483485812  4.9051921484375 0.752641176405439  L 5.47733392578125 1.35338999921865  C 5.56511878675886 1.4516190075518  5.61397859379671 1.58126587019967  5.61397859379671 1.71596925566233  C 5.61397859379671 2.00861056354793  5.38804271424556 2.24584321646834  5.10933668252439 2.24584321646834  Z " fill-rule="nonzero" fill="#409eff" stroke="none" transform="matrix(1 0 0 1 1082 219 )" />
  </g>
</svg>