<?xml version="1.0" encoding="utf-8"?>
<svg version="1.1" xmlns:xlink="http://www.w3.org/1999/xlink" width="12px" height="12px" viewBox="1346 44.5  12 12" xmlns="http://www.w3.org/2000/svg">
  <path d="M 1352 44.5  C 1355.36 44.5  1358 47.14  1358 50.5  C 1358 53.86  1355.36 56.5  1352 56.5  C 1348.64 56.5  1346 53.86  1346 50.5  C 1346 47.14  1348.64 44.5  1352 44.5  Z " fill-rule="nonzero" fill="#ffffff" stroke="none" />
  <path d="M 1352 45  C 1355.08 45  1357.5 47.42  1357.5 50.5  C 1357.5 53.58  1355.08 56  1352 56  C 1348.92 56  1346.5 53.58  1346.5 50.5  C 1346.5 47.42  1348.92 45  1352 45  Z " stroke-width="1" stroke="#797979" fill="none" />
  <path d="M 1352 53.5  C 1350.32 53.5  1349 52.18  1349 50.5  C 1349 48.82  1350.32 47.5  1352 47.5  C 1353.68 47.5  1355 48.82  1355 50.5  C 1355 52.18  1353.68 53.5  1352 53.5  " fill-rule="nonzero" fill="#797979" stroke="none" />
</svg>