<?xml version="1.0" encoding="utf-8"?>
<svg version="1.1" xmlns:xlink="http://www.w3.org/1999/xlink" width="11px" height="11px" xmlns="http://www.w3.org/2000/svg">
  <g transform="matrix(1 0 0 1 -838 -233 )">
    <path d="M 0.869402229003906 10.5014589665527  C 0.823621930745915 10.5159264330052  0.775894379767818 10.5232905809353  0.72788247211914 10.5232948329102  C 0.46785918221093 10.523294901283  0.257274250431474 10.3127099695036  0.257274250431474 10.0529402915174  C 0.257274250431474 10.0048741526229  0.264641909427119 9.95709199443963  0.279120567285156 9.91125835859375  L 1.18157244179687 7.04795542050781  C 1.20432101132581 6.97579553017667  1.24411688802882 6.9101770949151  1.29759270522461 6.85665248222656  L 7.92216008095703 0.232085106347657  C 8.10593508361404 0.0483335550163146  8.40386836096604 0.0483335550163146  8.58764336362305 0.232085106347657  L 10.548413373877 2.19293617021484  C 10.7321649252083 2.37671117287185  10.7321649252083 2.67464445022385  10.548413373877 2.85841945288086  L 3.92392705161133 9.48290577514648  C 3.87044253834353 9.53639225420206  3.80484743891541 9.57619084066958  3.73270516708984 9.59892603842773  L 0.869402229003906 10.5014589665527  Z M 2.04450253310547 7.44062816606445  L 1.4483201621582 9.33217831821289  L 3.33987031416016 8.73591489365234  L 9.55026950341797 2.52558054716797  L 8.25498277612305 1.23031003041992  L 2.04451874365234 7.44062816606445  Z " fill-rule="nonzero" fill="#bfbfbf" stroke="none" transform="matrix(1 0 0 1 838 233 )" />
  </g>
</svg>