<?xml version="1.0" encoding="utf-8"?>
<svg version="1.1" xmlns:xlink="http://www.w3.org/1999/xlink" width="12px" height="12px" xmlns="http://www.w3.org/2000/svg">
  <g transform="matrix(1 0 0 1 -838 -234 )">
    <path d="M 10.7742613981445 11.634532928125  L 0.64945491381836 11.634532928125  C 0.416345512026647 11.6342560174455  0.227442057571346 11.4453525629246  0.227165146972656 11.2122431611328  C 0.227343793788502 10.9790641248548  0.416275973740798 10.7900521654446  0.64945491381836 10.7897750760742  L 10.7742613981445 10.7897750760742  C 11.0074155132069 10.7900967253193  11.1963190011821 10.979072728953  11.1965511651367 11.212226950293  C 11.1962831852476 11.4453426828418  11.0073771202346 11.634255999572  10.7742613981445 11.634532928125  Z M 8.53893009121094 3.52603444785156  C 8.42710762898294 3.52636510919172  8.31982870126176 3.48181252675008  8.24113880444336 3.40236271533203  L 6.47215805473633 1.63341438701172  C 6.30748032997717 1.46837836049627  6.30748032997717 1.20118192319513  6.47215805473633 1.03614589667969  C 6.55191489355469 0.956470111474609  6.657900709375 0.912474164160156  6.77077608920898 0.912474164160156  C 6.88365146904297 0.912474164160156  6.98965349541016 0.956389057714843  7.069410334375 1.03616210737305  L 8.83837487338867 2.80502938178711  C 8.91776362070353 2.88415746874063  8.96222690071838 2.9917378281587  8.96186828769531 3.10382573447266  C 8.96202624729795 3.21595559963129  8.91731152609958 3.3234869156177  8.83769402236328 3.4024437690918  C 8.75879530879687 3.48177059822503  8.65146103977466 3.52626850288039  8.53957852084961 3.52603444785156  Z " fill-rule="nonzero" fill="#bfbfbf" stroke="none" transform="matrix(1 0 0 1 838 234 )" />
  </g>
</svg>