<?xml version="1.0" encoding="utf-8"?>
<svg version="1.1" xmlns:xlink="http://www.w3.org/1999/xlink" width="12px" height="12px" viewBox="1445 39.5  12 12" xmlns="http://www.w3.org/2000/svg">
  <path d="M 1451 39.5  C 1454.36 39.5  1457 42.14  1457 45.5  C 1457 48.86  1454.36 51.5  1451 51.5  C 1447.64 51.5  1445 48.86  1445 45.5  C 1445 42.14  1447.64 39.5  1451 39.5  Z " fill-rule="nonzero" fill="#ffffff" stroke="none" />
  <path d="M 1451 40  C 1454.08 40  1456.5 42.42  1456.5 45.5  C 1456.5 48.58  1454.08 51  1451 51  C 1447.92 51  1445.5 48.58  1445.5 45.5  C 1445.5 42.42  1447.92 40  1451 40  Z " stroke-width="1" stroke="#797979" fill="none" />
  <path d="M 1451 48.5  C 1449.32 48.5  1448 47.18  1448 45.5  C 1448 43.82  1449.32 42.5  1451 42.5  C 1452.68 42.5  1454 43.82  1454 45.5  C 1454 47.18  1452.68 48.5  1451 48.5  " fill-rule="nonzero" fill="#797979" stroke="none" />
</svg>