<?xml version="1.0" encoding="utf-8"?>
<svg version="1.1" xmlns:xlink="http://www.w3.org/1999/xlink" width="80px" height="20px" xmlns="http://www.w3.org/2000/svg">
  <g transform="matrix(1 0 0 1 -1492 -121 )">
    <path d="M 1493 124  A 2 2 0 0 1 1495 122 L 1569 122  A 2 2 0 0 1 1571 124 L 1571 138  A 2 2 0 0 1 1569 140 L 1495 140  A 2 2 0 0 1 1493 138 L 1493 124  Z " fill-rule="nonzero" fill="#ffffff" stroke="none" fill-opacity="0" />
    <path d="M 1492.5 124  A 2.5 2.5 0 0 1 1495 121.5 L 1569 121.5  A 2.5 2.5 0 0 1 1571.5 124 L 1571.5 138  A 2.5 2.5 0 0 1 1569 140.5 L 1495 140.5  A 2.5 2.5 0 0 1 1492.5 138 L 1492.5 124  Z " stroke-width="1" stroke="#f59a23" fill="none" stroke-opacity="0.996078431372549" />
  </g>
</svg>