<?xml version="1.0" encoding="utf-8"?>
<svg version="1.1" xmlns:xlink="http://www.w3.org/1999/xlink" width="31px" height="31px" xmlns="http://www.w3.org/2000/svg">
  <g transform="matrix(1 0 0 1 -1337 -87 )">
    <path d="M 23.6771972255859 26.1829444511719  L 23.6789194511719 26.1829444511719  C 23.6789194511719 27.2266111279297  22.8522527744141 28.0722222255859  21.830975 28  L 8.50958609765625 28  C 7.47700678229379 28.0616480333935  6.64939620880255 27.2155433596425  7 26.1829444511719  L 7 6.11388890234375  L 23.6771972255859 6.11388890234375  L 23.6771972255859 26.1829444511719  Z M 10.3592527744141 3.86122222558594  L 10.3592527744141 2.72111109765625  C 10.359187532419 2.71824119098095  10.3591549082614 2.71537063551797  10.3591549082614 2.7124999873607  C 10.3591549082614 2.50324542471611  10.5287892479606 2.33361108501695  10.7380438106052 2.33361108501695  L 19.6248083232422 2.33361109765625  C 19.625415049156 2.33360818289758  19.626021781196 2.33360672551194  19.6266285141111 2.33360672551194  C 19.8358830767557 2.33360672551194  20.0055174164549 2.50324106521111  20.0055174164549 2.71249562785569  C 20.0055174164549 2.71536772960392  20.0054847592496 2.7182397385169  20.0054194511719 2.72111109765625  L 20.0054194511719 3.86122222558594  L 10.3592527744141 3.86122222558594  Z M 29.224475 3.8595  L 29.224475 3.86122222558594  L 22.2098639023438 3.86122222558594  L 22.2098639023438 2.72111109765625  C 22.2098639023438 1.26755554882813  21.0490861279297 0.0792221953125001  19.6265305488281 0.0792222255859375  L 10.7381416767578 0.0792222255859375  C 9.31558612792969 0.0792222255859375  8.15480835351562 1.26755554882812  8.15480832324219 2.72111109765625  L 8.15480832324219 3.86122222558594  L 1.11608609765625 3.86122222558594  C 0.494693453619173 3.8678471136891  -0.00392817601355562 4.37648742199304  0.0018083232421875 4.99788890234375  C 0.00175162321031393 5.00250248009855  0.00172327239157475 5.00711636270511  0.00172327239157475 5.01173028886329  C 0.00172327239157475 5.62911727664068  0.498733978141555 6.13143850569274  1.11608609765625 6.138  L 5 6.138  L 5 26.1846666767578  C 4.43308609765625 28.4872777744141  6.25864164648438 30.3524444511719  8.51130832324219 30  L 21.830975 30  C 24.0819194511719 30.3524444511719  25.907475 28.4872777744141  26 26.1846666767578  L 26 6.11388890234375  L 29.224475 6.11388890234375  C 29.8418271196618 6.10732740823886  30.3388378256367 5.60500617912544  30.3388378256367 4.98761919120309  C 30.3388378256367 4.98300525495428  30.3388094746939 4.9783913622572  30.3387527744141 4.97377777441406  C 30.3387853215548 4.97031715532895  30.3388015953951 4.96685640232562  30.3388015953951 4.96339563019087  C 30.3388015953951 4.35370394514832  29.8445488292657 3.859451179019  29.2348571442232 3.859451179019  C 29.2313963720884 3.859451179019  29.2279356190852 3.85946745285925  29.224475 3.8595  Z M 15.1711416767578 24.6570555488281  L 15.1711416767578 24.6587777744141  C 15.7878121502712 24.6512805501392  16.2837825177163 24.1492437277651  16.2837825177163 23.5325276818615  C 16.2837825177163 23.5279072156189  16.2837540864679 23.5232867931134  16 23.5186666767578  L 16 11.3976666767578  C 16.2837540867163 11.3930465503141  16.2837825180888 11.3884261177182  16.2837825180888 11.3838056413852  C 16.2837825180888 10.7670895953365  15.7878121504188 10.2650527729008  15.1711416767578 10.2575555488281  C 14.553789557096 10.264117042933  14.0567788511211 10.7664382720464  14.0567788511211 11.3838252599688  C 14.0567788511211 11.3884391962177  14.0568072020639 11.3930530889146  14 11.3976666767578  L 14 23.5169444511719  C 14.0568072023119 23.5215580289267  14.0567788514931 23.5261719115332  14.0567788514931 23.5307858376914  C 14.0567788514931 24.1481728254688  14.5537895572431 24.6504940545209  15.1711416767578 24.6570555488281  Z M 9.98036390234375 24.6570555488281  L 9.98036390234375 24.6587777744141  C 10.5977160218584 24.6522162801068  11.0947267276084 24.1498950510547  11.0947267276084 23.5325080632774  C 11.0947267276084 23.5278941371191  11.0946983767897 23.5232802545126  11 23.5186666767578  L 11 11.3976666767578  C 11.0946983770377 11.3930530889146  11.0947267279804 11.3884391962176  11.0947267279804 11.3838252599688  C 11.0947267279804 10.7664382720464  10.5977160220056 10.264117042933  9.98036390234375 10.2575555488281  C 9.36301177071051 10.2641170264665  8.86600104643759 10.7664382605724  8.86600104643759 11.3838252602905  C 8.86600104643759 11.3884391964321  8.86602939737902 11.3930530890219  9 11.3976666767578  L 9 23.5169444511719  C 8.8901971953125 24.1472777744141  9.38791942089844 24.6570555488281  9.98036390234375 24.6570555488281  Z M 20.3601972255859 24.6570555488281  L 20.3619194511719 24.6587777744141  C 20.9785899246852 24.6512805501392  21.4745602921303 24.1492437277651  21.4745602921303 23.5325276818615  C 21.4745602921303 23.527907215619  21.474531860882 23.5232867931133  21 23.5186666767578  L 21 11.3976666767578  C 21.4745317002799 11.3930530889145  21.4745600512226 11.3884391962177  21.4745600512226 11.3838252599688  C 21.4745600512226 10.7664382720464  20.9775493452478 10.264117042933  20.3601972255859 10.2575555488281  C 19.743526751925 10.2650527729008  19.2475563842549 10.7670895953365  19.2475563842549 11.3838056413852  C 19.2475563842549 11.3884261177184  19.2475848156275 11.3930465503139  19 11.3976666767578  L 19 23.5169444511719  C 19.2475848158758 23.5215645675274  19.2475563846275 23.526184990033  19.2475563846275 23.5308054562755  C 19.2475563846275 24.1475215021792  19.7435267520726 24.6495583245532  20.3601972255859 24.6570555488281  Z " fill-rule="nonzero" fill="#ffffff" stroke="none" transform="matrix(1 0 0 1 1337 87 )" />
  </g>
</svg>