<?xml version="1.0" encoding="utf-8"?>
<svg version="1.1" xmlns:xlink="http://www.w3.org/1999/xlink" width="25px" height="17px" xmlns="http://www.w3.org/2000/svg">
  <g transform="matrix(1 0 0 1 -1272 -102 )">
    <path d="M 11.32861328125 11.75537109375  C 11.21923828125 11.8203125  11.099609375 11.8544921875  10.97998046875 11.8544921875  C 10.8193359375 11.8544921875  10.6552734375 11.79638671875  10.52880859375 11.68359375  L 8.255859375 9.68408203125  C 8.03369140625 9.4892578125  7.9619140625 9.17138671875  8.078125 8.89794921875  L 11.3798828125 1.26220703125  C 11.5302734375 0.9169921875  11.93359375 0.756347656250004  12.27880859375 0.906738281250004  C 12.6240234375 1.05712890625  12.78466796875 1.46044921875  12.63427734375 1.8056640625  L 9.52734375 8.98681640625  L 11.05517578125 10.32666015625  L 17.77490234375 6.32421875  C 18.099609375 6.12939453125  18.52001953125 6.23876953125  18.71142578125 6.56005859375  C 18.90625 6.884765625  18.796875 7.30517578125  18.4755859375 7.49658203125  L 11.32861328125 11.75537109375  Z M 24.72021484375 15.744140625  C 24.72021484375 16.1201171875  24.41259765625 16.427734375  24.033203125 16.427734375  L 1.447265625 16.427734375  C 1.0712890625 16.427734375  0.763671875 16.1201171875  0.763671875 15.744140625  C 0.763671875 15.3681640625  1.0712890625 15.060546875  1.447265625 15  L 24.03662109375 15  C 24.41259765625 15.060546875  24.72021484375 15.3681640625  24.72021484375 15.744140625  Z " fill-rule="nonzero" fill="#ffffff" stroke="none" transform="matrix(1 0 0 1 1272 102 )" />
  </g>
</svg>