<?xml version="1.0" encoding="utf-8"?>
<svg version="1.1" xmlns:xlink="http://www.w3.org/1999/xlink" width="22px" height="23px" xmlns="http://www.w3.org/2000/svg">
  <g transform="matrix(1 0 0 1 -1283 -87 )">
    <path d="M 7.17138671875 22.595703125  L 7.126953125 22.595703125  C 6.962890625 22.595703125  6.80224609375 22.5341796875  6.67578125 22.4248046875  L 0.5576171875 17.04833984375  C 0.273925781249998 16.798828125  0.246582031249998 16.3681640625  0.496093749999998 16.08447265625  L 13.607421875 1.158203125  C 14.03125 0.67626953125  14.646484375 0.39599609375  15.2890625 0.39599609375  C 15.83251953125 0.39599609375  16.35546875 0.59423828125  16.765625 0.953125  L 20.54931640625 4.275390625  C 21.4755859375 5.0888671875  21.56787109375 6.50732421875  20.75439453125 7.43359375  L 7.6396484375 22.36328125  C 7.52001953125 22.5  7.3525390625 22.58203125  7.17138671875 22.595703125  Z M 14.62939453125 2.0673828125  L 1.97265625 16.47412109375  L 7.06201171875 20.9482421875  L 19.72216796875 6.5380859375  C 20.0400390625 6.17578125  20.00244140625 5.62548828125  19.6435546875 5.3076171875  L 15.85986328125 1.9853515625  C 15.7010263005478 1.84610906707993  15.4968729383566 1.76955155625825  15.28564453125 1.77001953125  C 15.0361328125 1.77001953125  14.796875 1.87939453125  14.62939453125 2.0673828125  Z " fill-rule="nonzero" fill="#ffffff" stroke="none" transform="matrix(1 0 0 1 1283 87 )" />
  </g>
</svg>