<?xml version="1.0" encoding="utf-8"?>
<svg version="1.1" xmlns:xlink="http://www.w3.org/1999/xlink" width="6px" height="6px" xmlns="http://www.w3.org/2000/svg">
  <g transform="matrix(1 0 0 1 -1278 -110 )">
    <path d="M 1.7841796875 5.76513671875  C 1.6748046875 5.830078125  1.55859375 5.857421875  1.4423828125 5.857421875  C 1.28173828125 5.857421875  1.12451171875 5.802734375  0.998046875 5.693359375  L 0.7177734375 5.4541015625  C 0.49560546875 5.2626953125  0.4169921875 4.9482421875  0.52978515625 4.6748046875  L 2.06787109375 0.91162109375  C 2.21142578125 0.56298828125  2.611328125 0.3955078125  2.9599609375 0.5390625  C 3.30859375 0.682617187500004  3.47607421875 1.08251953125  3.33251953125 1.43115234375  L 2.33447265625 3.8818359375  L 4.6416015625 2.57275390625  C 4.9697265625 2.38818359375  5.38671875 2.5009765625  5.57470703125 2.8291015625  C 5.75927734375 3.1572265625  5.646484375 3.57421875  5.318359375 3.76220703125  L 1.7841796875 5.76513671875  Z " fill-rule="nonzero" fill="#ffffff" stroke="none" transform="matrix(1 0 0 1 1278 110 )" />
  </g>
</svg>