<?xml version="1.0" encoding="utf-8"?>
<svg version="1.1" xmlns:xlink="http://www.w3.org/1999/xlink" width="29px" height="29px" xmlns="http://www.w3.org/2000/svg">
  <g transform="matrix(1 0 0 1 -621 -181 )">
    <path d="M 0.233856031128404 14.5088920233463  C 0.233856031128404 10.6923842409241  1.71301361867704 7.10446887159533  4.39834046692607 4.40569163424125  C 7.0836673151751 1.70691439688716  10.6585817120623 0.218832684824904  14.4607723735409 0.218832684824904  C 18.2629630350195 0.218832684824904  21.8358229571984 1.70598346303502  24.5221449416342 4.40476070038911  C 27.20846692607 7.10353793774319  28.6866293774319 10.6908112840467  28.6866293774319 14.5079610894942  C 28.6866293774319 18.3251108949416  27.2074717898833 21.9123842412451  24.5221449416342 24.6108404669261  C 21.8368180933852 27.309296692607  18.2619357976654 28.797763618677  14.4620243190661 28.797763618677  C 10.6621128404669 28.797763618677  7.08591439688716 27.3108696498054  4.39962451393969 24.6109046692607  C 1.71333463099222 21.910939688716  0.233856031449416 18.3254961089494  0.233856031128405 14.5089241245136  Z M 23.0748317120623 23.1709426070039  C 25.3744951361868 20.8591449416342  26.6461828793774 17.7813813229572  26.6461828793774 14.5088920233463  C 26.6461828793774 11.2354717898833  25.3783793771109 8.15899221789884  23.075826848249 5.84591050583658  C 20.7732743193872 3.53282879377432  17.7150282101167 2.26021011673152  14.4607402720525 2.26021011673152  C 11.2064523339883 2.26021011673152  8.14660116699416 3.53311770428016  5.84687354085603 5.84494747081712  C 3.5471459147179 8.15677723735409  2.27651750972763 11.2335778210117  2.27651750972763 14.5079610894942  C 2.27651750972763 17.7823443579767  3.544 20.8578608949416  5.84687354085603 23.1709426070039  C 8.14974708171206 25.4840243190662  11.2077042801556 26.7566429957879  14.4619922178988 26.7556799610895  C 17.7162480544747 26.75471692607  20.7751682879377 25.4827402723735  23.0748317120623 23.1709426070039  Z M 15.4813968871595 21.6541303501946  L 15.4813968871595 15.5295807392996  L 21.6059143968872 15.5295807392996  C 22.1696429961089 15.5051838521401  22.6068287937743 15.0283852140078  22.5823998054475 14.4646887159533  C 22.5594795719844 13.9351799610895  22.135423151751 13.5111556420233  21.6059143968872 13.488203307393  L 15.4814289883268 13.488203307393  L 15.4814289883268 7.36400680933852  C 15.457 6.80031031128405  14.9802013618677 6.36312451361868  14.4165048638132 6.38752140077821  C 13.8870282101167 6.41047373540856  13.4630038910506 6.83449805447471  13.4400515564202 7.36403891018483  L 13.4400515564202 13.4881712062257  L 7.3155340466926 13.4881712062257  C 6.75183754863813 13.5126001945525  6.31465175097276 13.9893988326848  6.3390486381323 14.5530953307393  C 6.36200097276264 15.0825719844358  6.78605739299611 15.5065963035019  7.31556614785992 15.5295486381323  L 13.4400194552529 15.5295486381323  L 13.4400194552529 21.6540661478599  C 13.4155583657588 22.2177626459144  13.8527441634241 22.6945612837257  14.4164727626459 22.7189581712062  C 14.9802013618677 22.7434192607004  15.457 22.3062013618677  15.4813968871595 21.7424727626459  C 15.482677331734 21.7130285055613  15.482677331734 21.6835425061118  15.4813968871595 21.6540982490272  Z " fill-rule="nonzero" fill="#27acc2" stroke="none" transform="matrix(1 0 0 1 621 181 )" />
  </g>
</svg>