<?xml version="1.0" encoding="utf-8"?>
<svg version="1.1" xmlns:xlink="http://www.w3.org/1999/xlink" width="169px" height="28px" xmlns="http://www.w3.org/2000/svg">
  <defs>
    <mask fill="white" id="clip9">
      <path d="M 0 24  L 0 4  C 0 1.76  1.98293333333334 0  4.50666666666667 0  L 76.759071310115 0  L 110.439233716473 0  L 164.493333333333 0  C 167.017066666667 0  169 1.76  169 4  L 169 14.4597701149415  L 169 24  C 169 26.24  167.017066666667 28  164.493333333333 28  L 4.50666666666667 28  C 1.98293333333334 28  0 26.24  0 24  Z " fill-rule="evenodd" />
    </mask>
  </defs>
  <g transform="matrix(1 0 0 1 -92 -66 )">
    <path d="M 0 24  L 0 4  C 0 1.76  1.98293333333334 0  4.50666666666667 0  L 76.759071310115 0  L 110.439233716473 0  L 164.493333333333 0  C 167.017066666667 0  169 1.76  169 4  L 169 14.4597701149415  L 169 24  C 169 26.24  167.017066666667 28  164.493333333333 28  L 4.50666666666667 28  C 1.98293333333334 28  0 26.24  0 24  Z " fill-rule="nonzero" fill="#f2f2f2" stroke="none" transform="matrix(1 0 0 1 92 66 )" />
    <path d="M 0 24  L 0 4  C 0 1.76  1.98293333333334 0  4.50666666666667 0  L 76.759071310115 0  L 110.439233716473 0  L 164.493333333333 0  C 167.017066666667 0  169 1.76  169 4  L 169 14.4597701149415  L 169 24  C 169 26.24  167.017066666667 28  164.493333333333 28  L 4.50666666666667 28  C 1.98293333333334 28  0 26.24  0 24  Z " stroke-width="2" stroke="#409eff" fill="none" transform="matrix(1 0 0 1 92 66 )" mask="url(#clip9)" />
  </g>
</svg>