<?xml version="1.0" encoding="utf-8"?>
<svg version="1.1" xmlns:xlink="http://www.w3.org/1999/xlink" width="11px" height="12px" xmlns="http://www.w3.org/2000/svg">
  <g transform="matrix(1 0 0 1 -222 -56 )">
    <path d="M 6.74609375 7.359375  C 7.32562099358971 6.72716346153847  7.61538461538465 5.96634615384616  7.61538461538465 5.07692307692309  C 7.61538461538465 4.18749999999999  7.32562099358971 3.4266826923077  6.74609375 2.79447115384616  C 6.16656650641029 2.16225961538461  5.46915064102564 1.84615384615384  4.65384615384623 1.84615384615384  C 3.83854166666673 1.84615384615384  3.14112580128208 2.16225961538461  2.56159855769228 2.79447115384616  C 1.98207131410257 3.4266826923077  1.69230769230772 4.18749999999999  1.69230769230772 5.07692307692309  C 1.69230769230772 5.96634615384616  1.98207131410257 6.72716346153847  2.56159855769228 7.359375  C 3.14112580128208 7.99158653846153  3.83854166666673 8.30769230769231  4.65384615384623 8.30769230769231  C 5.46915064102564 8.30769230769231  6.16656650641029 7.99158653846153  6.74609375 7.359375  Z M 10.7554086538462 10.4278846153846  C 10.9184695512821 10.6057692307692  11 10.8221153846154  11 11.0769230769231  C 11 11.3269230769231  10.9162660256411 11.5432692307692  10.7487980769231 11.7259615384615  C 10.5813301282051 11.9086538461538  10.3830128205128 12  10.1538461538462 12  C 9.91586538461535 12  9.71754807692307 11.9086538461538  9.55889423076921 11.7259615384615  L 7.29146634615377 9.25961538461538  C 6.50260416666673 9.85576923076924  5.62339743589743 10.1538461538462  4.65384615384623 10.1538461538462  C 4.02363782051278 10.1538461538462  3.42097355769228 10.0204326923077  2.84585336538465 9.75360576923077  C 2.27073317307693 9.48677884615384  1.77493990384623 9.12620192307691  1.35847355769228 8.671875  C 0.94200721153851 8.21754807692309  0.61147836538465 7.67668269230769  0.36688701923079 7.04927884615384  C 0.12229567307693 6.421875  0 5.76442307692307  0 5.07692307692309  C 0 4.38942307692308  0.12229567307693 3.73197115384616  0.36688701923079 3.10456730769231  C 0.61147836538465 2.47716346153846  0.94200721153851 1.93629807692307  1.35847355769228 1.48197115384616  C 1.77493990384623 1.02764423076923  2.27073317307693 0.667067307692309  2.84585336538465 0.400240384615395  C 3.42097355769228 0.133413461538457  4.02363782051278 0  4.65384615384623 0  C 5.2840544871795 0  5.88671875 0.133413461538457  6.46183894230772 0.400240384615395  C 7.03695913461535 0.667067307692309  7.53275240384623 1.02764423076923  7.94921875 1.48197115384616  C 8.36568509615377 1.93629807692307  8.69621394230772 2.47716346153846  8.94080528846149 3.10456730769231  C 9.18539663461535 3.73197115384616  9.30769230769228 4.38942307692308  9.30769230769228 5.07692307692309  C 9.30769230769228 6.13461538461539  9.03445512820515 7.09374999999999  8.48798076923079 7.95432692307691  L 10.7554086538462 10.4278846153846  Z " fill-rule="nonzero" fill="#cccccc" stroke="none" transform="matrix(1 0 0 1 222 56 )" />
  </g>
</svg>