<?xml version="1.0" encoding="utf-8"?>
<svg version="1.1" xmlns:xlink="http://www.w3.org/1999/xlink" width="116px" height="32px" xmlns="http://www.w3.org/2000/svg">
  <defs>
    <mask fill="white" id="clip83">
      <path d="M 0 28  L 0 4  C 0 1.76  1.75999999999999 0  4 0  L 112 0  C 114.24 0  116 1.76  116 4  L 116 28  C 116 30.24  114.24 32  112 32  L 47.7142857142858 32  L 4 32  C 1.75999999999999 32  0 30.24  0 28  Z " fill-rule="evenodd" />
    </mask>
  </defs>
  <g transform="matrix(1 0 0 1 -1294 -34 )">
    <path d="M 0 28  L 0 4  C 0 1.76  1.75999999999999 0  4 0  L 112 0  C 114.24 0  116 1.76  116 4  L 116 28  C 116 30.24  114.24 32  112 32  L 47.7142857142858 32  L 4 32  C 1.75999999999999 32  0 30.24  0 28  Z " fill-rule="nonzero" fill="#ffffff" stroke="none" transform="matrix(1 0 0 1 1294 34 )" />
    <path d="M 0 28  L 0 4  C 0 1.76  1.75999999999999 0  4 0  L 112 0  C 114.24 0  116 1.76  116 4  L 116 28  C 116 30.24  114.24 32  112 32  L 47.7142857142858 32  L 4 32  C 1.75999999999999 32  0 30.24  0 28  Z " stroke-width="2" stroke="#dcdfe6" fill="none" transform="matrix(1 0 0 1 1294 34 )" mask="url(#clip83)" />
  </g>
</svg>