<?xml version="1.0" encoding="utf-8"?>
<svg version="1.1" xmlns:xlink="http://www.w3.org/1999/xlink" width="130px" height="28px" xmlns="http://www.w3.org/2000/svg">
  <defs>
    <mask fill="white" id="clip66">
      <path d="M 0 24  L 0 4  C 0 1.76  1.75999999999999 0  4 0  L 126 0  C 128.24 0  130 1.76  130 4  L 130 24  C 130 26.24  128.24 28  126 28  L 88.3888888888889 28  L 4 28  C 1.75999999999999 28  0 26.24  0 24  Z " fill-rule="evenodd" />
    </mask>
  </defs>
  <g transform="matrix(1 0 0 1 -1460 -38 )">
    <path d="M 0 24  L 0 4  C 0 1.76  1.75999999999999 0  4 0  L 126 0  C 128.24 0  130 1.76  130 4  L 130 24  C 130 26.24  128.24 28  126 28  L 88.3888888888889 28  L 4 28  C 1.75999999999999 28  0 26.24  0 24  Z " fill-rule="nonzero" fill="#ffffff" stroke="none" transform="matrix(1 0 0 1 1460 38 )" />
    <path d="M 0 24  L 0 4  C 0 1.76  1.75999999999999 0  4 0  L 126 0  C 128.24 0  130 1.76  130 4  L 130 24  C 130 26.24  128.24 28  126 28  L 88.3888888888889 28  L 4 28  C 1.75999999999999 28  0 26.24  0 24  Z " stroke-width="2" stroke="#409eff" fill="none" transform="matrix(1 0 0 1 1460 38 )" mask="url(#clip66)" />
  </g>
</svg>