<?xml version="1.0" encoding="utf-8"?>
<svg version="1.1" xmlns:xlink="http://www.w3.org/1999/xlink" width="11px" height="10px" xmlns="http://www.w3.org/2000/svg">
  <g transform="matrix(1 0 0 1 -251 -156 )">
    <path d="M 256.5 157  C 259.02 157  261 158.76  261 161  C 261 163.24  259.02 165  256.5 165  C 253.98 165  252 163.24  252 161  C 252 158.76  253.98 157  256.5 157  Z " fill-rule="nonzero" fill="#1890ff" stroke="none" />
    <path d="M 256.5 157  C 259.02 157  261 158.76  261 161  C 261 163.24  259.02 165  256.5 165  C 253.98 165  252 163.24  252 161  C 252 158.76  253.98 157  256.5 157  Z " stroke-width="2" stroke="#ffffff" fill="none" />
  </g>
</svg>