<?xml version="1.0" encoding="utf-8"?>
<svg version="1.1" xmlns:xlink="http://www.w3.org/1999/xlink" width="12px" height="12px" viewBox="234 494.5  12 12" xmlns="http://www.w3.org/2000/svg">
  <path d="M 240 494.5  C 243.36 494.5  246 497.14  246 500.5  C 246 503.86  243.36 506.5  240 506.5  C 236.64 506.5  234 503.86  234 500.5  C 234 497.14  236.64 494.5  240 494.5  Z " fill-rule="nonzero" fill="#f0f0f0" stroke="none" />
  <path d="M 240 495  C 243.08 495  245.5 497.42  245.5 500.5  C 245.5 503.58  243.08 506  240 506  C 236.92 506  234.5 503.58  234.5 500.5  C 234.5 497.42  236.92 495  240 495  Z " stroke-width="1" stroke="#797979" fill="none" />
  <path d="M 240 503.5  C 238.32 503.5  237 502.18  237 500.5  C 237 498.82  238.32 497.5  240 497.5  C 241.68 497.5  243 498.82  243 500.5  C 243 502.18  241.68 503.5  240 503.5  " fill-rule="nonzero" fill="#797979" stroke="none" />
</svg>