<?xml version="1.0" encoding="utf-8"?>
<svg version="1.1" xmlns:xlink="http://www.w3.org/1999/xlink" width="123px" height="28px" xmlns="http://www.w3.org/2000/svg">
  <defs>
    <mask fill="white" id="clip57">
      <path d="M 0 24  L 0 4  C 0 1.76  2.06171428571429 0  4.68571428571429 0  L 81.2190476190476 0  L 118.314285714286 0  C 120.938285714286 0  123 1.76  123 4  L 123 24  C 123 26.24  120.938285714286 28  118.314285714286 28  L 4.68571428571429 28  C 2.06171428571429 28  0 26.24  0 24  Z " fill-rule="evenodd" />
    </mask>
  </defs>
  <g transform="matrix(1 0 0 1 -827 -43 )">
    <path d="M 0 24  L 0 4  C 0 1.76  2.06171428571429 0  4.68571428571429 0  L 81.2190476190476 0  L 118.314285714286 0  C 120.938285714286 0  123 1.76  123 4  L 123 24  C 123 26.24  120.938285714286 28  118.314285714286 28  L 4.68571428571429 28  C 2.06171428571429 28  0 26.24  0 24  Z " fill-rule="nonzero" fill="#ffffff" stroke="none" transform="matrix(1 0 0 1 827 43 )" />
    <path d="M 0 24  L 0 4  C 0 1.76  2.06171428571429 0  4.68571428571429 0  L 81.2190476190476 0  L 118.314285714286 0  C 120.938285714286 0  123 1.76  123 4  L 123 24  C 123 26.24  120.938285714286 28  118.314285714286 28  L 4.68571428571429 28  C 2.06171428571429 28  0 26.24  0 24  Z " stroke-width="2" stroke="#c0c4cc" fill="none" transform="matrix(1 0 0 1 827 43 )" mask="url(#clip57)" />
  </g>
</svg>