<?xml version="1.0" encoding="utf-8"?>
<svg version="1.1" xmlns:xlink="http://www.w3.org/1999/xlink" width="119px" height="28px" xmlns="http://www.w3.org/2000/svg">
  <defs>
    <mask fill="white" id="clip61">
      <path d="M 0 24  L 0 4  C 0 1.76  1.99466666666667 0  4.53333333333333 0  L 78.5777777777778 0  L 114.466666666667 0  C 117.005333333333 0  119 1.76  119 4  L 119 24  C 119 26.24  117.005333333333 28  114.466666666667 28  L 4.53333333333333 28  C 1.99466666666667 28  0 26.24  0 24  Z " fill-rule="evenodd" />
    </mask>
  </defs>
  <g transform="matrix(1 0 0 1 -114 -87 )">
    <path d="M 0 24  L 0 4  C 0 1.76  1.99466666666667 0  4.53333333333333 0  L 78.5777777777778 0  L 114.466666666667 0  C 117.005333333333 0  119 1.76  119 4  L 119 24  C 119 26.24  117.005333333333 28  114.466666666667 28  L 4.53333333333333 28  C 1.99466666666667 28  0 26.24  0 24  Z " fill-rule="nonzero" fill="#ffffff" stroke="none" transform="matrix(1 0 0 1 114 87 )" />
    <path d="M 0 24  L 0 4  C 0 1.76  1.99466666666667 0  4.53333333333333 0  L 78.5777777777778 0  L 114.466666666667 0  C 117.005333333333 0  119 1.76  119 4  L 119 24  C 119 26.24  117.005333333333 28  114.466666666667 28  L 4.53333333333333 28  C 1.99466666666667 28  0 26.24  0 24  Z " stroke-width="2" stroke="#c0c4cc" fill="none" transform="matrix(1 0 0 1 114 87 )" mask="url(#clip61)" />
  </g>
</svg>