<?xml version="1.0" encoding="utf-8"?>
<svg version="1.1" xmlns:xlink="http://www.w3.org/1999/xlink" width="11px" height="11px" xmlns="http://www.w3.org/2000/svg">
  <g transform="matrix(1 0 0 1 -85 -230 )">
    <path d="M 90.5 230  C 93.58 230  96 232.42  96 235.5  C 96 238.58  93.58 241  90.5 241  C 87.42 241  85 238.58  85 235.5  C 85 232.42  87.42 230  90.5 230  Z " fill-rule="nonzero" fill="#ffffff" stroke="none" />
    <path d="M 90.5 230.5  C 93.3 230.5  95.5 232.7  95.5 235.5  C 95.5 238.3  93.3 240.5  90.5 240.5  C 87.7 240.5  85.5 238.3  85.5 235.5  C 85.5 232.7  87.7 230.5  90.5 230.5  Z " stroke-width="1" stroke="#797979" fill="none" />
  </g>
</svg>