<?xml version="1.0" encoding="utf-8"?>
<svg version="1.1" xmlns:xlink="http://www.w3.org/1999/xlink" width="24px" height="22px" xmlns="http://www.w3.org/2000/svg">
  <defs>
    <filter x="778px" y="149px" width="24px" height="22px" filterUnits="userSpaceOnUse" id="filter76">
      <feOffset dx="0" dy="0" in="SourceAlpha" result="shadowOffsetInner" />
      <feGaussianBlur stdDeviation="2" in="shadowOffsetInner" result="shadowGaussian" />
      <feComposite in2="shadowGaussian" operator="atop" in="SourceAlpha" result="shadowComposite" />
      <feColorMatrix type="matrix" values="0 0 0 0 0  0 0 0 0 0  0 0 0 0 0  0 0 0 0.149019607843137 0  " in="shadowComposite" />
    </filter>
    <g id="widget77">
      <path d="M 790 154  C 793.92 154  797 156.64  797 160  C 797 163.36  793.92 166  790 166  C 786.08 166  783 163.36  783 160  C 783 156.64  786.08 154  790 154  Z " fill-rule="nonzero" fill="#1890ff" stroke="none" />
      <path d="M 790 154  C 793.92 154  797 156.64  797 160  C 797 163.36  793.92 166  790 166  C 786.08 166  783 163.36  783 160  C 783 156.64  786.08 154  790 154  Z " stroke-width="2" stroke="#ffffff" fill="none" />
    </g>
  </defs>
  <g transform="matrix(1 0 0 1 -778 -149 )">
    <use xlink:href="#widget77" filter="url(#filter76)" />
    <use xlink:href="#widget77" />
  </g>
</svg>