<?xml version="1.0" encoding="utf-8"?>
<svg version="1.1" xmlns:xlink="http://www.w3.org/1999/xlink" width="12px" height="10px" xmlns="http://www.w3.org/2000/svg">
  <g transform="matrix(1 0 0 1 -251 -156 )">
    <path d="M 257 157  C 259.8 157  262 158.76  262 161  C 262 163.24  259.8 165  257 165  C 254.2 165  252 163.24  252 161  C 252 158.76  254.2 157  257 157  Z " fill-rule="nonzero" fill="#1890ff" stroke="none" />
    <path d="M 257 157  C 259.8 157  262 158.76  262 161  C 262 163.24  259.8 165  257 165  C 254.2 165  252 163.24  252 161  C 252 158.76  254.2 157  257 157  Z " stroke-width="2" stroke="#ffffff" fill="none" />
  </g>
</svg>